<?xml version="1.0" encoding="UTF-8"?>
<svg id="Layer_2" data-name="Layer 2" xmlns="http://www.w3.org/2000/svg" viewBox="0 0 2236.23 1601.53">
  <defs>
    <style>
      .cls-1 {
        fill: #fff;
      }

      .cls-2 {
        fill: #58a1c7;
      }

      .cls-3 {
        fill: #a6e3f3;
      }

      .cls-4 {
        fill: #444092;
      }

      .cls-5 {
        fill: #68a1bf;
      }

      .cls-6 {
        fill: #020202;
      }

      .cls-7 {
        opacity: .4;
      }

      .cls-7, .cls-8, .cls-9 {
        fill: none;
      }

      .cls-10 {
        fill: #080435;
      }

      .cls-11 {
        fill: #764678;
      }

      .cls-12 {
        fill: #fcffff;
      }

      .cls-13 {
        fill: #89cde4;
      }

      .cls-14 {
        fill: #331832;
      }

      .cls-15 {
        fill: #acc9c5;
      }

      .cls-16 {
        fill: #5c305d;
      }

      .cls-17 {
        fill: #ccd39c;
      }

      .cls-18 {
        fill: #366f90;
      }

      .cls-8 {
        opacity: .6;
      }

      .cls-19 {
        fill: #b8d5dc;
      }

      .cls-9 {
        opacity: .5;
      }

      .cls-20 {
        fill: #cbf0f2;
      }

      .cls-21 {
        fill: #ef8062;
      }

      .cls-22 {
        fill: #c2c68e;
      }

      .cls-23 {
        fill: #ec865c;
      }

      .cls-24 {
        fill: #ffb27d;
      }

      .cls-25 {
        fill: #daebe8;
      }

      .cls-26 {
        fill: #92bcb5;
      }

      .cls-27 {
        fill: #e9845c;
      }
    </style>
  </defs>
  <g id="_Layer_" data-name="&amp;lt;Layer&amp;gt;">
    <g>
      <path class="cls-25" d="m1944.7,1587.04c-186.16,25.41-377.95,14.82-769.83-11.77-220.05-14.93-662.49,9.81-883.33,11.77C130.53,1588.47,0,1457.41,0,1297.51V300.3C0,140.39,130.8,1.36,291.54,10.77c149.27,8.73,368.82,43.31,597.69,22.14C1161.43,7.73,1678.09-13.67,1944.7,10.77c160.33,14.7,291.54,129.63,291.54,289.53v997.21c0,159.9-132.03,267.76-291.54,289.53Z"/>
      <ellipse class="cls-19" cx="1122.03" cy="1314.59" rx="846.47" ry="93.7"/>
      <g>
        <path class="cls-15" d="m719.12,474.91c-13.16,8.81-19.91,7.25-23.42,2.1-3.51-5.16-2.44-11.95,10.72-20.76,23.97-16.05,41.9-14.47,41.9-14.47,0,0-4.88,16.86-29.2,33.14Z"/>
        <g>
          <path class="cls-15" d="m736.73,844.23l-3.01-.08c0-.46.7-46.95-19.44-113.79-18.59-61.68-59.22-153.8-147.24-242.41l2.13-2.1c88.51,89.1,129.35,181.75,148.02,243.79,20.25,67.26,19.54,114.12,19.53,114.59Z"/>
          <path class="cls-15" d="m657.58,599.07l-2.64-1.46c52.74-94.95,9.87-203.91,9.43-205l2.79-1.1c.44,1.1,43.86,111.35-9.59,207.56Z"/>
          <path class="cls-15" d="m609.09,553.21c-30.52,1.8-54.6-12.04-54.87-12.2l1.51-2.58c.31.18,31.16,17.88,66.85,9.88l.68,2.92c-4.83,1.08-9.57,1.71-14.17,1.98Z"/>
          <path class="cls-15" d="m563.92,471.39c16.85,13.33,18.73,21.23,14.87,26.07-3.86,4.85-12,4.81-28.85-8.53-30.69-24.29-38.54-44.8-38.54-44.8,0,0,21.38,2.61,52.52,27.26Z"/>
          <path class="cls-15" d="m561.63,530.86c20.07,7.69,24.25,14.67,22.05,20.45-2.2,5.79-9.96,8.19-30.03.51-36.56-14-50.24-31.25-50.24-31.25,0,0,21.13-3.92,58.22,10.29Z"/>
          <path class="cls-15" d="m636.64,503.75c4.65,15.17,1.2,21.12-4.77,22.89-5.96,1.77-12.18-1.31-16.83-16.48-8.47-27.64-1.76-44.2-1.76-44.2,0,0,14.77,9.75,23.36,37.79Z"/>
          <path class="cls-15" d="m672.69,379.01c6.37,20.43,3.44,27.97-2.51,29.77-5.95,1.8-12.68-2.82-19.05-23.24-11.61-37.22-6.44-58.46-6.44-58.46,0,0,16.22,14.18,28,51.94Z"/>
        </g>
      </g>
      <g>
        <path class="cls-26" d="m861.94,878.8s-317.56-363.45-435.92-268.61c-118.36,94.84,279.33,193.68,367.63,302.58l68.28-33.97Z"/>
        <path class="cls-5" d="m823.91,898.14c-59.61-76.31-150.35-138.23-215.97-176.75-71.15-41.75-128.88-65.73-129.46-65.96l1.5-3.56c.58.24,58.57,24.32,129.94,66.2,65.92,38.68,157.08,100.91,217.06,177.7l-3.08,2.36Z"/>
      </g>
      <g>
        <path class="cls-17" d="m800.97,1234.46c-83.55-.49-120.69-36.11-134.04-53.89-6.93-9.23-14.89-17.68-23.91-24.89-27.37-21.91-33.87-14.66-111.78,5.68-66.1,17.22-78.72-40.69-110.62-80.77-.58-.73-1.17-1.46-1.76-2.18-12.26-14.8-27.43-26.84-49.36-31.2-23.26-4.61-47.31-12.62-68.66-23.31-1.77-.88-3.53-1.79-5.27-2.72-42.44-22.6-72.52-56-60.86-94.04.27-.9.57-1.8.89-2.7,2.25-6.32,5.67-12.77,10.36-19.3,48.98-68.08,105.72-49.89,169.88-45.23,35.47,2.57,81.86-45.68,129.25-70.68.68-.36,1.36-.71,2.04-1.06,37.67-19.31,75.87-23.28,109.63,25.26,0,0,0,0,.01.02.69.98,1.37,1.96,2.05,2.92,75.31,106.8,104.8,63.76,199.71,76.96,17.65,2.47,33.61,5.49,44.66,13.79,103.04,77.39,87.2,323.48-102.22,327.34Z"/>
        <g>
          <path class="cls-22" d="m859.15,1062.6l2.98-4.54c-2.01-1.3-206.51-130.3-627.4-133.62l-.05,5.42c419.31,3.31,622.46,131.45,624.46,132.74Z"/>
          <path class="cls-22" d="m595.08,905.5c54.8-50.37,64.01-89.84,64.37-91.49l-5.33-1.15c-.09.39-9.35,39.59-62.75,88.68l3.71,3.97Z"/>
          <path class="cls-22" d="m586.3,964.05c15.2-27.48,13.17-66.73-5.88-113.48-14.26-35.01-33.25-62.35-33.44-62.62l-4.49,3.09c.74,1.06,73.98,107.22,39.02,170.42l4.79,2.6Z"/>
          <path class="cls-22" d="m475.43,956.33c6.53-5.58,10.05-9.2,10.21-9.36l-3.96-3.72c-.73.77-74.94,76.86-186.07,75.24l-.09,5.41c89.55,1.31,155.59-46.76,179.9-67.56Z"/>
          <path class="cls-22" d="m422.64,1082.35c24.95-28.43,31.79-56.56,33.13-75.16,1.46-20.24-2.99-33.61-3.18-34.17l-5.18,1.73c.17.51,16.8,51.99-28.89,104.04l4.12,3.55Z"/>
        </g>
      </g>
      <path class="cls-15" d="m454.14,785.68c-15.68-2.77-19.43-8.54-18.31-14.64,1.12-6.1,6.69-10.22,22.36-7.45,28.55,5.05,40.33,18.54,40.33,18.54,0,0-15.41,8.68-44.38,3.55Z"/>
      <g>
        <g class="cls-8">
          <path class="cls-15" d="m1352.25,966.08s152.74-493.78,289.8-447.29c137.06,46.49-178.2,308.19-217.95,453.34l-71.85-6.05Z"/>
        </g>
        <g>
          <path class="cls-17" d="m1407.19,897.5s344.46-421.17,485.34-319.8c140.88,101.37-309.82,229.1-405.19,355.01l-80.15-35.21Z"/>
          <path class="cls-22" d="m1451.84,917.58c64.22-88.13,164.92-161.44,238.09-207.43,79.32-49.85,144.24-79.19,144.88-79.48l-1.91-3.93c-.65.29-65.85,29.76-145.43,79.78-73.49,46.19-174.66,119.86-239.29,208.55l3.66,2.52Z"/>
        </g>
        <g>
          <path class="cls-15" d="m1804.22,1038.86c-68.96,8.53-65.6,108.93-141.43,83.99-64.13-21.13-69.17-27.43-93.25-11.09-8.25,5.6-15.53,12.43-21.82,20.06-7.54,9.14-21.75,22.35-41.87,24.06-122.93,10.44-274.95-177.24-140.79-262.37,9.69-6.15,23.2-7.69,38.1-8.69,80.84-5.37,102.9,32.24,173.09-53.66,70.2-85.93,145.21,52.01,199.14,51.9,53.94-.11,102.38-11.7,139.75,46.78,37.37,58.53-41.97,100.54-110.93,109.02Z"/>
          <g class="cls-9">
            <path class="cls-5" d="m1393.65,1023.16l-2.25-3.88c1.75-.95,179.74-94.61,532.13-73.02l-.25,4.43c-351.06-21.51-527.88,71.53-529.63,72.47Z"/>
            <path class="cls-5" d="m1622.98,909.97c-43.17-44.35-48.78-77.14-49-78.51l4.52-.64c.05.32,5.72,32.91,47.79,76.12l-3.32,3.03Z"/>
            <path class="cls-5" d="m1627.22,958.35c-11.26-23.35-7.47-55.31,10.96-92.44,13.8-27.8,31.14-49.06,31.32-49.27l3.59,2.78c-.68.83-67.61,83.39-41.72,137.08l-4.15,1.85Z"/>
            <path class="cls-5" d="m1720.4,958.44c-5.16-4.94-7.92-8.1-8.04-8.25l3.51-2.82c.57.67,58.62,67.16,151.7,72.25l-.22,4.43c-75-4.1-127.71-47.21-146.95-65.62Z"/>
            <path class="cls-5" d="m1757.87,1064.51c-19.37-24.68-23.59-48.08-23.72-63.36-.14-16.63,4.29-27.31,4.48-27.75l4.24,1.72c-.17.41-16.82,41.54,18.64,86.73l-3.64,2.66Z"/>
          </g>
        </g>
        <path class="cls-15" d="m1731.46,511.58c11.94-16.83,21.04-18.1,27.89-13.51,6.85,4.6,8.85,13.33-3.09,30.16-21.74,30.65-44.65,37.14-44.65,37.14,0,0-2.21-22.69,19.85-53.79Z"/>
        <path class="cls-15" d="m1887.85,804.73c17.31-.3,22.61,4.94,22.79,11.52.19,6.58-4.81,12-22.12,12.3-31.53.55-47.1-11.1-47.1-11.1,0,0,14.44-12.17,46.43-12.72Z"/>
        <path class="cls-15" d="m1850.05,761.96c11.01-11.53,18.1-11.53,22.8-7.31,4.7,4.23,5.24,11.08-5.77,22.61-20.06,21-38.27,23.5-38.27,23.5,0,0,.89-17.5,21.24-38.81Z"/>
      </g>
      <g>
        <path class="cls-2" d="m1508.39,1126.5s-.03.04-.05.06c-89.03,117.95-238.57,188.03-394.86,188.03-253.95,0-479.74-194.07-479.74-448.02,0-209.5,114.42-359.73,271.98-428.9,42.65-18.72,88.46-31.52,136.01-37.92,23.54-3.19,47.52-4.8,71.75-4.8,63,0,123.44,12.68,178.89,35.63.29.12.58.24.87.36,167.68,69.76,289.55,233.39,298.05,423.82,4.71,105.66-27.29,198.03-82.9,271.72Z"/>
        <g>
          <path class="cls-13" d="m850,894.34s17.91,41.51,0,64.31c-17.91,22.79-19.54,65.94,16.28,94.43,35.82,28.49,51.28,30.93,43.14,59.42-8.14,28.49-16.69,63.29-3.26,77.94,13.43,14.65,18.93,49.45,48.84,51.89,29.92,2.44-2.44-23.81,17.09-48.23,19.54-24.42,95.24-29.3,87.91-77.53-7.33-48.23,62.27-52.5,72.04-84.25,9.77-31.75-31.75-51.28-66.55-48.84-34.8,2.44-13.43-51.89-51.28-59.83-37.85-7.94-55.56-38.46-77.53-34.8-21.98,3.66-46.4-27.47-71.43-17.7-25.03,9.77-15.26,23.2-15.26,23.2Z"/>
          <path class="cls-13" d="m786.5,562.22s-26.05,20.35-33.37,52.91c-7.33,32.56-43.96,52.91-49.66,97.68-5.7,44.77,20.15,45.99,10.99,70.41-9.16,24.42,2.22,36.63,30.11,48.84,27.89,12.21,30.33,30.99,46.81,37.17,16.48,6.18,12.21,22.66,17.7,24.5,5.49,1.83,3.05-12.41,8.75-31.14,5.7-18.72,10.58-26.46-10.18-25.64-20.76.81-14.25-15.87-6.11-26.46,8.14-10.58-11.4-12.21-17.91-10.58-6.51,1.63-4.88,31.75-18.32,17.5-13.43-14.25-19.94-30.53-8.95-49.25,10.99-18.72,34.6-3.26,51.28-25.64,16.69-22.39,40.29-13.43,41.51,4.48,1.22,17.91,34.6,18.32,40.29-5.29,5.7-23.61,3.26-64.71,37.44-71.43,34.19-6.72,101.4-40.9,58.63-54.95-42.76-14.04-25.67-43.35-47.65-41.51s-13.43,34.8-37.85,25.03c-24.42-9.77-42.13-36.02-7.94-43.35,34.19-7.33,48.23-45.18,21.98-42.74-26.25,2.44-30.53-23.2-46.4-20.15s-32.36,41.51-48.84,51.28c-16.48,9.77-32.36,18.32-32.36,18.32Z"/>
          <path class="cls-13" d="m1006.69,486.93s33.78-9.36,48.43,0c14.65,9.36,37.44,35.82,18.32,45.58-19.13,9.77-39.09,13.02-29.72,31.34,9.37,18.32-26.86,24.42-37.03,0-10.18-24.42-10.18-33.37-20.76-44.77-10.58-11.4-6.11-35.82,20.76-32.15Z"/>
          <path class="cls-13" d="m1508.39,1126.5s-.03.04-.05.06c-138.21-36.66-22.97-94.07-71.84-160.09-27.93-37.72,21.77-83.1-10-89.34-18.43-3.61-60.87,43.46-85.4,0-24.52-43.45-68.13-43.74-80.85-17.39-12.72,26.34-66.32,44.51-101.49,25.43-35.17-19.08-14.79-44.51-45.23-64.5-30.44-19.99-32.7-51.78,0-76.31s17.72-59.96,66.78-49.06c49.06,10.89,39.51-102.2,39.51-102.2-.75-19.77,18.4-23.17,7.49-41.57-10.89-18.39-41.55-3.41-57.91-44.28-16.35-40.88,25.89-65.41,59.96-61.42,9.92,1.15,33.99-5.78,63.88-14.87,167.68,69.76,289.55,233.39,298.05,423.82,4.71,105.66-27.29,198.03-82.9,271.72Z"/>
        </g>
        <g>
          <path class="cls-13" d="m943.7,845.13s28.21-15.71,43.2-3.21c15,12.5,21.42,20.71,43.56,16.07s37.13,4.28,22.85,10.71c-14.28,6.43-47.84,17.85-63.19,4.28-15.35-13.57-59.59-22.37-46.41-27.85Z"/>
          <path class="cls-13" d="m1057.24,895.83s19.99,3.57,24.64-4.64c4.64-8.21-4.64-.36-12.32-4.64-7.68-4.28-22.31,0-12.32,9.28Z"/>
        </g>
      </g>
      <g>
        <circle class="cls-1" cx="1385.45" cy="693.21" r="58.86"/>
        <rect class="cls-1" x="1351.36" y="283.73" width="68.19" height="416.04" rx="34.09" ry="34.09"/>
        <path class="cls-21" d="m1396.1,392.93v277.89c0,5.86-4.79,10.65-10.65,10.65s-10.66-4.79-10.66-10.65v-273.59l21.32-4.3Z"/>
        <circle class="cls-21" cx="1385.45" cy="693.21" r="36.87" transform="translate(-84.38 1182.7) rotate(-45)"/>
      </g>
      <g>
        <path class="cls-14" d="m1504.55,428.31c-.33,0-.67-.01-1.01-.03l-3.78-.22c-8.63-.51-15.43-7.41-15.81-16.05l-6.95-158.68c-.36-8.07,5.09-15.26,12.95-17.11l30.43-7.14c5.41-1.27,10.9.13,15.06,3.84,4.14,3.71,6.15,9,5.49,14.51l-19.7,166.04c-1.01,8.5-8.24,14.84-16.68,14.84Zm19.75-198.64c-1.22,0-2.45.14-3.68.43l-30.43,7.14c-7.38,1.73-12.49,8.48-12.16,16.05l6.95,158.68c.36,8.1,6.73,14.57,14.83,15.06l3.78.22c.32.02.64.02.96.02,7.92.01,14.7-5.94,15.64-13.9l19.7-166.04c.62-5.18-1.26-10.15-5.15-13.63-2.95-2.64-6.62-4.02-10.44-4.02Z"/>
        <path class="cls-14" d="m1500.51,480.63c-.33,0-.67-.01-1-.03h0l-1.81-.12c-4.57-.26-8.74-2.33-11.74-5.81-2.99-3.47-4.42-7.89-4.02-12.45.78-8.79,8.02-15.34,16.7-15.34.35,0,.7.01,1.04.03l1.82.1c4.49.27,8.6,2.26,11.58,5.62,2.98,3.35,4.48,7.67,4.21,12.16-.52,8.92-7.95,15.83-16.78,15.83Zm-.94-1.07c.32.02.63.02.94.02,8.28,0,15.25-6.47,15.75-14.85.25-4.2-1.15-8.26-3.95-11.4-2.8-3.16-6.66-5.02-10.86-5.28l-1.82-.1c-8.66-.52-15.89,5.79-16.65,14.36-.38,4.29.96,8.43,3.77,11.68,2.81,3.26,6.73,5.2,11.02,5.45l1.81.12Z"/>
      </g>
      <g>
        <path class="cls-21" d="m1504.12,429.32h-3.86c-8.52,0-15.66-6.44-16.53-14.91l-16.65-161.13c-.82-7.95,4.13-15.36,11.79-17.64l30.55-9.11c11.05-3.29,22.02,5.39,21.34,16.91l-10.04,170.23c-.52,8.78-7.79,15.64-16.59,15.64Z"/>
        <path class="cls-21" d="m1503.16,482.82h-1.86c-9.37,0-16.89-7.74-16.62-17.1h0c.26-8.99,7.62-16.14,16.62-16.14h1.86c9.18,0,16.62,7.44,16.62,16.62h0c0,9.18-7.44,16.62-16.62,16.62Z"/>
      </g>
      <g>
        <g>
          <path class="cls-14" d="m1277.71,512.18c-.29,0-.59,0-.89-.02l-3.28-.2c-7.48-.44-13.37-6.43-13.7-13.92l-6.03-137.56c-.31-7,4.42-13.25,11.24-14.84l26.38-6.2c4.71-1.09,9.46.12,13.05,3.33,3.59,3.21,5.33,7.8,4.76,12.59l-17.08,143.95c-.88,7.36-7.14,12.86-14.46,12.86Zm17.11-172.22c-1.05,0-2.12.12-3.18.37l-26.38,6.2c-6.4,1.5-10.83,7.35-10.55,13.92l6.03,137.56c.31,7.04,5.83,12.65,12.86,13.06l3.28.2c.28.01.55.02.82.02,6.87,0,12.75-5.16,13.56-12.07l17.08-143.95c.54-4.48-1.09-8.79-4.46-11.81-2.56-2.28-5.74-3.49-9.06-3.49Z"/>
          <path class="cls-14" d="m1274.21,557.55c-.29,0-.59,0-.88-.02l-1.58-.09c-3.97-.23-7.58-2.03-10.18-5.03-2.6-3.02-3.84-6.85-3.48-10.8.67-7.61,6.96-13.3,14.5-13.3.29,0,.59,0,.89.02l1.58.1c8.02.47,14.16,7.4,13.69,15.41-.23,3.89-1.96,7.45-4.87,10.04-2.7,2.38-6.09,3.67-9.66,3.67Zm-1.62-28.36c-7.07,0-12.96,5.33-13.6,12.48-.33,3.72.83,7.33,3.27,10.15,2.44,2.82,5.83,4.5,9.56,4.72l1.58.09c.28.01.55.02.82.02,3.35,0,6.54-1.21,9.07-3.46,2.74-2.42,4.36-5.77,4.57-9.41.44-7.53-5.32-14.02-12.85-14.47l-1.58-.1c-.28-.01-.56-.02-.84-.02Z"/>
        </g>
        <g>
          <path class="cls-1" d="m1277.33,513.06h-3.35c-7.39,0-13.58-5.58-14.34-12.93l-14.44-139.7c-.71-6.89,3.58-13.31,10.22-15.29l26.49-7.9c9.58-2.86,19.09,4.68,18.5,14.66l-8.71,147.6c-.45,7.62-6.76,13.56-14.39,13.56Z"/>
          <path class="cls-1" d="m1276.5,559.45h-1.61c-8.12,0-14.64-6.71-14.41-14.83h0c.22-7.79,6.61-14,14.41-14h1.61c7.96,0,14.41,6.45,14.41,14.41h0c0,7.96-6.45,14.41-14.41,14.41Z"/>
        </g>
      </g>
      <path class="cls-13" d="m1173.16,890.74s8.75,9.76,3.9,31.92c-4.85,22.15-4.85,52.62,15.23,53.31,20.08.69-6.1-79.91,11.01-83.57,17.11-3.67,15.99-29.97,15.99-29.97l-46.14,28.32Z"/>
      <path class="cls-13" d="m1309.58,846.23s20.5,16.2,18.94,52.03c-1.56,35.83-15.06,138.14-2.08,140.21,12.98,2.06,20.77-.01,19.73-31.69s-4.87-123.4,5.48-116.87,22.67,3.67,24.69-2.56c2.02-6.23-33.38-34.27-33.38-34.27l-24.83-13.76-8.55,6.91Z"/>
      <path class="cls-13" d="m1347.29,895.21s2.34-9.07,5.71-2.58c1.97,3.79-4.24,28.34,3.94,27.43,4.95-.55,1.17-27.26,6.48-24.87,2.83,1.27-2.37-8.97-2.37-8.97,0,0-8.91-3.81-9.26-3.63-.35.17-4.5,2.68-4.5,2.68v9.93Z"/>
      <path class="cls-13" d="m1321.56,862.43s-6.81-13.76-16.15-10.9c-9.35,2.86-2.08,54.26,0,70.1,2.08,15.84-21.29,18.17-21.03,5.45.26-12.72,9.31-67.99,2.6-75.94-6.72-7.95-18.67-4.77-25,5.5-6.33,10.27-5.37-33.15-5.37-33.15l52.98-3.63,22.83,10.13-10.85,32.45Z"/>
      <path class="cls-13" d="m985.55,645.22s-16.19,21.27-12.03,51.73c4.15,30.46,12.46,87.93-10.39,92.77-22.85,4.85-5.54-81-6.23-100.39-.69-19.39-39.25-22.94-52.94-3.85-13.69,19.09-12.66-24.01-12.66-24.01l53.48-32.71,40.77,16.46Z"/>
      <path class="cls-13" d="m892.29,725.78s-5.77,33.84,0,59.8c5.77,25.96-7.11,35.31-18.84,24.4-11.74-10.9,7.32-49.19-3.86-50.26-11.19-1.07-4.41,20.66-9.95,26.55-5.54,5.88-19.38,2.95-13.5-14.54s4.86-33.28-6.47-40.05c-12.89-7.7,23.78-30.57,23.78-30.57l28.85,24.67Z"/>
      <path class="cls-13" d="m1128.89,1039.03s-14.83,24.93-7.21,49.82c7.62,24.89-1.38,40.12-18,33.89-16.62-6.23,3.35-33.58,0-47.25-3.35-13.67-13.45-8.36-20.56-2.97-7.11,5.39,6.73-34.06,6.73-34.06l39.04.57Z"/>
      <path class="cls-13" d="m1051.28,1146.56s-11.18,15.52-8.35,31.57c3.63,20.6,2.6,32.97-13.15,27.87-12.35-4,8.14-47-6.58-40.29-14.72,6.71,4.15-26,4.15-26l23.93,6.85Z"/>
      <path class="cls-13" d="m1097.38,805.64s10.97,13.3,7.61,33.68c-4.15,25.14-18.17,63.09.65,71.92,18.81,8.83,7.02-64.31,11.54-74.14,4.52-9.83,13.06,1.95,16.21,12.58,3.14,10.63,13.39-26.19,13.39-26.19l-26.46-20.77-22.94,2.92Z"/>
      <path class="cls-13" d="m1012.2,572.25s12.03,12.37,8.4,27.95c-3.63,15.58-13.69,49.85.68,52.96,14.37,3.12,9.98-31.67,9.42-52.44s9.31-22.99,9.31-22.99l-27.81-5.48Z"/>
      <path class="cls-25" d="m1183.36,842.69h-.26c-2.86-.06-5.23-1.14-7.03-3.19-6.65-7.56-4.58-26.95-2.59-45.7.99-9.3,1.92-18.07,1.6-24.27-.2-3.65-1.13-6.84-2.79-9.48-.31-.48-.16-1.13.33-1.43.49-.32,1.12-.16,1.43.32,1.85,2.94,2.89,6.46,3.1,10.47.34,6.37-.6,15.23-1.6,24.6-1.86,17.45-3.97,37.23,2.08,44.11,1.42,1.62,3.23,2.43,5.52,2.49h.21c2,0,3.61-.66,4.88-2.02,5.57-5.93,4-24.07,2.63-40.09-1.19-13.71-2.3-26.66.68-32.61,1.12-2.26,2.43-4.31,3.88-6.09.37-.45,1.02-.52,1.46-.15.44.36.51,1.01.15,1.46-1.35,1.67-2.58,3.58-3.64,5.7-2.72,5.44-1.62,18.11-.47,31.52,1.49,17.24,3.02,35.06-3.18,41.68-1.66,1.77-3.82,2.67-6.39,2.67Z"/>
      <path class="cls-25" d="m803.22,676.78h-.26c-2.86-.07-5.23-1.14-7.04-3.19-6.65-7.58-4.58-26.97-2.58-45.73.99-9.27,1.92-18.04,1.6-24.24-.22-4.11-1.38-7.63-3.44-10.44-.34-.46-.24-1.11.22-1.45.45-.32,1.11-.24,1.45.23,2.3,3.13,3.6,7.02,3.84,11.54.34,6.36-.6,15.21-1.61,24.57-1.86,17.46-3.97,37.25,2.08,44.14,1.43,1.62,3.23,2.43,5.52,2.49h.21c2,0,3.61-.66,4.88-2.02,5.57-5.93,4-24.09,2.62-40.09-1.18-13.72-2.3-26.67.68-32.62,1.37-2.74,2.99-5.15,4.8-7.14.39-.43,1.04-.45,1.47-.08.43.39.46,1.05.07,1.46-1.69,1.87-3.2,4.11-4.49,6.68-2.71,5.44-1.62,18.11-.46,31.52,1.49,17.24,3.02,35.08-3.18,41.69-1.66,1.77-3.82,2.67-6.39,2.67Z"/>
      <path class="cls-25" d="m1486.81,810.66h-.26c-2.86-.07-5.23-1.14-7.03-3.19-6.65-7.57-4.58-26.97-2.59-45.71.99-9.3,1.92-18.06,1.6-24.26-.13-2.47-.6-4.72-1.39-6.72-.21-.53.05-1.13.58-1.35.54-.2,1.13.05,1.35.59.88,2.2,1.39,4.68,1.53,7.36.34,6.37-.6,15.22-1.6,24.59-1.86,17.45-3.97,37.23,2.08,44.12,1.42,1.62,3.23,2.43,5.52,2.49h.21c2,0,3.61-.66,4.88-2.02,5.57-5.93,4.01-24.09,2.63-40.09-1.18-13.71-2.3-26.66.68-32.61.69-1.39,1.45-2.7,2.24-3.86.32-.47.97-.6,1.44-.29.47.32.6.97.28,1.44-.74,1.11-1.45,2.33-2.1,3.63-2.71,5.44-1.62,18.1-.47,31.5,1.49,17.24,3.03,35.08-3.18,41.69-1.66,1.77-3.82,2.67-6.39,2.67Z"/>
      <path class="cls-25" d="m1267.79,734.27c-2.46,0-4.5-.74-6.09-2.21-6.08-5.61-4.01-20.54-2.64-30.42.14-1.04.28-2.02.39-2.91.38-2.94-.38-5.85-2.26-8.67-.32-.47-.19-1.12.29-1.44.47-.31,1.12-.2,1.44.29,2.17,3.25,3.04,6.65,2.6,10.1-.12.9-.25,1.88-.4,2.93-1.23,8.87-3.29,23.74,1.99,28.61,1.76,1.6,4.23,2.04,7.55,1.31,7.2-1.61,5.55-13.21,3.95-24.43-1.16-8.12-2.26-15.8.24-19.52.32-.48.96-.59,1.44-.29.48.32.6.97.29,1.44-2.05,3.06-.96,10.7.09,18.09,1.65,11.59,3.52,24.72-5.55,26.75-1.17.27-2.28.39-3.31.39Z"/>
      <path class="cls-25" d="m1026.5,1131.39c-2.31,0-4.23-.69-5.71-2.06-5.82-5.37-3.81-19.91-2.48-29.52.14-1.03.28-1.99.39-2.89.39-2.93-.35-5.83-2.18-8.64-.19-.3-.1-.68.18-.86.29-.17.68-.12.86.17,2,3.08,2.8,6.27,2.38,9.49-.12.9-.25,1.87-.4,2.9-1.3,9.36-3.25,23.51,2.09,28.43,1.83,1.69,4.38,2.17,7.76,1.38,7.43-1.66,5.78-13.24,4.18-24.43-1.13-7.91-2.19-15.38.17-18.9.2-.3.58-.35.86-.17.29.2.36.58.17.86-2.1,3.13-1.07,10.37.03,18.04,1.6,11.21,3.41,23.91-5.14,25.83-1.13.25-2.19.38-3.17.38Z"/>
      <path class="cls-25" d="m850.97,694.16c-2.45,0-4.49-.74-6.08-2.2-6.09-5.61-4.01-20.55-2.64-30.43.14-1.04.28-2.02.39-2.91.32-2.5-.18-4.99-1.5-7.41-.28-.5-.09-1.13.41-1.41.51-.29,1.13-.08,1.41.41,1.54,2.8,2.12,5.73,1.74,8.67-.12.9-.25,1.88-.4,2.91-1.23,8.89-3.29,23.75,1.99,28.62,1.77,1.62,4.23,2.03,7.55,1.31,7.2-1.6,5.54-13.2,3.95-24.42-1.16-8.13-2.26-15.8.24-19.52.32-.48.98-.6,1.44-.29.48.32.6.97.29,1.44-2.05,3.06-.96,10.7.09,18.09,1.65,11.58,3.52,24.71-5.55,26.74-1.17.26-2.29.39-3.32.39Z"/>
      <path class="cls-25" d="m748.79,742.34c-2.46,0-4.5-.74-6.09-2.21-6.08-5.61-4.01-20.54-2.64-30.42.14-1.04.28-2.02.39-2.91.32-2.5-.18-4.99-1.5-7.42-.28-.51-.09-1.13.41-1.41.5-.3,1.13-.09,1.41.41,1.53,2.82,2.12,5.74,1.74,8.69-.12.9-.25,1.88-.4,2.93-1.23,8.87-3.29,23.74,1.99,28.61,1.77,1.61,4.24,2.04,7.55,1.31,7.2-1.61,5.54-13.21,3.95-24.42-1.16-8.13-2.26-15.82.24-19.54.32-.47.97-.6,1.44-.29.48.32.6.97.29,1.44-2.05,3.06-.96,10.7.09,18.09,1.65,11.59,3.52,24.72-5.55,26.75-1.18.26-2.28.39-3.31.39Z"/>
      <path class="cls-25" d="m1520.98,958.61c-.16,0-.32,0-.48-.01-2.23-.16-4.04-1.07-5.36-2.68-4.09-5.03-2.6-16.21-1.39-25.19.22-1.66.43-3.24.6-4.7.3-2.65-.08-5.07-1.13-7.19-.25-.52-.04-1.14.47-1.39.53-.23,1.13-.05,1.39.47,1.23,2.48,1.67,5.29,1.32,8.34-.17,1.47-.38,3.08-.6,4.75-1.15,8.58-2.57,19.27.95,23.6.96,1.17,2.23,1.81,3.89,1.92,1.05.13,1.84-.2,2.51-.84,3.05-2.95,2.67-12.57,2.33-21.06-.24-6.14-.47-11.93.6-15.06.19-.54.77-.85,1.32-.65.54.18.83.77.65,1.31-.95,2.76-.73,8.37-.5,14.31.37,9.36.75,19.04-2.96,22.64-.98.96-2.2,1.43-3.62,1.43Z"/>
      <path class="cls-25" d="m932.04,1026.5c-.24,0-.47-.01-.71-.02-3.42-.25-6.16-1.62-8.16-4.09-6.47-7.96-4.04-26.04-2.1-40.58.36-2.72.71-5.31.98-7.69.58-5.11-.32-9.7-2.7-13.65-.24-.4-.11-.92.29-1.16.4-.23.92-.12,1.17.29,2.56,4.27,3.55,9.23,2.93,14.71-.28,2.41-.62,5.01-.99,7.74-1.9,14.2-4.27,31.9,1.73,39.28,1.72,2.11,4,3.25,6.97,3.46,1.92.21,3.48-.38,4.75-1.61,5.26-5.08,4.63-21.02,4.07-35.1-.4-9.95-.77-19.36.93-24.33.52-1.5,1.13-2.91,1.84-4.19.22-.43.73-.58,1.15-.35.41.23.56.75.33,1.15-.66,1.21-1.24,2.53-1.72,3.94-1.61,4.65-1.24,13.92-.85,23.72.6,15.12,1.22,30.77-4.59,36.38-1.45,1.41-3.24,2.12-5.34,2.12Z"/>
      <path class="cls-13" d="m1241.18,1086.8s-24.54,70.93,0,75.13c27.37,4.68,16.43-40.77,0-75.13Z"/>
      <path class="cls-13" d="m1232.78,942.14s-16.62,48.04,0,50.88c18.54,3.17,11.13-27.61,0-50.88Z"/>
      <path class="cls-13" d="m1162.1,566.22s-24.54,70.93,0,75.13c27.37,4.68,16.43-40.77,0-75.13Z"/>
      <path class="cls-3" d="m1289.27,631.86s-13.99,40.43,0,42.82c15.6,2.67,9.36-23.24,0-42.82Z"/>
      <path class="cls-3" d="m1141.95,732.49s-18.68,53.99,0,57.19c20.83,3.56,12.5-31.03,0-57.19Z"/>
      <path class="cls-13" d="m1191.68,1178.28s-24.54,70.93,0,75.13c27.37,4.68,16.43-40.77,0-75.13Z"/>
      <g>
        <path class="cls-24" d="m711.11,979.18c-4.5-.56-8.84-2.09-12.88-4.57-13.08-8.04-21.85-25.01-28.44-55.05-3.04-13.83-11.9-30.5-11.99-30.67l35.76-2.64c.45.84,4.85,7.7,8.89,26.14,2.29,10.43,6.31-12.52,8.32-20.68,1.13-4.58,20.62-13.51,24.79,12.69,11.88,74.78-20.39,75.28-24.45,74.78Z"/>
        <path class="cls-27" d="m715.56,975.92c-3.65,0-6.51-1.41-6.51-3.2,0-1.83,2.79-3.23,6.5-3.24v.44-.44h.05c3.63,0,6.46,1.41,6.47,3.2,0,1.8-2.86,3.23-6.5,3.24Zm.03-5.56h-.05c-3.32.01-5.63,1.26-5.63,2.36s2.32,2.33,5.64,2.33c3.32-.01,5.63-1.26,5.63-2.36s-2.3-2.33-5.6-2.33Z"/>
        <path class="cls-27" d="m699.09,946.17c-.22,0-.4-.16-.43-.38-.02-.18-2.26-18.58,4.57-32.99.1-.23.36-.35.58-.21.22.1.31.36.21.58-6.72,14.19-4.51,32.32-4.49,32.51.03.24-.14.46-.37.48-.02.01-.04.01-.06.01Z"/>
        <path class="cls-11" d="m620.1,848.76s1.84-6.72-6.05-8.99c-7.89-2.28-2.48,15.82-22.09,13.87-19.61-1.95-13,6.32-19.31,12.33-6.31,6.01-33.96-7.81-43.88,15.93-9.92,23.74,7.51,41.18,41.78,42.38,34.26,1.2,20.74,20.12,49.74,9.61,29.01-10.51,16.17-56.72,8.01-63.97-8.16-7.25-8.2-21.15-8.2-21.15Z"/>
        <path class="cls-14" d="m646.95,1289.81s.26,10.55,7.4,13.53c7.14,2.98,27.83,5.66,20.1,12.45-4.44,3.89-25.34,1.38-31.24,1.38-5.9,0-11.44,2.57-15.83-1.38-4.82-4.35,0-25.97,0-25.97,0,0,5.09,2.65,9.67,2.53,6.6-.17,9.9-2.53,9.9-2.53Z"/>
        <path class="cls-14" d="m564.96,1289.81s.26,10.55,7.4,13.53c7.14,2.98,27.83,5.66,20.1,12.45-4.44,3.89-25.34,1.38-31.24,1.38-5.9,0-11.44,2.57-15.83-1.38-4.82-4.35,0-25.97,0-25.97,0,0,5.09,2.65,9.67,2.53,6.6-.17,9.9-2.53,9.9-2.53Z"/>
        <path class="cls-21" d="m700.01,1000.56s-.51,48.63-4.42,134.43c-3.07,67.27-2.44,129.61-8.33,159.16-2.11,10.57-80.11,5.18-79.27-6.45l18.46-207.82,3.53-65.8,70.04-13.52Z"/>
        <path class="cls-14" d="m571.06,1039.43c.65,5.38,31.05,4.72,68.26.01,37.22-4.71,66.18-12.77,65.53-18.15-.65-5.38-30.67-6.03-67.89-1.32-37.22,4.71-66.56,14.08-65.91,19.45Z"/>
        <path class="cls-21" d="m657.29,1032.1l-69.27,261.99c-3.33,10.68-69.04,9.25-66.98-2.09l53.75-247.79c.63-2.85,2.73-5.12,5.48-5.91,14.9-4.3,78.48-16.75,77.02-6.19Z"/>
        <path class="cls-18" d="m585.33,887.9s7.07-23.77,44.72-22.41c20.66.74,42.4-5.08,52.08,27.31,9.37,31.35,19.54,80.48,22.72,128.49,0,0-61.67-13.52-133.9,18.02,0,0-2.16-108.06,14.38-151.41Z"/>
        <path class="cls-18" d="m558.5,884.41l23.61,19.39s89.02,22.67,102.02,9.5c8.92-9.04,13.68-21.94,10.65-28.62,0,0-24.43-22.39-63.06-20.58-5.6.26-9.35.42-14.86.11-31.54-1.77-58.36,20.2-58.36,20.2Z"/>
        <path class="cls-6" d="m617.73,1184.33l-1.3-.3,21.15-90.15c3.96-12.05,12.08-22.06,22.87-28.25l.67,1.15c-10.51,6.02-18.41,15.77-22.25,27.45l-21.13,90.09Z"/>
        <path class="cls-24" d="m614.98,864.31c4.14-.44,7.73-3.04,9.38-6.86l5.16-11.97,1.5-3.48,8.8-20.44-1.53,21.18-.92,12.71-.26,3.62c-.21,2.96,1.85,5.57,4.77,6.1h.05c1.57,2.56,3.73,7.73-2.73,9.79-7.59,2.42-19.87-3.56-24.28-10.64.02,0,.04,0,.07,0Z"/>
        <path class="cls-14" d="m630.6,844.61c.5,6.83,6.73,10.88,6.73,10.88l.04-.04.92-12.71c-2.23-.82-7.7,1.75-7.69,1.87Z"/>
        <ellipse class="cls-24" cx="638.23" cy="823.76" rx="19.9" ry="24.55" transform="translate(-237.92 259.6) rotate(-19.45)"/>
        <path class="cls-10" d="m640.12,823.35c.11-.08.19-.21.2-.35.01-.25-.18-.46-.43-.47-.15,0-3.54-.47-5.09,3.18-.1.23,0,.5.23.6.23.1.45-.03.6-.23,1.49-2.01,4.1-2.65,4.23-2.65.1,0,.2-.03.28-.08Z"/>
        <path class="cls-10" d="m638.4,829.23c.33,1.03,1.2,1.67,1.94,1.43.75-.24,1.09-1.26.76-2.29-.33-1.03-1.2-1.67-1.94-1.43-.75.24-1.09,1.26-.76,2.29Z"/>
        <path class="cls-10" d="m656.14,820.19c.13-.03.25-.12.32-.25.1-.23,0-.5-.22-.6-.13-.06-3.1-1.78-5.92,1-.18.18-.19.46-.02.64.17.18.43.15.64.02,2.15-1.29,4.8-.89,4.92-.84.09.04.19.05.28.03Z"/>
        <path class="cls-10" d="m652.31,824.97c-.09,1.08.47,2,1.25,2.07.78.07,1.49-.75,1.58-1.83.09-1.08-.47-2-1.25-2.07-.78-.06-1.49.75-1.58,1.83Z"/>
        <path class="cls-21" d="m600.99,1033.6s74.27-14.19,98.36-7.5l-11.55,17.11-42.93,2.43-43.88-12.05Z"/>
        <path class="cls-11" d="m625.46,811.65c2.15,3.95,12.22,3.74,19.19,1.68,8.7-2.57,11.88,8.52,13.54,3.38,1.65-5.14,1.05-19.69-8.89-25.18-9.94-5.49-32.9.69-34.34,8.53-2.12,11.55,8.66,8.21,10.5,11.59Z"/>
        <path class="cls-11" d="m616.14,804.59s6.17-.59,6.82,2.03c.64,2.63,6.33,6.01,3.14,8.94-3.2,2.93-3.75,4.21-2.74,7.01.7,1.95-1.2,7.48-1.04,11.84.07,1.9,2.37,5.16,2.37,5.16,0,0-16.04.22-19.26-17.04-2.09-11.23,6.61-18.11,10.71-17.94Z"/>
        <path class="cls-24" d="m621.05,833.76c2.84,1.28,5.89.44,6.8-1.88.91-2.32-.65-5.23-3.49-6.51s-5.89-.44-6.8,1.88c-.91,2.32.65,5.23,3.49,6.51Z"/>
        <path class="cls-10" d="m598.51,909.73c-1.82,2.88-12.25-.46-23.3-7.45-11.05-6.99-18.53-15-16.7-17.87,1.82-2.88,12.25.46,23.3,7.45,11.05,6.99,18.53,15,16.7,17.87Z"/>
        <g>
          <path class="cls-24" d="m571.05,999.94s12.47-11.42,22.32-10.41c9.85,1.01,21.66,9.74,15.42,10.41-6.24.67-14.44-.67-14.44-.67,0,0,17.39,3.69,14.77,7.39-2.63,3.69-17.72.34-17.72.34,0,0,20.35,6.04,16.74,8.73-3.61,2.69-19.03-2.02-19.03-2.02,0,0,18.71,6.38,14.44,9.4-4.27,3.02-15.42-5.37-18.05-1.68-2.63,3.69-7.55,18.13-18.71,12.09l4.27-33.58Z"/>
          <path class="cls-27" d="m587.03,999.64c-.12,0-.22-.06-.3-.16-.12-.16-.07-.39.09-.51,2.67-1.87,7.45-.12,7.65-.05.19.07.29.29.21.47-.06.18-.28.26-.47.22-.05-.01-4.64-1.72-6.97-.05-.06.05-.14.07-.21.07Z"/>
          <path class="cls-27" d="m582.66,1007.36c-.14,0-.28-.08-.33-.22-.08-.18,0-.4.18-.48,4.19-1.85,8.82-.08,9.01-.01.19.08.28.29.21.48-.07.18-.31.24-.47.21-.05-.02-4.54-1.74-8.45-.01-.05.02-.1.03-.15.03Z"/>
          <path class="cls-27" d="m589.1,1014.07s-.09-.01-.13-.02c-.06-.01-5.5-2.03-7.84-.07-.16.13-.39.12-.52-.05-.13-.15-.11-.38.05-.51,2.66-2.26,8.33-.16,8.56-.07.19.07.29.29.21.47-.05.15-.19.24-.34.24Z"/>
        </g>
        <g>
          <path class="cls-24" d="m730.34,904.27s18.33,1.56,25.5-5.59c7.17-7.15,10.93-21.7,5.54-18.22-5.39,3.49-11.04,9.85-11.04,9.85,0,0,11.44-14.15,6.97-15.39-4.47-1.24-14.3,11.16-14.3,11.16,0,0,12.27-17.92,7.67-17.73-4.6.19-13.82,13.87-13.82,13.87,0,0,10.75-17.13,5.41-16.78-5.34.35-8.79,14.22-13.26,12.97s-19,4.08-19,16.61l20.33,9.24Z"/>
          <path class="cls-27" d="m744.53,895.39c-.2,0-.36-.15-.37-.35-.01-.21.14-.38.35-.39,2.93-.2,5.49-4.49,5.51-4.53.1-.2.34-.25.51-.14.18.1.24.33.13.51-.12.2-2.79,4.68-6.11,4.9h-.02Z"/>
          <path class="cls-27" d="m736.08,892.07c-.17,0-.32-.1-.36-.28-.05-.2.06-.4.27-.45,4.24-1.14,6.69-5.41,6.71-5.46.1-.18.33-.24.51-.14.18.1.24.32.14.51-.11.18-2.63,4.58-7.17,5.81-.03.01-.06.01-.1.01Z"/>
          <path class="cls-27" d="m730.41,887.89s-.05,0-.07-.01c-.21,0-.37-.17-.37-.38,0-.2.17-.36.37-.36h.06c3.11,0,6.11-5.06,6.13-5.1.1-.2.31-.25.51-.14.18.1.24.33.13.51-.13.23-3.24,5.48-6.78,5.48Z"/>
        </g>
        <path class="cls-24" d="m566.78,1033.52c-17-6.51-50.14-34.25-50.14-62.87,0-19.17,7-36.23,20.2-58.22,10.38-17.3,25.21-25.38,25.74-25.87,0,0,5.12-1.2,16.29,5.56,13.47,8.15,15.51,15.74,15.51,15.74-12.91,11.9-33.51,36.04-37.93,54.43-.94,3.93,3.94,31.44,16.33,36.18l-6,35.05Z"/>
        <path class="cls-1" d="m647.98,838.89c0,1.2-.74,2.18-1.66,2.18s-1.66-.98-1.66-2.18.74-2.18,1.66-2.18,1.66.98,1.66,2.18Z"/>
      </g>
      <g>
        <path class="cls-19" d="m1115.47,1346.61s-24.93-23.82-16.35-37.39c8.58-13.57,23.05,29.15,23.05,29.15,0,0-7.5-50.51,8.04-51.39,15.55-.88,0,51.39,0,51.39,0,0,5.76-12.19,11.39-12.94,5.63-.75,4.02,10.33-6.03,21.19h-20.1Z"/>
        <path class="cls-4" d="m1117.3,1347.24c-1.17-1.12-28.68-27.7-18.68-43.52,1.6-2.51,3.52-3.65,5.64-3.4,7.32.88,15.34,18.86,19.45,29.42-1.36-13.06-2.95-39.05,4.54-48.24,1.73-2.13,3.86-3.27,6.34-3.42,2.38-.05,4.35.73,5.81,2.56,6.68,8.44.41,36.77-3.02,50,2.59-3.96,6.29-8.43,10.07-8.94,1.84-.26,3.25.44,4.03,1.92,2.07,4-1.15,13.9-10.11,23.58l-1.29-1.2c8.79-9.49,11.35-18.63,9.83-21.58-.41-.81-1.16-1.14-2.22-.98-4.85.65-10.48,10.45-12.24,14.18l-1.65-.63c.13-.45,13.28-45.06,5.22-55.27-1.09-1.37-2.55-2.05-4.32-1.88-1.99.1-3.65,1.01-5.07,2.76-9.47,11.62-3.29,54.08-3.23,54.51l-1.71.41c-3.24-9.57-13.27-34.59-20.63-35.47-1.53-.2-2.73.69-3.93,2.59-9.24,14.61,18.13,41.04,18.41,41.31l-1.22,1.27Z"/>
      </g>
      <g>
        <path class="cls-19" d="m1325.64,1380.44s-24.93-23.82-16.35-37.39c8.58-13.57,23.05,29.15,23.05,29.15,0,0-7.51-50.51,8.04-51.39,15.55-.88,0,51.39,0,51.39,0,0,5.76-12.19,11.39-12.94,5.63-.75,4.02,10.33-6.03,21.19h-20.1Z"/>
        <path class="cls-4" d="m1327.46,1381.07c-1.17-1.12-28.68-27.7-18.68-43.52,1.59-2.51,3.38-3.65,5.64-3.4,7.31.88,15.34,18.86,19.44,29.42-1.36-13.07-2.95-39.05,4.54-48.25,1.73-2.12,3.86-3.26,6.34-3.41,2.36-.06,4.35.73,5.81,2.56,6.68,8.44.41,36.77-3.02,50,2.59-3.96,6.29-8.43,10.07-8.94,1.77-.25,3.25.43,4.03,1.92,2.07,3.99-1.15,13.9-10.11,23.58l-1.3-1.2c8.8-9.49,11.36-18.63,9.84-21.58-.42-.81-1.17-1.14-2.23-.98-4.85.65-10.48,10.45-12.24,14.18l-1.65-.63c.13-.45,13.28-45.06,5.22-55.27-1.01-1.27-2.3-1.89-3.94-1.89-.13,0-.25,0-.38.01-1.99.1-3.65,1.01-5.07,2.75-9.47,11.62-3.29,54.09-3.23,54.52l-1.71.41c-3.24-9.57-13.26-34.58-20.63-35.47-1.42-.14-2.73.68-3.93,2.59-9.24,14.61,18.13,41.04,18.41,41.31l-1.22,1.27Z"/>
      </g>
      <g>
        <path class="cls-19" d="m395.41,1312.78s-24.93-23.82-16.35-37.39c8.58-13.57,23.05,29.15,23.05,29.15,0,0-7.5-50.51,8.04-51.39,15.55-.88,0,51.39,0,51.39,0,0,5.76-12.19,11.39-12.94,5.63-.75,4.02,10.33-6.03,21.19h-20.1Z"/>
        <path class="cls-4" d="m397.24,1313.42c-1.17-1.12-28.68-27.7-18.68-43.52,1.6-2.51,3.51-3.69,5.64-3.4,7.32.88,15.34,18.86,19.45,29.42-1.36-13.06-2.95-39.05,4.54-48.25,1.73-2.12,3.86-3.26,6.34-3.41.17,0,.33-.01.49-.01,2.18,0,3.97.86,5.32,2.57,6.68,8.44.41,36.76-3.02,50,2.59-3.96,6.29-8.43,10.07-8.94,1.79-.26,3.25.43,4.03,1.91,2.07,4-1.13,13.9-10.1,23.59l-1.3-1.2c8.79-9.5,11.36-18.64,9.83-21.58-.42-.81-1.15-1.15-2.22-.98-4.85.65-10.48,10.45-12.24,14.18l-1.65-.63c.13-.45,13.28-45.07,5.22-55.27-1.01-1.27-2.3-1.89-3.93-1.89-.13,0-.26,0-.39.01-1.99.1-3.65,1.01-5.07,2.75-9.47,11.62-3.29,54.09-3.23,54.52l-1.71.41c-3.24-9.57-13.27-34.59-20.63-35.47-1.51-.16-2.73.68-3.93,2.59-9.24,14.61,18.13,41.04,18.41,41.31l-1.22,1.27Z"/>
      </g>
      <g>
        <path class="cls-19" d="m705.4,1380.44s-24.93-23.82-16.35-37.39c8.58-13.57,23.05,29.15,23.05,29.15,0,0-7.5-50.51,8.04-51.39,15.55-.88,0,51.39,0,51.39,0,0,5.76-12.19,11.39-12.94,5.63-.75,4.02,10.33-6.03,21.19h-20.1Z"/>
        <path class="cls-4" d="m707.22,1381.07c-1.17-1.12-28.68-27.7-18.68-43.52,1.6-2.52,3.52-3.63,5.64-3.4,7.31.88,15.34,18.86,19.44,29.42-1.36-13.06-2.95-39.05,4.54-48.24,1.73-2.13,3.86-3.27,6.34-3.42,2.4-.06,4.35.73,5.81,2.56,6.68,8.44.41,36.77-3.02,50,2.59-3.96,6.29-8.43,10.07-8.94,1.81-.25,3.25.43,4.03,1.92,2.07,3.99-1.14,13.9-10.11,23.58l-1.3-1.2c8.79-9.49,11.36-18.63,9.84-21.58-.42-.79-1.15-1.14-2.23-.98-4.84.65-10.48,10.45-12.23,14.18l-1.65-.63c.13-.45,13.28-45.07,5.21-55.27-1.08-1.36-2.6-2.05-4.31-1.88-1.99.1-3.65,1.01-5.07,2.75-9.47,11.63-3.29,54.09-3.23,54.52l-1.71.41c-3.24-9.57-13.26-34.58-20.62-35.47-1.42-.14-2.73.68-3.93,2.59-9.24,14.61,18.13,41.04,18.41,41.31l-1.22,1.27Z"/>
      </g>
      <g>
        <path class="cls-19" d="m1725.36,1337.72s-24.93-23.82-16.35-37.39c8.58-13.57,23.05,29.15,23.05,29.15,0,0-7.5-50.51,8.04-51.39,15.55-.88,0,51.39,0,51.39,0,0,5.76-12.19,11.39-12.94,5.63-.75,4.02,10.33-6.03,21.19h-20.1Z"/>
        <path class="cls-4" d="m1727.18,1338.36c-1.17-1.12-28.68-27.7-18.68-43.52,1.59-2.51,3.45-3.62,5.64-3.4,7.32.86,15.34,18.85,19.44,29.42-1.36-13.07-2.95-39.05,4.54-48.24,1.73-2.13,3.86-3.27,6.34-3.42,2.4-.05,4.35.73,5.81,2.56,6.68,8.43.41,36.76-3.02,50,2.59-3.96,6.29-8.44,10.06-8.95,1.88-.27,3.26.44,4.03,1.92,2.07,4-1.14,13.92-10.11,23.59l-1.3-1.2c8.79-9.49,11.36-18.64,9.84-21.59-.41-.81-1.13-1.14-2.23-.98-4.84.66-10.47,10.46-12.23,14.19l-1.65-.63c.13-.45,13.28-45.09,5.21-55.27-1.08-1.38-2.6-2.04-4.31-1.88-1.99.1-3.65,1.01-5.07,2.75-9.47,11.63-3.29,54.09-3.23,54.52l-1.71.41c-3.24-9.57-13.26-34.59-20.62-35.47-1.47-.12-2.72.69-3.93,2.59-9.24,14.61,18.13,41.04,18.41,41.31l-1.22,1.27Z"/>
      </g>
      <g>
        <path class="cls-14" d="m1500.97,1312.78s-.25,9.97-7,12.78c-6.75,2.81-26.3,5.35-18.99,11.76,4.19,3.68,23.95,1.3,29.52,1.3,5.58,0,10.81,2.43,14.96-1.3,4.56-4.11,0-24.55,0-24.55,0,0-4.81,2.51-9.14,2.39-6.24-.16-9.35-2.39-9.35-2.39Z"/>
        <path class="cls-11" d="m1480.77,1007.67s-6.6,44.54-2.42,131.95c3.01,63.11,7.83,126.91,10.28,157.51.87,10.95,8.95,19.83,19.56,21.51l5.7.9c11.47,1.82,21.99-6.98,22.54-18.85l9.34-204,4.27-67-69.26-22.02Z"/>
        <path class="cls-14" d="m1600.27,1312.78s-.25,9.97-7,12.78c-6.75,2.81-26.3,5.35-18.99,11.76,4.19,3.68,23.95,1.3,29.52,1.3,5.58,0,10.81,2.43,14.96-1.3,4.56-4.11,0-24.55,0-24.55,0,0-4.81,2.51-9.14,2.39-6.24-.16-9.35-2.39-9.35-2.39Z"/>
        <path class="cls-11" d="m1518.12,999.11s4.26,7.02,18.62,93.35c10.37,62.32,40.94,175.85,46.94,205.96,2.15,10.77,11.21,18.64,21.94,19.08l5.77.23c11.61.47,21.03-9.5,20.18-21.36l-14.57-203.69-3.59-67.04-95.29-26.52Z"/>
        <g>
          <path class="cls-24" d="m1477.99,919.11c2.05-16.33,10.55-36.56,10.63-36.77l-25.87,18.99c-.43,1.02-21.54,4.58-24.27,26.35,0,0-10.54-37.73-11.07-54.06l-24.78-9.14c-1.69,10.02-23.8,106.16,20.14,118.61,35.28,10,50.78-28.52,55.23-63.99Z"/>
          <path class="cls-21" d="m1435.79,918.37s5.07-29.91,40.5-43.71c.02,0,.03-.01.05-.02,6.32-3.19,12.28-6.73,19.09-8.18,146.41-31.28,121.8,171.1,121.8,171.1-59.79,8.26-146.5,9.59-141.28,0,0-53.67,2.53-73.98-11.55-88.9-3.55-3.76-15.86-6.23-21.9-12.99-3.8-4.25-6.7-17.3-6.7-17.3Z"/>
          <path class="cls-24" d="m1447.8,838.16l12.45,20.16,6.76,10.94.71,1.16,2.37,3.83c1.6,2.6.43,4.17.03,7.64-.16,1.41-1.38,10.1,5.79,8.81,8.93-1.61,18.69-14.91,19.51-24.23-.04.02-9.86,2-13.53-.95l-11.35-9.11-3.31-2.65-19.43-15.59Z"/>
          <path class="cls-14" d="m1466.88,867.84l.13,1.42.71,1.16,2.37,3.83c4.71-5.65,4.04-14.33,4.04-14.33l-7.25,7.93Z"/>
          <g>
            <path class="cls-16" d="m1424.76,853.53s3.05,5.11,9.25,9.11c6.2,4-1.29-13.7-1.29-13.7l-7.96,4.58Z"/>
            <ellipse class="cls-24" cx="1451.56" cy="851.73" rx="21.15" ry="25.5" transform="translate(-216.89 1072.48) rotate(-37.94)"/>
            <path class="cls-14" d="m1463.41,833.22l-7.94,6.55c-1.75,1.44-4.05,2.06-6.27,1.59-3.81-.81-9.91.06-13.59,10.04-4.92,13.32-18.54,6.38-23.97,2.87-5.54-3.58-4.31-11.06,2.15-13.23,6.46-2.17-.75-5.61,2.78-10.33,6.59-8.83,14.02-4.38,20.1-10.93,7.97-8.6,29.04-17.3,36.75,4.27l-10,9.18Z"/>
            <path class="cls-10" d="m1450.02,851.77c-.13.03-.27,0-.37-.09-.18-.15-.21-.42-.06-.6.09-.11,1.92-2.78,5.47-1.55.22.08.35.32.27.54-.07.23-.3.3-.54.27-2.36-.23-4.47,1.19-4.55,1.28-.06.07-.14.12-.23.14Z"/>
            <path class="cls-10" d="m1437.97,862.17c-.08.06-.2.07-.31.01-.2-.09-.33-.32-.3-.53.02-.12.26-2.98,3.42-2.77.2.01.39.19.43.41.04.22-.1.34-.29.38-1.86.39-2.83,2.2-2.85,2.29-.01.08-.06.15-.11.19Z"/>
            <path class="cls-16" d="m1473.41,824.03s5.91,15.74-.33,23.67c0,0-2.59-13.94-19.63-6.74,0,0,9.25-12.91,19.97-16.93Z"/>
            <path class="cls-24" d="m1469.49,840.01c-.53,2.49-2.77,4.11-4.99,3.64-2.22-.48-3.59-2.88-3.06-5.36.53-2.49,2.77-4.11,4.99-3.64,2.22.48,3.59,2.88,3.06,5.36Z"/>
            <path class="cls-14" d="m1429.42,821.22c-.38,0-.79-.03-1.24-.12-.23-.05-.39-.25-.35-.48.04-.23.27-.36.48-.35,3.98.69,4.8-2.48,4.84-2.6.05-.23.27-.39.51-.31.22.05.36.28.31.5-.01.05-.83,3.36-4.56,3.36Z"/>
            <path class="cls-1" d="m1418.82,852.07c-1.87,0-3.62-.43-4.96-1.54-1.51-1.28-2.22-2.45-2.14-3.59.12-1.82,2.21-3.13,4.04-4.3.27-.17.54-.33.78-.5l.16.23c-.25.17-.52.33-.79.51-1.78,1.13-3.8,2.4-3.91,4.08-.07,1.05.59,2.14,2.03,3.34,5.11,4.29,16.84-2.21,16.96-2.27l.14.25c-.36.21-6.87,3.79-12.33,3.79Z"/>
            <path class="cls-1" d="m1425.07,827.46c-.25,0-.4,0-.41-.01l.02-.28h.39c1.85,0,9.87-.54,16.58-9.5l.23.18c-6.79,9.05-14.92,9.61-16.82,9.61Z"/>
            <path class="cls-10" d="m1456.33,855.84c.25.57-.09,1.28-.77,1.58s-1.43.08-1.69-.49c-.25-.57.09-1.28.77-1.58.68-.3,1.43-.08,1.69.49Z"/>
            <path class="cls-10" d="m1446.58,862.93c.25.57-.09,1.28-.77,1.58s-1.43.08-1.69-.49c-.25-.57.09-1.28.77-1.58.68-.3,1.43-.08,1.69.49Z"/>
            <path class="cls-1" d="m1456.34,869.65c.61.92,1.85,1.16,2.76.55.92-.61,1.16-1.85.55-2.76-.61-.92-1.85-1.16-2.76-.55-.92.61-1.16,1.85-.55,2.76Z"/>
          </g>
          <path class="cls-24" d="m1409.49,842.7c3.47-6.09,5.85-7.33,5.85-7.33,0,0,12.49-10.09,13.58-6.15,1.09,3.94-9.85,12.61-9.85,12.61,0,0,15.82-10.82,15.65-6.76-.17,4.06-12.25,12.19-12.25,12.19,0,0,15.12-9.48,14.81-4.77-.31,4.71-9.92,9-8.83,12.94.09.34,8.71-8.17,8.25-1.54-.18,2.64-3.42,8.98-3.42,8.98.06.86-1.03,2.4-1.58,3.19-2.47,3.54-3.68,5.85-5.11,10.92l-23.97-12.5s2.45-14.02,6.87-21.79Z"/>
          <path class="cls-27" d="m1414.09,848.3s-.06-.01-.09-.01c-.17-.05-.28-.23-.23-.4,1.08-4.02,4.96-6.24,5.13-6.34.16-.07.35-.03.45.13.09.16.03.36-.13.45-.04.02-3.81,2.18-4.82,5.92-.04.15-.17.25-.32.25Z"/>
          <path class="cls-27" d="m1417.8,853.36s-.06-.01-.09-.01c-.17-.06-.28-.24-.22-.41,1.34-4.64,4.73-5.91,4.88-5.97.17-.06.36.03.42.2.06.17-.03.37-.2.43-.03.01-3.22,1.22-4.46,5.53-.04.14-.17.24-.32.24Z"/>
          <path class="cls-27" d="m1428.24,882.52c-.15,0-.29-.1-.32-.26-.08-.35-1.9-8.64,1.04-12.83,3.15-4.52,8.55-14.46,7.23-16.61-.39-.63-.82-.99-1.3-1.07-1.09-.15-2.42.9-3.99,2.15l-.09.07c-2.41,1.95-5.49,4.46-5.49,4.46l-.41-.51s3.08-2.51,5.49-4.46l.09-.08c1.54-1.23,2.9-2.32,4.15-2.32.12,0,.24.01.36.02.67.13,1.24.58,1.75,1.38,1.72,2.79-4.81,13.83-7.25,17.32-2.77,3.96-.95,12.24-.93,12.33.04.17-.07.35-.25.39-.03,0-.05.01-.07.01Z"/>
          <path class="cls-24" d="m1402.62,864.49s-.68-8.81-.68-14.34-3.2-10.32,0-11.99c3.2-1.67,7.46,6.98,7.33,11.05-.13,4.07-6.65,15.29-6.65,15.29Z"/>
          <path class="cls-27" d="m1442.38,955.95h-.04c-.28-.02-.48-.26-.46-.54,0-.15,1.07-14.33-3.32-24.59-.11-.25.01-.55.27-.66.24-.14.55-.01.66.27,4.48,10.49,3.4,24.92,3.39,25.05-.02.26-.24.47-.5.47Z"/>
          <g>
            <g>
              <path class="cls-24" d="m1597.52,1012.08s-18.19-5.17-27.53.77c-9.34,5.94-16.78,20.59-10.21,18.14,6.57-2.45,14.1-7.91,14.1-7.91,0,0-15.54,12.41-11.07,14.79,4.48,2.38,17.89-8.54,17.89-8.54,0,0-17.32,16.24-12.37,17.12,4.96.88,18.03-11.55,18.03-11.55,0,0-15.51,15.75-9.73,16.64,5.78.89,12.73-13.1,17.21-10.72,4.48,2.38,23.06,10.31,31.19-1.32l-27.52-27.4Z"/>
              <path class="cls-27" d="m1574.18,1023.36l-.6-.55c.16-.17,3.61-3.84,7-3.84.23,0,.45.01.68.05l-.13.81c-.18-.02-.37-.05-.55-.05-3.04,0-6.37,3.55-6.4,3.58Z"/>
              <path class="cls-27" d="m1581.01,1029.6l-.61-.55c.16-.17,3.88-4.26,9.03-4.5l.03.81c-4.8.23-8.41,4.2-8.45,4.25Z"/>
              <path class="cls-27" d="m1586.66,1035.16l-.6-.55c.2-.21,4.79-5.13,8.6-4.22l-.2.78c-.26-.06-.53-.09-.8-.09-3.19,0-6.97,4.03-7.01,4.08Z"/>
            </g>
            <path class="cls-24" d="m1607.98,1032.79l-8.36-10.78c-3.43-2.34-4.06-6.39-2.11-9.92,9.91-17.97,16.43-47.42,11.37-60.57-7.04-18.25-27.81-31.49-43.43-38.8-8-3.74-12.16-9.57-10.24-21.26.8-4.86,2.13-8.71,8.65-17.68,3.15-4.33,7.01-7.46,11.22-5.86,6.59,2.5,11.61,4.79,22.52,11.15,25.9,15.11,44.16,34.82,52.78,57.01,10.59,27.23,3.11,69.95-25.35,103.4-2.82,3.32-13.35-4.18-17.05-6.7Z"/>
            <g class="cls-9">
              <path class="cls-23" d="m1633.45,942.99c-3.58,0-7.29-3.41-8.9-8.49-1.1-3.44-.96-6.99.36-9.48.82-1.54,2.03-2.58,3.5-3.02,3.99-1.12,8.58,2.45,10.43,8.27h0c1.09,3.44.96,7-.37,9.5-.82,1.53-2.03,2.57-3.5,3.01-.5.14-1.01.21-1.53.21Zm-3.52-19.19c-.32,0-.64.05-.94.14-1.19.35-1.91,1.29-2.29,2.02-1.08,2.03-1.16,5-.22,7.95,1.46,4.6,5.15,7.86,7.95,6.95,1.19-.35,1.9-1.29,2.29-2.02,1.08-2.04,1.17-5.01.23-7.96h0c-1.31-4.1-4.35-7.07-7.01-7.07Z"/>
            </g>
          </g>
          <path class="cls-27" d="m1428.19,976.73c-1.47,0-3.25-.4-5.02-1.18-3.95-1.73-6.3-4.5-5.44-6.45.83-1.89,4.52-2.1,8.43-.39h0c2.68,1.16,4.75,2.91,5.4,4.57.27.67.28,1.32.04,1.88-.24.54-.71.97-1.39,1.23-.56.23-1.25.33-2.02.33Zm-7.04-8.18c-1.31,0-2.23.36-2.5.97-.51,1.17,1.38,3.56,4.92,5.11,2.41,1.06,4.87,1.36,6.26.83.42-.17.7-.4.83-.7.14-.31.12-.68-.05-1.11-.55-1.39-2.45-2.97-4.86-4.02h0c-1.73-.75-3.35-1.08-4.6-1.08Z"/>
          <path class="cls-21" d="m1495.42,866.46s55.58-14.47,97.66,6.55c0,0,3.39,34.57-25.13,49.52l-46.75-28.59-25.78-27.48Z"/>
        </g>
        <path class="cls-6" d="m1543.49,1131.12c-.07-.39-7.46-38.66-9.34-49.83-1.83-10.84-11.21-16.73-11.3-16.78l.74-1.2c.41.25,10.02,6.28,11.96,17.75,1.87,11.15,9.26,49.41,9.33,49.79l-1.38.28Z"/>
      </g>
      <g>
        <g>
          <g>
            <path class="cls-20" d="m792.09,940.17s-29.51,87.17,54.1,133.34c83.6,46.16,2.32,53.54-29.57,97.8-31.9,44.26-29.57,145.16-29.57,145.16h263.44s2.85-119.93-20.1-147.8c-22.95-27.87-68.85-57.38-60.66-73.77,8.2-16.39,48.94-17.44,70.49-52.46,26.23-42.62,10.38-95.08,10.38-95.08l-258.5-7.18Z"/>
            <path class="cls-11" d="m1051.91,950.62h-272.59c-5.01,0-9.06-4.06-9.06-9.06v-11.2c0-5.08,4.17-9.16,9.24-9.06l272.59,5.38c4.94.1,8.89,4.13,8.89,9.06v5.82c0,5.01-4.06,9.06-9.06,9.06Z"/>
            <path class="cls-11" d="m1051.91,1324.04h-272.59c-5.01,0-9.06-4.06-9.06-9.06v-11.2c0-5.08,4.17-9.16,9.24-9.06l272.59,5.38c4.94.1,8.89,4.13,8.89,9.06v5.82c0,5.01-4.06,9.06-9.06,9.06Z"/>
            <path class="cls-21" d="m841.85,1040.79s13.11,22.95,33.88,31.15c20.77,8.2,42.76,24.18,43.17,42.21.21,9.43,2.27,71.72-7.79,108.2-3.39,12.29-57.79,56.15-47.95,61.89,9.84,5.74,113.94,17.21,118.85,0s-47.95-30.33-52.46-67.62c-2.77-22.92-3.69-88.3.82-108.61,2.64-11.9,32.67-36.89,51.99-41.8,19.32-4.92,27.52-26.23,23.42-31.97-4.1-5.74-32.35,4.1-84.62,4.1s-90.8-22.95-79.32,2.46Z"/>
          </g>
          <g class="cls-8">
            <path class="cls-1" d="m818.18,1016.53s-11.35-24.41-10.21-36.77c1.13-12.36,11.35-23.2,17.02-15.51,5.67,7.69,9.65,72.47-6.81,52.28Z"/>
          </g>
          <g class="cls-8">
            <path class="cls-1" d="m816.63,1196.76s16.83-21.37,34.27-34.41c17.43-13.04,26.01-30.82,35.92-27.83,9.91,2.99-25.17,44.58-31.21,55.94-6.03,11.36-20.75,38.5-32.02,38.55-11.27.06-18.31-13.93-6.96-32.25Z"/>
          </g>
        </g>
        <path class="cls-18" d="m787,1296.43c-.86,0-1.56-.69-1.56-1.56-1-113.03,43.88-142.5,73.57-162.02,3.08-2.03,5.98-3.93,8.65-5.82,9.28-6.57,13.97-13.1,13.93-19.43-.04-7.4-6.68-12.06-6.75-12.11-.71-.5-.89-1.46-.4-2.18.5-.7,1.46-.89,2.17-.4.33.23,8.05,5.67,8.1,14.68.04,7.41-5.09,14.8-15.25,22-2.69,1.9-5.63,3.82-8.74,5.87-29.13,19.13-73.14,48.05-72.16,159.38,0,.86-.69,1.57-1.55,1.58h-.01Z"/>
        <path class="cls-18" d="m985.75,1082.29c-.66,0-1.28-.44-1.49-1.09-.25-.83.2-1.7,1.03-1.96.41-.14,41.64-13.4,58.52-46.74.39-.76,1.34-1.07,2.1-.69.77.39,1.08,1.32.69,2.1-17.49,34.55-59.95,48.18-60.37,48.31-.16.06-.31.08-.47.08Z"/>
        <path class="cls-18" d="m828.41,1063.41c-.31,0-.61-.09-.88-.28-47.54-32.52-41.45-99.8-41.39-100.47.09-.85.93-1.35,1.71-1.41.86.09,1.48.85,1.4,1.7-.07.66-5.96,66.13,40.04,97.59.71.48.89,1.46.41,2.17-.31.45-.79.69-1.29.69Z"/>
      </g>
      <path class="cls-12" d="m1025.1,472.46c-.21,0-.43-.05-.64-.15-17.53-8.92-28.77-30.2-27.99-52.97.71-20.76,11.21-37.43,28.08-44.58,15.81-6.72,24.82-15.37,27.54-26.46,3.93-16-5.25-37.3-28.08-65.12-11.47-13.97-16.39-28.71-14.61-43.78,3.28-27.89,27.99-46.93,29.05-47.72.61-.47,1.49-.35,1.96.26.47.62.35,1.5-.27,1.97-.25.18-24.82,19.14-27.95,45.83-1.68,14.28,3.03,28.3,14,41.66,23.42,28.54,32.79,50.64,28.63,67.56-2.95,12.01-12.49,21.29-29.17,28.37-15.83,6.73-25.69,22.46-26.37,42.09-.75,21.7,9.88,41.94,26.46,50.36.69.36.96,1.2.61,1.89-.25.5-.74.77-1.25.77Z"/>
      <path class="cls-12" d="m1088.84,472.46c-.21,0-.43-.05-.64-.15-17.53-8.92-28.77-30.2-27.99-52.98.71-20.75,11.21-37.41,28.08-44.57,15.81-6.72,24.82-15.37,27.54-26.46,3.93-16-5.25-37.3-28.08-65.12-11.47-13.97-16.39-28.71-14.61-43.78,3.28-27.89,27.99-46.93,29.05-47.72.61-.47,1.49-.35,1.96.26.47.62.35,1.5-.27,1.97-.25.18-24.82,19.14-27.95,45.83-1.68,14.28,3.03,28.3,14,41.66,23.42,28.54,32.79,50.64,28.63,67.56-2.95,12.01-12.49,21.29-29.17,28.37-15.83,6.73-25.69,22.45-26.37,42.09-.75,21.69,9.88,41.94,26.46,50.36.69.36.96,1.2.61,1.89-.25.5-.74.77-1.25.77Z"/>
      <path class="cls-12" d="m1138.63,472.46c-.21,0-.43-.05-.64-.15-17.53-8.92-28.77-30.2-27.99-52.98.71-20.75,11.21-37.41,28.08-44.57,15.81-6.72,24.82-15.38,27.54-26.46,3.93-16-5.25-37.3-28.08-65.12-11.47-13.97-16.38-28.71-14.61-43.78,3.28-27.89,27.99-46.93,29.05-47.72.6-.47,1.49-.35,1.96.26.47.62.35,1.5-.26,1.97-.25.18-24.82,19.14-27.96,45.83-1.68,14.28,3.03,28.3,14,41.66,23.42,28.53,32.8,50.64,28.64,67.56-2.95,12-12.49,21.29-29.18,28.37-15.83,6.73-25.69,22.45-26.37,42.09-.75,21.69,9.88,41.94,26.46,50.36.69.36.96,1.2.61,1.89-.25.5-.74.77-1.25.77Z"/>
      <g class="cls-8">
        <path class="cls-1" d="m931.39,279.92s-15.78-30.35-55.71-26.55c-39.93,3.8-35.18,34.23-54.19,31.37-19.01-2.85-45.63,0-51.34,19.01-5.7,19.01-31.37,8.56-32.32,24.72-.95,16.16,29.47,27.57,64.65,13.31,35.18-14.26,52.29,11.08,101.73,6.49,49.44-4.59,55.56-10.29,84.82-7.44,29.26,2.85,28.57-17.18,15.26-30.49-13.31-13.31-67.19-12.04-72.89-30.42Z"/>
      </g>
      <g class="cls-8">
        <path class="cls-1" d="m1710.03,376.19s-11.1-21.34-39.17-18.67c-28.08,2.67-24.74,24.07-38.11,22.06-13.37-2.01-32.09,0-36.1,13.37-4.01,13.37-22.06,6.02-22.73,17.38s20.72,19.39,45.46,9.36c24.74-10.03,36.77,7.79,71.53,4.56,34.76-3.23,39.07-7.24,59.65-5.23,20.58,2.01,20.09-12.08,10.73-21.44-9.36-9.36-47.25-8.47-51.26-21.39Z"/>
      </g>
      <g class="cls-8">
        <path class="cls-1" d="m785.02,387.54s-6.33-12.18-22.36-10.65c-16.02,1.53-14.12,13.73-21.75,12.59s-18.31,0-20.6,7.63c-2.29,7.63-12.59,3.43-12.97,9.92s11.83,11.06,25.94,5.34c14.12-5.72,20.98,4.45,40.82,2.6,19.84-1.84,22.3-4.13,34.04-2.99,11.74,1.14,11.46-6.9,6.12-12.24-5.34-5.34-26.96-4.83-29.25-12.21Z"/>
      </g>
      <g class="cls-7">
        <path class="cls-1" d="m1327.65,222.25s-19.92-34.5-56.36-28.83c-36.44,5.67-.81,21.22-48.59,28.83-47.78,7.61-58.3,23.8-36.44,36.76,21.86,12.96,57.49-23.48,96.36-5.67,38.87,17.81,90.85,2.6,45.02-31.09Z"/>
      </g>
    </g>
  </g>
</svg>