<svg xmlns="http://www.w3.org/2000/svg" version="1.0" width="100.000000pt" height="100.000000pt" viewBox="0 0 100.000000 100.000000" preserveAspectRatio="xMidYMid meet">

<g transform="translate(0.000000,100.000000) scale(0.100000,-0.100000)" fill="#0d6efd" stroke="none">
<path d="M394 985 c-254 -55 -427 -309 -385 -562 37 -217 204 -381 421 -414 322 -50 611 239 561 561 -32 209 -185 372 -390 416 -80 17 -127 17 -207 -1z m52 -246 c20 -7 53 -7 114 2 71 10 99 10 161 -2 62 -12 74 -17 77 -35 3 -18 12 -22 54 -27 28 -4 53 -9 56 -12 14 -14 -32 -119 -69 -156 l-39 -39 0 -91 0 -91 -57 7 c-32 4 -92 6 -133 4 -41 -1 -100 -1 -130 0 -116 7 -226 6 -263 -3 l-37 -8 2 218 3 218 40 12 c50 16 185 17 221 3z m44 -460 c14 0 63 3 110 6 88 7 159 -7 168 -33 3 -9 -2 -10 -25 -1 -42 17 -171 14 -216 -4 -34 -15 -40 -15 -75 0 -40 17 -150 23 -194 10 -16 -4 -28 -3 -28 2 0 20 58 30 145 25 50 -3 101 -5 115 -5z" fill="#0d6efd"/>
<path d="M243 709 c-27 -8 -33 -15 -33 -38 0 -17 5 -28 13 -27 6 0 12 -3 12 -9 0 -5 -6 -9 -12 -9 -7 1 -13 -6 -13 -16 0 -10 6 -17 13 -16 6 0 12 -3 12 -9 0 -5 -6 -9 -12 -9 -7 1 -13 -6 -13 -16 0 -10 6 -17 13 -16 6 0 12 -3 12 -9 0 -5 -6 -9 -12 -9 -7 1 -13 -7 -13 -17 0 -12 5 -16 14 -13 8 3 17 0 21 -6 4 -7 -2 -14 -14 -17 -12 -3 -21 -11 -21 -19 0 -7 6 -11 14 -8 8 3 17 0 21 -6 4 -7 -2 -14 -14 -17 -17 -4 -21 -13 -21 -47 l0 -41 130 0 130 0 0 182 c0 123 -4 184 -11 189 -19 11 -182 14 -216 3z m192 -51 c32 -15 35 -44 3 -32 -13 4 -56 9 -96 9 -75 2 -97 9 -72 25 21 14 134 12 165 -2z m-6 -49 c17 -6 31 -18 31 -26 0 -12 -5 -13 -22 -7 -13 4 -56 9 -96 9 -39 1 -75 5 -79 9 -24 24 106 36 166 15z m0 -50 c17 -6 31 -18 31 -26 0 -12 -6 -13 -22 -8 -13 5 -56 9 -96 10 -40 1 -76 5 -79 9 -24 24 106 36 166 15z m0 -50 c40 -14 44 -45 4 -33 -16 5 -59 9 -97 9 -43 0 -71 5 -73 12 -2 6 4 13 14 16 35 9 120 7 152 -4z m0 -52 c14 -6 26 -18 29 -26 4 -11 -1 -12 -24 -5 -16 5 -60 9 -98 9 -43 0 -71 5 -73 12 -2 6 4 13 14 16 37 10 129 6 152 -6z" fill="#0d6efd"/>
<path d="M580 714 c-77 -14 -70 8 -70 -203 l0 -188 53 9 c48 8 163 3 194 -9 10 -4 13 11 13 67 l0 72 -27 -2 c-16 -1 -39 -2 -52 -1 -37 2 -6 31 33 31 17 0 42 6 55 13 28 14 87 84 78 93 -10 10 -149 -62 -194 -101 -27 -23 -47 -51 -54 -76 -7 -21 -16 -39 -21 -39 -20 0 -18 33 6 84 14 30 26 60 26 67 0 7 11 31 25 55 18 31 39 49 75 66 79 37 65 52 -60 62 -30 2 -66 2 -80 0z" fill="#0d6efd"/>
<path d="M757 636 c-46 -17 -74 -41 -94 -80 l-15 -29 33 22 c19 12 63 36 98 52 52 24 66 27 78 17 13 -10 15 -9 12 7 -5 25 -58 30 -112 11z" fill="#0d6efd"/>
</g>
</svg>