<svg xmlns="http://www.w3.org/2000/svg" version="1.0" width="100.000000pt" height="100.000000pt" viewBox="0 0 100.000000 100.000000" preserveAspectRatio="xMidYMid meet">

<g transform="translate(0.000000,100.000000) scale(0.100000,-0.100000)" fill="#0d6efd" stroke="none">
<path d="M394 985 c-254 -55 -427 -309 -385 -562 37 -217 204 -381 421 -414 322 -50 611 239 561 561 -32 209 -185 372 -390 416 -80 17 -127 17 -207 -1z m165 -141 c61 -65 91 -135 91 -212 0 -37 -6 -75 -15 -93 -18 -34 -69 -69 -102 -69 -22 0 -23 -4 -23 -70 0 -40 4 -70 10 -70 6 0 10 19 10 42 0 35 6 47 39 78 52 50 121 68 196 51 29 -7 60 -17 69 -24 15 -11 16 -16 1 -56 -23 -66 -61 -110 -119 -137 -65 -30 -94 -30 -140 1 -55 37 -70 26 -63 -50 5 -66 -3 -93 -23 -80 -9 5 -11 28 -8 76 5 61 3 69 -14 75 -13 4 -28 -2 -43 -16 -25 -24 -82 -29 -126 -12 -60 24 -119 93 -140 164 -6 24 -4 31 17 44 13 9 53 19 89 21 56 5 72 2 120 -21 60 -30 85 -64 85 -116 0 -16 5 -30 10 -30 6 0 10 28 10 63 l0 63 -42 14 c-58 21 -81 57 -86 133 -5 84 24 159 86 226 27 28 53 51 59 51 6 0 29 -20 52 -46z" fill="#0d6efd"/>
<path d="M462 806 c-90 -97 -95 -265 -10 -295 17 -6 33 -11 34 -11 2 0 4 54 4 120 0 73 4 120 10 120 6 0 10 -47 10 -120 0 -66 4 -120 9 -120 29 0 74 26 86 51 21 40 18 125 -5 178 -21 46 -76 121 -90 121 -4 0 -26 -20 -48 -44z" fill="#0d6efd"/>
<path d="M222 473 c-13 -3 -26 -11 -28 -18 -9 -21 33 -92 71 -121 44 -33 124 -45 144 -21 11 14 0 22 -85 65 -53 27 -93 52 -88 55 6 3 50 -12 99 -34 102 -45 105 -45 105 -21 0 67 -111 115 -218 95z" fill="#0d6efd"/>
<path d="M657 468 c-49 -13 -97 -59 -97 -92 l0 -25 83 36 c154 67 174 57 30 -15 l-97 -49 28 -18 c23 -15 32 -16 67 -6 49 15 108 65 125 108 20 47 19 49 -30 62 -51 13 -57 13 -109 -1z" fill="#0d6efd"/>
</g>
</svg>