<svg xmlns="http://www.w3.org/2000/svg" version="1.0" width="100.000000pt" height="100.000000pt" viewBox="0 0 100.000000 100.000000" preserveAspectRatio="xMidYMid meet">

<g transform="translate(0.000000,100.000000) scale(0.100000,-0.100000)" fill="#0d6efd" stroke="none">
<path d="M394 985 c-254 -55 -427 -309 -385 -562 37 -217 204 -381 421 -414 322 -50 611 239 561 561 -32 209 -185 372 -390 416 -80 17 -127 17 -207 -1z m173 -190 l97 -64 35 59 c20 33 41 60 48 60 21 0 15 -21 -21 -81 l-33 -56 79 -47 c73 -44 99 -69 85 -82 -3 -3 -15 -1 -26 6 -21 11 -21 10 -21 -160 0 -158 -1 -171 -17 -168 -16 3 -18 20 -21 166 l-2 163 -77 -3 -77 -3 -67 -113 c-36 -62 -70 -117 -76 -123 -12 -12 -153 114 -153 137 0 27 25 14 81 -42 64 -63 53 -68 127 59 l52 87 -165 0 -165 0 0 -185 0 -185 238 -2 c203 -3 237 -5 237 -18 0 -13 -35 -15 -255 -15 l-255 0 -3 203 -2 202 -40 0 c-43 0 -62 17 -37 34 9 6 58 34 108 61 52 28 120 77 158 112 36 34 67 62 69 63 1 0 46 -29 99 -65z" fill="#0d6efd"/>
<path d="M421 768 c-29 -27 -88 -69 -129 -93 l-77 -45 195 0 195 0 19 35 c22 41 26 36 -74 102 l-75 50 -54 -49z" fill="#0d6efd"/>
<path d="M660 661 c-16 -30 -14 -31 48 -31 l57 0 -40 25 c-49 30 -52 30 -65 6z" fill="#0d6efd"/>
</g>
</svg>