<svg xmlns="http://www.w3.org/2000/svg" version="1.0" width="100.000000pt" height="100.000000pt" viewBox="0 0 100.000000 100.000000" preserveAspectRatio="xMidYMid meet">

<g transform="translate(0.000000,100.000000) scale(0.100000,-0.100000)" fill="#0d6efd" stroke="none">
<path d="M394 985 c-254 -55 -427 -309 -385 -562 37 -217 204 -381 421 -414 322 -50 611 239 561 561 -32 209 -185 372 -390 416 -80 17 -127 17 -207 -1z m340 -227 c9 -12 16 -34 16 -48 0 -14 -7 -36 -16 -48 -13 -19 -24 -22 -92 -22 l-77 0 149 -149 c96 -96 146 -153 141 -161 -5 -8 -60 40 -165 145 -106 105 -160 153 -165 145 -5 -8 -21 -10 -45 -7 -37 5 -40 2 -181 -139 -128 -128 -169 -161 -169 -137 0 4 66 74 147 155 l148 148 -78 0 c-88 0 -117 17 -117 70 0 17 9 39 20 50 19 19 33 20 244 20 221 0 225 0 240 -22z m-244 -181 c19 0 44 2 54 4 29 6 30 -16 1 -29 -51 -24 -125 -9 -125 24 0 12 5 14 18 8 9 -4 33 -8 52 -7z m173 -104 c13 -13 -36 -52 -85 -69 -32 -10 -71 -15 -107 -12 -62 4 -151 42 -151 64 0 19 6 18 58 -7 81 -40 182 -35 242 11 28 21 33 23 43 13z m102 -102 c9 -15 -65 -69 -125 -93 -73 -29 -212 -31 -287 -5 -64 23 -139 75 -126 88 7 7 28 -1 59 -20 67 -41 164 -65 235 -57 70 7 154 38 194 71 33 27 41 29 50 16z" fill="#0d6efd"/>
<path d="M272 738 c-7 -7 -12 -19 -12 -28 0 -31 23 -40 97 -40 64 0 75 3 97 25 14 14 30 25 36 25 6 0 22 -11 36 -25 22 -22 33 -25 104 -25 70 0 79 2 85 20 3 11 3 29 0 40 -6 19 -15 20 -219 20 -151 0 -215 -3 -224 -12z" fill="#0d6efd"/>
<path d="M470 660 c0 -13 7 -20 20 -20 13 0 20 7 20 20 0 13 -7 20 -20 20 -13 0 -20 -7 -20 -20z" fill="#0d6efd"/>
</g>
</svg>