<svg xmlns="http://www.w3.org/2000/svg" version="1.0" width="100.000000pt" height="100.000000pt" viewBox="0 0 100.000000 100.000000" preserveAspectRatio="xMidYMid meet">

<g transform="translate(0.000000,100.000000) scale(0.100000,-0.100000)" fill="#0d6efd" stroke="none">
<path d="M394 985 c-254 -55 -427 -309 -385 -562 37 -217 204 -381 421 -414 322 -50 611 239 561 561 -32 209 -185 372 -390 416 -80 17 -127 17 -207 -1z m255 -174 c42 -22 69 -56 77 -101 4 -16 15 -32 25 -35 26 -8 56 -54 63 -95 14 -76 -58 -150 -145 -150 -36 0 -49 -4 -49 -14 0 -10 14 -16 43 -18 40 -3 42 -5 45 -36 2 -18 12 -42 23 -53 27 -27 21 -69 -12 -88 -24 -13 -29 -13 -53 2 -32 21 -34 59 -6 87 11 11 20 29 20 39 0 16 -8 20 -42 23 -43 3 -43 3 -43 43 l0 40 60 5 c33 3 71 11 83 19 30 16 52 68 45 104 -5 26 -54 77 -74 77 -5 0 -9 14 -9 30 0 21 -11 42 -34 68 -31 34 -39 37 -86 37 -47 0 -55 -3 -86 -37 -31 -34 -39 -38 -83 -38 -43 0 -53 -4 -75 -31 -14 -17 -26 -39 -26 -50 0 -12 -10 -23 -27 -30 -63 -24 -82 -74 -44 -120 16 -20 31 -25 93 -29 l73 -5 3 -63 c3 -65 -7 -92 -35 -92 -8 0 -26 -9 -40 -20 -32 -25 -48 -25 -73 0 -23 23 -26 49 -7 72 23 30 53 30 86 2 17 -14 31 -24 32 -22 0 1 1 24 2 51 l2 47 -58 0 c-54 0 -62 3 -93 34 -24 24 -34 43 -34 65 0 44 24 86 57 100 18 7 34 26 44 50 20 46 65 74 121 74 28 0 41 6 52 22 19 28 73 54 114 55 18 0 50 -9 71 -19z m-64 -162 c47 -15 82 -45 68 -60 -9 -9 -20 -7 -47 10 -19 12 -57 24 -85 28 -42 5 -59 1 -106 -21 -81 -40 -101 -11 -21 31 58 31 118 34 191 12z m-21 -63 c39 -16 53 -33 38 -48 -7 -7 -18 -5 -33 6 -13 9 -43 16 -69 16 -26 0 -56 -7 -69 -16 -24 -17 -50 -6 -36 16 22 36 113 50 169 26z m-6 -69 c21 -17 -5 -39 -29 -24 -14 9 -26 9 -48 0 -24 -9 -33 -8 -42 3 -9 11 -5 17 22 28 34 15 73 12 97 -7z m-40 -142 c2 -59 8 -84 22 -103 24 -30 25 -50 3 -74 -20 -22 -66 -24 -83 -3 -20 24 -15 67 9 83 19 13 21 24 21 99 0 63 3 84 13 81 8 -3 13 -31 15 -83z" fill="#0d6efd"/>
<path d="M275 330 c-9 -15 14 -40 31 -33 22 8 18 43 -5 43 -11 0 -23 -5 -26 -10z" fill="#0d6efd"/>
<path d="M674 275 c-4 -9 -2 -21 4 -27 15 -15 44 -1 40 19 -4 23 -36 29 -44 8z" fill="#0d6efd"/>
<path d="M484 245 c-4 -9 -2 -21 4 -27 15 -15 44 -1 40 19 -4 23 -36 29 -44 8z" fill="#0d6efd"/>
</g>
</svg>