<svg xmlns="http://www.w3.org/2000/svg" version="1.0" width="100.000000pt" height="100.000000pt" viewBox="0 0 100.000000 100.000000" preserveAspectRatio="xMidYMid meet">

<g transform="translate(0.000000,100.000000) scale(0.100000,-0.100000)" fill="#0d6efd" stroke="none">
<path d="M394 985 c-254 -55 -427 -309 -385 -562 37 -217 204 -381 421 -414 322 -50 611 239 561 561 -32 209 -185 372 -390 416 -80 17 -127 17 -207 -1z m226 -144 c11 -21 14 -239 4 -266 -4 -9 -18 -22 -33 -28 l-26 -11 27 -4 c52 -7 58 -30 58 -214 l0 -168 -150 0 -150 0 0 172 c0 191 5 207 64 209 l31 1 -28 12 c-16 7 -33 19 -38 27 -14 22 -11 263 3 277 8 8 49 12 120 12 96 0 108 -2 118 -19z" fill="#0d6efd"/>
<path d="M400 780 c0 -48 1 -50 29 -50 16 0 42 -7 57 -15 70 -36 117 -10 112 64 l-3 46 -97 3 -98 3 0 -51z" fill="#0d6efd"/>
<path d="M400 646 c0 -51 2 -55 35 -75 19 -11 35 -25 35 -31 0 -5 16 -10 35 -10 24 0 35 5 35 15 0 8 14 21 30 30 26 14 30 21 30 59 l0 44 -44 -5 c-29 -4 -55 0 -77 11 -17 9 -43 16 -56 16 -21 0 -23 -4 -23 -54z" fill="#0d6efd"/>
<path d="M387 494 c-4 -4 -7 -22 -7 -41 l0 -33 121 0 120 0 -3 38 -3 37 -111 3 c-60 1 -113 -1 -117 -4z" fill="#0d6efd"/>
<path d="M380 285 l0 -105 120 0 120 0 0 105 c0 98 -1 105 -20 105 -13 0 -20 -7 -20 -20 0 -11 -7 -20 -15 -20 -8 0 -15 9 -15 20 0 17 -7 20 -40 20 -33 0 -40 -3 -40 -20 0 -11 -7 -20 -15 -20 -8 0 -15 9 -15 20 0 16 -7 20 -30 20 l-30 0 0 -105z" fill="#0d6efd"/>
</g>
</svg>