<?xml version="1.0" encoding="UTF-8"?>
<svg id="_лой_1" data-name="‘лой_1" xmlns="http://www.w3.org/2000/svg" viewBox="0 0 2720.26 1499.51">
  <defs>
    <style>
      .cls-1 {
        fill: #79b27f;
      }

      .cls-2 {
        fill: #2a4e96;
      }

      .cls-3 {
        fill: #415da5;
      }

      .cls-4 {
        fill: #f99746;
      }

      .cls-5 {
        fill: #1d3f77;
      }

      .cls-6 {
        fill: #a8d29f;
      }

      .cls-7 {
        fill: #efcdaf;
      }

      .cls-8 {
        fill: #fff3e9;
      }

      .cls-9 {
        fill: #d4dfff;
      }

      .cls-10 {
        fill: #c0d8fb;
      }

      .cls-11 {
        fill: #1d2a4c;
      }

      .cls-12 {
        fill: #739cf3;
      }

      .cls-13 {
        fill: #35488b;
      }

      .cls-14 {
        fill: #739af0;
      }

      .cls-15 {
        fill: #2c3a64;
      }

      .cls-16 {
        fill: #5885d6;
      }

      .cls-17 {
        opacity: .5;
      }

      .cls-17, .cls-18 {
        fill: #aec3ff;
      }

      .cls-19 {
        fill: #f9ddbf;
      }

      .cls-20 {
        fill: #7faaf7;
      }

      .cls-21 {
        fill: #e8945b;
      }

      .cls-22 {
        fill: #aa3e39;
      }

      .cls-23 {
        fill: #ffb27d;
      }

      .cls-24 {
        fill: #b84c42;
      }

      .cls-25 {
        fill: #83affc;
      }

      .cls-26 {
        fill: #ed9f4a;
      }

      .cls-27 {
        fill: #233862;
      }

      .cls-28 {
        fill: #f8fcff;
      }

      .cls-29 {
        fill: #2b478b;
      }

      .cls-30 {
        fill: #e88338;
      }

      .cls-31 {
        fill: #ebf3fa;
      }

      .cls-32 {
        fill: #202e51;
      }
    </style>
  </defs>
  <path class="cls-31" d="m2667.88,1252.03l-.04.73c-1.09,21.26-3.95,41.35-8.14,60.24-22.15,99.94-79.93,163.79-94.34,179.26,0,0-.02.02-.03.03-1.95,2.1-3.15,3.3-3.3,3.61-62.61,0-467.37.07-928.62-.06-124.33-.03-252.76-.08-379.71-.16-57.65-.03-114.99-.06-171.5-.1-41.15-.03-81.86-.07-121.92-.1-152.08-.13-294.9-.3-417.39-.52-65.57-.12-125.31-.25-177.54-.41-139.07-.39-224.77-.89-225.03-1.54l-.15-.45s-.13-.13-.14-.27c-.01-.01-.01-.02-.01-.03,0-.15-.16-.31-.16-.31-.37-.86-80.49-111.66-104.31-263.67-5.52-35.25-8.02-72.71-5.79-111.53v-.61c8.34-143.17,80.84-304.53,302.41-441.48,211.72-131.04-13.35-217.48,155-363.38,193.51-167.43,404.78,17.9,619.98-58.09,37.92-13.49,76.14-35.03,114.36-68.09,21.53-18.65,45.04-35.03,70.21-48.99,3.95-2.27,7.74-4.4,11.68-6.37,15.17-7.88,30.79-15.01,47.02-21.38,10.76-4.25,21.83-8.19,33.06-11.83,17.89-5.91,36.24-10.92,54.9-15.01,26.54-6.07,53.99-10.47,81.89-13.5,12.14-1.37,24.42-2.43,36.86-3.19,227.75-14.36,482.6,61.53,627.55,175.58,8.04,6.32,15.73,12.76,23.07,19.31,3.04,2.72,7.24,6.67,12.2,11.78,33.83,34.86,102.72,123.58,74.28,243.55-2.43,10.23-5.56,20.7-9.48,31.37-5.62,15.28-12.86,30.99-21.95,47.1-14.1,25.02-11.98,49.59.76,74.47l.14.15h0c.7,1.34,1.43,2.68,2.19,4.02,2.66,4.69,5.7,9.39,9.08,14.1,1.92,2.7,3.96,5.39,6.11,8.08.53.67,1.07,1.34,1.62,2.02,1.1,1.35,2.22,2.69,3.37,4.04,0,0,0,0,0,0,.92,1.08,1.85,2.15,2.8,3.23.94,1.08,1.9,2.16,2.89,3.25.98,1.08,1.97,2.15,2.98,3.23,1,1.08,2.02,2.16,3.06,3.25,1.04,1.08,2.09,2.16,3.15,3.24,1.06,1.08,2.14,2.16,3.23,3.24h0c18.3,18.17,23.35,41.08,28.09,67.85,1.85,10.43,3.65,21.46,6.18,33.01.11.51.23,1.03.34,1.55,2.17,9.73,4.88,19.83,8.58,30.27.17.51.36,1.03.55,1.55,3.28,9.07,7.32,18.4,12.42,27.97.47.89.95,1.78,1.45,2.67h0c.38.72.77,1.42,1.18,2.13.29.52.58,1.03.88,1.55.5.88,1.02,1.76,1.55,2.64v.02c.22.36.44.74.68,1.11,3.64,6.07,7.75,12.23,12.39,18.47,2.02,2.74,4.15,5.5,6.39,8.27,11.96,14.81,26.96,30.08,45.92,45.72,24.98,20.62,56.85,41.9,97.71,63.7,6.5,3.47,12.76,6.99,18.79,10.55,56.8,33.55,92.39,70.83,105.12,112.9,1.8,5.94,4.84,17.55,7.77,31.5,4.49,21.38,8.7,48.28,7.69,68.75Z"/>
  <path class="cls-6" d="m2667.78,1252.01c.03.25.04.5.06.75-1.09,21.26-3.95,41.35-8.14,60.24l-112.4,17.63-23.2,3.64-13.2,2.07-91.45,14.35-8.18,1.28-18.39,2.89-4.78.75h-.03s-3.94.46-10.78,1.11c-.57.06-1.17.11-1.78.17-4.55.42-10.19.91-16.66,1.4-2.43.19-4.98.37-7.63.55-.5.03-1,.07-1.51.1-3.71.25-7.6.48-11.66.71-8.36.45-17.38.84-26.77,1.07-3.65.09-7.36.16-11.1.21-1.95.02-3.92.03-5.89.03-2.37,0-4.75,0-7.14,0-3.53-.02-7.08-.08-10.62-.17-2.6-.06-5.21-.14-7.8-.23-3.62-.14-7.23-.32-10.82-.53-.55-.03-1.1-.07-1.65-.11-1.67-.1-3.34-.21-5-.34-8.24-.62-16.28-1.47-23.93-2.6-1.29-.19-2.56-.39-3.82-.6-28.77-4.7-51.24-13.67-56.41-29.73-4.7-14.71,5.46-35.64,38.98-64.75,5.58-4.84,11.4-9.48,17.43-13.91,38.9-28.6,86.79-48.87,136.97-63.18,2.08-.6,4.16-1.18,6.25-1.75.32-.09.64-.18.96-.27.57-.15,1.14-.31,1.71-.46,1.13-.31,2.26-.61,3.38-.9,1.98-.53,3.96-1.05,5.95-1.55,10.02-2.56,20.1-4.89,30.18-7.01,2.54-.54,5.08-1.06,7.62-1.57,1.19-.24,2.38-.48,3.56-.71.82-.17,1.64-.33,2.46-.48,1.25-.24,2.5-.48,3.75-.71,42-7.93,83.59-12.49,121-15,42.13-2.84,78.97-3.07,105.12-2.61,3.02,7.3,5.6,18.43,7.77,31.5,3.43,20.53,5.89,45.87,7.59,68.73Z"/>
  <path class="cls-28" d="m1405.76,306.81s32.34-66.88,109.67-59.45c0,0,112.27-111.47,231.99-14.86,0,0,127.26-23.94,221.51,20.73,62.84,29.78,83.59,61.01,83.59,61.01l-646.76-7.43Z"/>
  <path class="cls-28" d="m1292.54,901.83s43.66-75.69,148.06-67.28c0,0,151.58-126.15,313.21-16.82,0,0,171.82-27.09,299.06,23.46,84.84,33.7,112.86,69.05,112.86,69.05l-873.2-8.41Z"/>
  <path class="cls-1" d="m2011.96,567.85s-33.02-56.58-111.87-42.57c-78.85,14.01-57.87,105.11-101.5,147.94-43.63,42.82-81.68,80.98-62.95,141.48,18.73,60.5-80.75,73.43-80.46,164.79.29,91.36,21.54,145.2,143.85,152.31,122.3,7.11,317.94-25.21,344.43-62.06,26.49-36.85,22.04-117.75-44.48-220.98-66.51-103.23-5.74-112.49-50.19-172.27-44.45-59.78-13.16-84.01-36.82-108.63Z"/>
  <path class="cls-28" d="m525.28,473.38s28.71-49.77,97.36-44.24c0,0,99.67-82.95,205.95-11.06,0,0,112.98-17.81,196.65,15.42,55.78,22.16,74.21,45.41,74.21,45.41l-574.16-5.53Z"/>
  <g>
    <polygon class="cls-14" points="1443.37 1329.61 1420.17 1329.61 1425.16 671.53 1436.93 671.53 1443.37 1329.61"/>
    <polygon class="cls-20" points="1429.6 675.03 1260.83 819.54 1195.24 875.71 1190.28 870.7 1248.35 806.29 1343.49 700.79 1418.67 661.4 1429.6 675.03"/>
    <polygon class="cls-4" points="1260.83 819.54 1195.24 875.71 1190.28 870.7 1248.35 806.29 1260.83 819.54"/>
    <polygon class="cls-20" points="1441.06 665.29 1424.59 671.14 1341.85 460.18 1311.93 383.9 1318.3 380.86 1358.44 453.88 1428.52 581.34 1441.06 665.29"/>
    <polygon class="cls-4" points="1358.44 453.88 1341.85 460.18 1311.93 383.9 1318.3 380.86 1358.44 453.88"/>
    <polygon class="cls-20" points="1739.45 676.71 1629.33 684.32 1511.22 692.49 1429.77 668.59 1431.38 651.19 1624.29 662.75 1739.37 669.64 1739.45 676.71"/>
    <polygon class="cls-4" points="1739.45 676.71 1625.39 684.59 1624.29 662.75 1739.37 669.64 1739.45 676.71"/>
    <path class="cls-29" d="m1430.66,648.97c-8.35-.5-15.53,5.86-16.03,14.22-.5,8.35,5.86,15.53,14.22,16.03,8.35.5,15.53-5.86,16.03-14.22.5-8.35-5.86-15.53-14.22-16.03Z"/>
  </g>
  <g>
    <path class="cls-9" d="m654.04,1491.79h574.16l239.35-.16h432.85s.25-.43.74-1.3c.35-.62.82-1.45,1.43-2.51l.23-.31v-.16s.24-.17.24-.32c.96-1.27,1.67-2.7,2.63-4.44.49-.8.96-1.76,1.68-2.7v-.32l.23-.16c3.28-5.67,7.35-13.05,12.04-21.97.43-.81.85-1.63,1.29-2.45,2.34-6.74,4.91-14.28,7.65-22.6,6.51-20.17,13.98-44.79,21.28-72.59,2.86-10.96,5.72-22.4,8.42-34.32,1.59-6.88,3.19-14.04,4.72-21.28.44-2.12.88-4.24,1.31-6.36,2.81-13.55,5.45-27.5,7.83-41.76,4.68-27.92,8.37-57.01,10.45-86.49-185.92,9.58-544.3,34.8-813.87,95.01-380.38,84.95-474.38,98.67-635.52,113.91-90.18,8.53,12.72,65.1,120.86,113.28Z"/>
    <path class="cls-9" d="m895.82,1399.79s616.07-187.63,771.19-201.22c155.12-13.59,6.52,18.17,6.52,18.17,0,0-421.62,109.68-519.61,156.45-207.24,98.92-258.1,26.6-258.1,26.6Z"/>
    <path class="cls-9" d="m1081.9,1486.42s513.44-235.83,652.38-274.14c138.94-38.32,8.96,15.25,8.96,15.25,0,0-405.4,211.4-490.32,264.77-12.29,7.73-171.01-5.87-171.01-5.87Z"/>
  </g>
  <path class="cls-17" d="m1216.33,735.93l-82.5,10.62-82.5,10.77-50.81-11.68c-1.21,2.28-3.34,3.94-5.76,4.85l3.64,469.69c-5.31,2.58-10.47,6.07-15.17,10.62l2.88-477.58-111.02,107.22-45.19,43.53-3.79-3.34,39.43-49.29,64.46-80.68,50.05-30.18q-.15-.15-.15-.3c0-2.43.91-4.55,2.12-6.37l-63.7-137.86-25.02-53.99,4.4-2.58,32.31,51.26,56.42,89.48,10.77,50.65h218.84l.3,5.16Z"/>
  <g>
    <polygon class="cls-14" points="2149.8 1302.5 2120.25 1302.5 2126.61 380.58 2141.59 380.58 2149.8 1302.5"/>
    <polygon class="cls-25" points="2129.11 351.2 2255.98 98.3 2305.28 0 2313.58 3.44 2277.17 107.7 2217.51 278.48 2148.67 361.81 2129.11 351.2"/>
    <polygon class="cls-4" points="2255.98 98.3 2305.28 0 2313.58 3.44 2277.17 107.7 2255.98 98.3"/>
    <polygon class="cls-25" points="2120.46 368.28 2136.91 353.29 2338.1 560.16 2410.85 634.96 2404.87 641.67 2321.73 575.74 2176.59 460.66 2120.46 368.28"/>
    <polygon class="cls-4" points="2321.73 575.74 2338.1 560.16 2410.85 634.96 2404.87 641.67 2321.73 575.74"/>
    <polygon class="cls-25" points="1764.5 502.05 1890.04 438.8 2024.67 370.96 2132.09 358.84 2138.77 380.06 1906.59 461.64 1768.08 510.3 1764.5 502.05"/>
    <polygon class="cls-4" points="1764.5 502.05 1894.53 436.53 1906.59 461.64 1768.08 510.3 1764.5 502.05"/>
    <path class="cls-29" d="m2140.72,382.31c10.05-3.53,15.34-14.54,11.81-24.6-3.53-10.05-14.54-15.34-24.6-11.81-10.05,3.53-15.34,14.54-11.81,24.6,3.53,10.05,14.54,15.34,24.6,11.81Z"/>
  </g>
  <path class="cls-6" d="m1699.13,1353.09s-123.99-36.86-196.58,8.31c-72.59,45.17-29.65,97.15-115.54,92.63-85.88-4.52-128.83-8.86-133.35,41.9h379.7l65.77-142.84Z"/>
  <g>
    <g>
      <g>
        <rect class="cls-19" x="1806.77" y="910.72" width="416.74" height="584.32"/>
        <path class="cls-8" d="m2547.3,926.27v568.73h-323.79v-584.35h309.69c4.85,5.16,9.55,10.31,14.1,15.62Z"/>
        <path class="cls-26" d="m2304.19,719.86l-32.91,67.79-14.56,29.88-.46,1.21-.61,1.06-.46.91-.76,1.52-.3.76-14.41,29.57-.76,1.52-1.82,3.94-25.63,52.63-5.92,12.28-8.34,16.99-4.4,9.1h-414.79l28.66-37.16.91-1.21,186.54-241.44.15-.15h16.38l252.97-.91c8.95,17.14,23.05,34.43,40.49,51.71Z"/>
        <polygon class="cls-19" points="2223.51 946.26 2223.51 994.85 1806.77 1012.46 1806.77 949.08 1794.44 949.08 2010.71 668.99 2223.51 946.26"/>
        <path class="cls-7" d="m2005.73,808.52h8.71c28.62,0,51.85,23.23,51.85,51.85v137.92h-114.15v-136.18c0-29.58,24.01-53.59,53.59-53.59Z"/>
        <polygon class="cls-4" points="2585.29 964.64 2215.85 964.64 2197.2 939.91 2175.21 910.65 2002.16 679.97 1994.12 669.2 1993.21 667.99 2362.66 667.99 2363.57 669.2 2371.61 679.97 2544.65 910.65 2566.64 939.91 2585.29 964.64"/>
      </g>
      <g>
        <polygon class="cls-26" points="1965.5 1027.6 1868.28 1227.74 1572.95 1227.74 1726.92 1028.33 1965.5 1027.6"/>
        <g>
          <polygon class="cls-19" points="1974.34 1027.6 1877.13 1227.74 1581.8 1227.74 1735.77 1028.33 1974.34 1027.6"/>
          <polygon class="cls-19" points="1876.49 1227.74 1876.49 1494.49 1581.8 1495.07 1581.8 1227.74 1876.49 1227.74"/>
          <rect class="cls-8" x="1876.49" y="1227.74" width="249.54" height="266.75"/>
          <polygon class="cls-4" points="2153.45 1239.58 1885.38 1239.58 1726.92 1028.33 1806.77 1028.34 1990.39 1028.38 2153.45 1239.58"/>
          <path class="cls-7" d="m1712.99,1139.44c0-7.69,6.24-13.93,13.93-13.93s13.93,6.24,13.93,13.93-6.24,13.93-13.93,13.93-13.93-6.24-13.93-13.93Z"/>
          <polygon class="cls-30" points="2153.45 1239.58 2102.58 1239.58 1806.77 1028.34 1990.39 1028.38 2153.45 1239.58"/>
        </g>
      </g>
    </g>
    <g>
      <polygon class="cls-29" points="2286.73 918.91 2489.55 918.91 2382.56 787.7 2179.74 787.7 2286.73 918.91"/>
      <g>
        <polygon class="cls-18" points="2207.36 822.26 2410.18 822.26 2408.93 820.72 2206.1 820.72 2207.36 822.26"/>
        <polygon class="cls-18" points="2334.89 787.7 2441.88 918.91 2443.42 918.91 2336.43 787.7 2334.89 787.7"/>
        <polygon class="cls-18" points="2281.15 787.7 2388.14 918.91 2389.68 918.91 2282.69 787.7 2281.15 787.7"/>
        <polygon class="cls-18" points="2229.44 787.7 2336.43 918.91 2337.97 918.91 2230.98 787.7 2229.44 787.7"/>
        <polygon class="cls-18" points="2233.86 854.08 2436.69 854.08 2435.43 852.54 2232.61 852.54 2233.86 854.08"/>
        <polygon class="cls-18" points="2261.85 888.4 2464.67 888.4 2463.41 886.86 2260.59 886.86 2261.85 888.4"/>
        <g>
          <polygon class="cls-18" points="2368.64 827.92 2369.81 821.6 2358.34 815.28 2357.17 821.6 2368.64 827.92"/>
          <polygon class="cls-18" points="2315.49 827.92 2316.65 821.6 2305.18 815.28 2304.01 821.6 2315.49 827.92"/>
          <polygon class="cls-18" points="2263 827.92 2264.17 821.6 2252.7 815.28 2251.53 821.6 2263 827.92"/>
        </g>
        <g>
          <polygon class="cls-18" points="2394.5 859.63 2395.67 853.31 2384.2 846.99 2383.03 853.31 2394.5 859.63"/>
          <polygon class="cls-18" points="2341.34 859.63 2342.51 853.31 2331.04 846.99 2329.87 853.31 2341.34 859.63"/>
          <polygon class="cls-18" points="2288.86 859.63 2290.03 853.31 2278.56 846.99 2277.39 853.31 2288.86 859.63"/>
        </g>
        <g>
          <polygon class="cls-18" points="2422.49 893.95 2423.65 887.63 2412.18 881.31 2411.01 887.63 2422.49 893.95"/>
          <polygon class="cls-18" points="2369.33 893.95 2370.5 887.63 2359.02 881.31 2357.86 887.63 2369.33 893.95"/>
          <polygon class="cls-18" points="2316.85 893.95 2318.01 887.63 2306.54 881.31 2305.37 887.63 2316.85 893.95"/>
        </g>
      </g>
    </g>
    <g>
      <polygon class="cls-29" points="1903.89 1198.89 2087.67 1198.89 1990.73 1079.99 1806.95 1079.99 1903.89 1198.89"/>
      <g>
        <polygon class="cls-18" points="1831.98 1111.31 2015.76 1111.31 2014.62 1109.91 1830.84 1109.91 1831.98 1111.31"/>
        <polygon class="cls-18" points="1947.53 1079.99 2044.47 1198.89 2045.87 1198.89 1948.92 1079.99 1947.53 1079.99"/>
        <polygon class="cls-18" points="1898.83 1079.99 1995.78 1198.89 1997.18 1198.89 1900.23 1079.99 1898.83 1079.99"/>
        <polygon class="cls-18" points="1851.98 1079.99 1948.93 1198.89 1950.33 1198.89 1853.38 1079.99 1851.98 1079.99"/>
        <polygon class="cls-18" points="1855.99 1140.14 2039.77 1140.14 2038.63 1138.74 1854.85 1138.74 1855.99 1140.14"/>
        <polygon class="cls-18" points="1881.35 1171.24 2065.13 1171.24 2063.99 1169.84 1880.21 1169.84 1881.35 1171.24"/>
        <g>
          <polygon class="cls-18" points="1978.12 1116.43 1979.17 1110.71 1968.78 1104.98 1967.72 1110.71 1978.12 1116.43"/>
          <polygon class="cls-18" points="1929.95 1116.43 1931.01 1110.71 1920.61 1104.98 1919.55 1110.71 1929.95 1116.43"/>
          <polygon class="cls-18" points="1882.39 1116.43 1883.45 1110.71 1873.06 1104.98 1872 1110.71 1882.39 1116.43"/>
        </g>
        <g>
          <polygon class="cls-18" points="2001.55 1145.17 2002.6 1139.44 1992.21 1133.71 1991.15 1139.44 2001.55 1145.17"/>
          <polygon class="cls-18" points="1953.38 1145.17 1954.43 1139.44 1944.04 1133.71 1942.98 1139.44 1953.38 1145.17"/>
          <polygon class="cls-18" points="1905.82 1145.17 1906.88 1139.44 1896.49 1133.71 1895.43 1139.44 1905.82 1145.17"/>
        </g>
        <g>
          <polygon class="cls-18" points="2026.9 1176.27 2027.96 1170.54 2017.57 1164.81 2016.51 1170.54 2026.9 1176.27"/>
          <polygon class="cls-18" points="1978.74 1176.27 1979.79 1170.54 1969.4 1164.81 1968.34 1170.54 1978.74 1176.27"/>
          <polygon class="cls-18" points="1931.18 1176.27 1932.24 1170.54 1921.84 1164.81 1920.79 1170.54 1931.18 1176.27"/>
        </g>
      </g>
    </g>
  </g>
  <path class="cls-6" d="m835.76,1491.79c-.06.17-.12.33-.18.5H140.03s-.01-.02-.01-.03c0-.15-.16-.31-.16-.31-.37-.86-80.49-111.66-104.31-263.67,17.41-6.69,78.88-27.47,165.36-25.22,3.48.09,7,.22,10.56.39,31.91,1.49,66.98,6.18,104.31,15.81,1.31.34,2.63.68,3.95,1.03.37.1.74.2,1.11.3,2.64.71,5.28,1.44,7.94,2.2,2.98.85,5.96,1.73,8.97,2.64,1.07.33,2.15.66,3.23.99,3.98,1.24,7.98,2.54,12.01,3.89,46.98,15.81,76.13,32.85,96.42,49.32.42.34.84.68,1.26,1.02,9.74,8.05,17.41,15.96,24.04,23.51,1.81,2.06,3.55,4.09,5.23,6.09,2.08,2.49,4.08,4.93,6.04,7.32,6.57,8.02,12.64,15.42,19.76,21.88,19.64,17.87,47.25,28.67,115.33,25.96,12.21-.49,23.88-.6,35.03-.36,146.39,3.05,202.06,65.79,179.66,126.74Z"/>
  <path class="cls-6" d="m2667.88,1252.03s-.07,0-.1-.02c-26.69-5.33-68.6-11.75-120.48-13.29-32.14-.96-68.12-.05-106.67,4.15-1.36.15-2.73.3-4.1.45-4.02.47-8.07.96-12.15,1.5-8.9,1.16-17.93,2.51-27.06,4.05-.01,0-.02,0-.03,0-2.72.46-5.42.93-8.16,1.43-2.93.52-5.87,1.07-8.82,1.64-6.32,1.22-12.7,2.54-19.12,3.96-2.82.62-5.65,1.27-8.49,1.94-2.84.65-5.68,1.34-8.54,2.04-3.46.86-6.93,1.74-10.41,2.65h0c-1.08.29-2.17.58-3.25.87h-.01c-3.19.86-6.39,1.74-9.6,2.65-12.97,3.67-26.08,7.78-39.27,12.37-21.66,7.48-40.9,14.85-58.1,22.03-21.83,9.09-40.38,17.88-56.41,26.19-15.83,8.18-29.27,15.95-41.07,23.2-63.92,39.28-79.66,63.52-166.85,56.73-7.77-.59-15.21-.83-22.34-.73-23.36.3-43.34,4.07-60.35,9.88-34.1,11.64-56.25,31.51-69.72,48.09-11.1,13.66-16.32,25.08-17.49,27.82-.18.41-.26.63-.26.63h776.34c14.41-15.47,72.19-79.32,94.34-179.26,4.19-18.89,7.05-38.98,8.14-60.24l.04-.73Z"/>
  <path class="cls-28" d="m389.53,837.32s16.76-31.35,56.84-27.87c0,0,58.19-52.25,120.24-6.97,0,0,65.96-11.22,114.81,9.71,32.57,13.96,43.32,28.6,43.32,28.6l-335.21-3.48Z"/>
  <path class="cls-28" d="m1014.96,567.14s13.88-29.81,47.07-26.5c0,0,48.18-49.69,99.57-6.63,0,0,54.62-10.67,95.07,9.24,26.97,13.27,35.88,27.2,35.88,27.2l-277.58-3.31Z"/>
  <g>
    <g>
      <polygon class="cls-5" points="430.73 1487.43 470.34 1486.94 562.85 1101.46 523.24 1101.96 430.73 1487.43"/>
      <path class="cls-5" d="m365.29,1496.01h177.63c0-10.39-8.42-18.82-18.82-18.82h-140c-10.39,0-18.82,8.42-18.82,18.82h0Z"/>
    </g>
    <polygon class="cls-5" points="775.62 1317.54 758.56 1232 758.56 1232 758.53 1231.82 701.75 947.17 149.89 947.25 223.76 1317.62 328.58 1317.6 328.58 1317.6 329.57 1317.6 446.88 1317.58 447.24 1317.58 447.24 1317.58 564.04 1317.57 564.84 1317.57 564.84 1317.57 681.38 1317.55 681.38 1317.55 682.44 1317.55 682.44 1317.55 775.62 1317.54"/>
    <g>
      <polygon class="cls-2" points="785.08 1310.21 233.21 1310.29 159.34 947.24 711.2 947.17 785.08 1310.21"/>
      <g>
        <polygon class="cls-10" points="339.09 1310.28 338.04 1310.28 264.36 948.21 265.42 948.21 339.09 1310.28"/>
        <polygon class="cls-10" points="456.69 1310.26 455.64 1310.26 381.96 948.19 383.02 948.19 456.69 1310.26"/>
        <polygon class="cls-10" points="574.29 1310.24 573.24 1310.24 499.56 948.17 500.62 948.17 574.29 1310.24"/>
        <polygon class="cls-10" points="691.89 1310.23 690.84 1310.23 617.16 948.16 618.22 948.16 691.89 1310.23"/>
        <polygon class="cls-10" points="728.73 1033.33 176.87 1033.4 176.67 1032.41 728.53 1032.33 728.73 1033.33"/>
        <polygon class="cls-10" points="748.37 1129.85 196.51 1129.93 196.31 1128.93 748.17 1128.86 748.37 1129.85"/>
        <polygon class="cls-10" points="768.01 1226.37 216.15 1226.45 215.95 1225.45 767.81 1225.38 768.01 1226.37"/>
      </g>
      <g>
        <polygon class="cls-10" points="284.29 1043.57 270.76 1032.89 279.95 1022.22 293.48 1032.89 284.29 1043.57"/>
        <polygon class="cls-10" points="304.03 1140.58 290.5 1129.91 299.69 1119.24 313.22 1129.91 304.03 1140.58"/>
        <polygon class="cls-10" points="402.42 1043.55 388.89 1032.88 398.08 1022.2 411.61 1032.88 402.42 1043.55"/>
        <polygon class="cls-10" points="422.16 1140.57 408.63 1129.9 417.82 1119.22 431.35 1129.89 422.16 1140.57"/>
        <polygon class="cls-10" points="520.02 1043.53 506.49 1032.86 515.68 1022.19 529.21 1032.86 520.02 1043.53"/>
        <polygon class="cls-10" points="636.57 1043.51 623.03 1032.84 632.22 1022.17 645.75 1032.84 636.57 1043.51"/>
        <polygon class="cls-10" points="323.57 1236.61 310.04 1225.94 319.23 1215.26 332.76 1225.93 323.57 1236.61"/>
        <polygon class="cls-10" points="441.7 1236.59 428.17 1225.92 437.36 1215.25 450.89 1225.92 441.7 1236.59"/>
        <polygon class="cls-10" points="559.3 1236.57 545.77 1225.9 554.96 1215.23 568.49 1225.9 559.3 1236.57"/>
        <polygon class="cls-10" points="675.85 1236.56 662.31 1225.89 671.5 1215.21 685.04 1225.88 675.85 1236.56"/>
        <polygon class="cls-10" points="656.31 1140.53 642.77 1129.86 651.96 1119.19 665.5 1129.86 656.31 1140.53"/>
        <polygon class="cls-10" points="539.76 1140.55 526.23 1129.88 535.42 1119.21 548.95 1129.88 539.76 1140.55"/>
      </g>
    </g>
  </g>
  <g>
    <g>
      <polygon class="cls-5" points="1005.19 1490.12 1032.38 1489.78 1095.9 1225.13 1068.7 1225.46 1005.19 1490.12"/>
      <path class="cls-5" d="m960.26,1496.01h121.96c0-7.13-5.78-12.92-12.92-12.92h-96.12c-7.14,0-12.92,5.78-12.92,12.92h0Z"/>
    </g>
    <polygon class="cls-5" points="1241.98 1373.48 1230.27 1314.75 1230.27 1314.75 1230.24 1314.62 1191.26 1119.19 812.37 1119.24 863.09 1373.53 935.06 1373.52 935.06 1373.52 935.73 1373.52 1016.28 1373.51 1016.52 1373.51 1016.52 1373.51 1096.71 1373.5 1097.26 1373.5 1097.26 1373.5 1177.28 1373.49 1177.28 1373.49 1178 1373.49 1178 1373.48 1241.98 1373.48"/>
    <g>
      <polygon class="cls-2" points="1248.47 1368.45 869.58 1368.5 818.86 1119.24 1197.75 1119.19 1248.47 1368.45"/>
      <g>
        <polygon class="cls-10" points="942.27 1368.49 941.55 1368.49 890.96 1119.9 891.69 1119.9 942.27 1368.49"/>
        <polygon class="cls-10" points="1023.01 1368.48 1022.29 1368.48 971.7 1119.89 972.43 1119.89 1023.01 1368.48"/>
        <polygon class="cls-10" points="1103.75 1368.47 1103.03 1368.47 1052.44 1119.88 1053.17 1119.88 1103.75 1368.47"/>
        <polygon class="cls-10" points="1184.49 1368.46 1183.77 1368.46 1133.19 1119.87 1133.91 1119.87 1184.49 1368.46"/>
        <polygon class="cls-10" points="1209.79 1178.34 830.89 1178.4 830.75 1177.72 1209.65 1177.66 1209.79 1178.34"/>
        <polygon class="cls-10" points="1223.27 1244.61 844.38 1244.67 844.24 1243.99 1223.13 1243.93 1223.27 1244.61"/>
        <polygon class="cls-10" points="1236.76 1310.88 857.86 1310.94 857.72 1310.25 1236.62 1310.2 1236.76 1310.88"/>
      </g>
      <g>
        <polygon class="cls-10" points="904.65 1185.37 895.36 1178.05 901.66 1170.72 910.96 1178.05 904.65 1185.37"/>
        <polygon class="cls-10" points="918.2 1251.98 908.91 1244.66 915.22 1237.33 924.51 1244.66 918.2 1251.98"/>
        <polygon class="cls-10" points="985.75 1185.36 976.46 1178.04 982.77 1170.71 992.06 1178.03 985.75 1185.36"/>
        <polygon class="cls-10" points="999.3 1251.97 990.01 1244.65 996.32 1237.32 1005.61 1244.64 999.3 1251.97"/>
        <polygon class="cls-10" points="1066.49 1185.35 1057.2 1178.02 1063.51 1170.7 1072.8 1178.02 1066.49 1185.35"/>
        <polygon class="cls-10" points="1146.51 1185.34 1137.22 1178.01 1143.53 1170.69 1152.82 1178.01 1146.51 1185.34"/>
        <polygon class="cls-10" points="931.62 1317.91 922.33 1310.59 928.63 1303.26 937.92 1310.58 931.62 1317.91"/>
        <polygon class="cls-10" points="1012.72 1317.9 1003.43 1310.57 1009.74 1303.25 1019.03 1310.57 1012.72 1317.9"/>
        <polygon class="cls-10" points="1093.46 1317.89 1084.17 1310.56 1090.48 1303.23 1099.77 1310.56 1093.46 1317.89"/>
        <polygon class="cls-10" points="1173.48 1317.88 1164.19 1310.55 1170.5 1303.22 1179.79 1310.55 1173.48 1317.88"/>
        <polygon class="cls-10" points="1160.06 1251.95 1150.77 1244.62 1157.08 1237.29 1166.37 1244.62 1160.06 1251.95"/>
        <polygon class="cls-10" points="1080.05 1251.96 1070.75 1244.63 1077.06 1237.31 1086.35 1244.63 1080.05 1251.96"/>
      </g>
    </g>
  </g>
  <g>
    <path class="cls-21" d="m1582.4,1401.18l9.02-1.76s-21.55-85.22-18.59-92.26c2.39-5.84,27.23-10.06,39.4-20.26,2.6-2.18,4.57-4.57,5.7-7.32,6.47-15.83-4.08-27.58-4.08-27.58,0,0-22.09,5.07-42.15,13.65-14.28,6.12-27.51,14.07-31.17,23.29-8.8,22.31,41.88,112.24,41.88,112.24Z"/>
    <path class="cls-3" d="m1557.88,1414.32c.14-.89.73-1.68,1.6-2.16,2.14-1.18,6.53-2.87,9.82-7.26,1.85-2.47,9.49-9.76,9.49-9.76l.04-.02c.2-.05,1.2-.04,6.04,1.95,2.5,1.02,5.11-3.68,5.11-3.68,0,0,.8.32,1.54,1.1.59.62,1.14,1.54,1.23,2.82.12,1.81,1.99,4.74,3.38,6.7.84,1.18,1.51,2,1.51,2,0,0,.52,1.02-3.74,2.64l-5.09,1.32c-1.77.2-3.14.09-4.94.34-2.74.38-3.71,1.66-3.9,1.94-.03.04-.04.06-.04.06l-21.65,5.6c-.72-.55-.61-2.28-.4-3.58Z"/>
    <g id="BPbxa9">
      <path class="cls-15" d="m1515.44,1417.72c2.22,0,4.02-1.8,4.02-4.02,0-49.91-40.6-90.52-90.51-90.52-11.53,0-22.75,2.14-33.36,6.35-2.06.82-3.07,3.16-2.25,5.23.83,2.05,3.15,3.07,5.23,2.25,9.65-3.83,19.88-5.78,30.38-5.78,45.47,0,82.47,37,82.47,82.47,0,2.22,1.8,4.02,4.02,4.02Z"/>
      <g>
        <g>
          <path class="cls-3" d="m1442.6,1413.69c0-7.4-6-13.4-13.4-13.4s-13.4,6-13.4,13.4,6,13.4,13.4,13.4,13.4-6,13.4-13.4Z"/>
          <g>
            <rect class="cls-3" x="1407.54" y="1380.22" width="67.26" height="1.82" transform="translate(-345.57 2271.11) rotate(-70.26)"/>
            <polygon class="cls-3" points="1493.36 1442.25 1494.08 1440.57 1429.8 1412.96 1387.54 1352.59 1386.05 1353.64 1428.6 1414.43 1428.84 1414.53 1493.36 1442.25"/>
            <path class="cls-3" d="m1454.69,1483.5l1.72-.58c-.46-1.36-25.31-66.77-26.37-69.55l-.65-1.7-40.04,63.33,1.54.97,38.1-60.25c9.1,23.96,25.35,66.74,25.69,67.78Z"/>
            <rect class="cls-3" x="1428.68" y="1402.11" width="72.38" height="1.82" transform="translate(-216.6 268.58) rotate(-9.76)"/>
            <rect class="cls-3" x="1413.3" y="1344.3" width="1.82" height="66.09" transform="translate(-363.13 518.2) rotate(-18.44)"/>
            <polygon class="cls-3" points="1429.34 1414.64 1429.61 1414.5 1495.04 1381.34 1494.21 1379.72 1429.06 1412.75 1358.93 1400.99 1358.63 1402.78 1429.34 1414.64"/>
            <path class="cls-3" d="m1402.8,1481.23c.39-1.14,17.18-42.45,26.58-65.56l36.31,57.12,1.53-.98-38.2-60.1-.66,1.63c-1.1,2.69-26.82,65.92-27.28,67.3l1.72.58Z"/>
            <rect class="cls-3" x="1463.5" y="1383.32" width="1.82" height="71.19" transform="translate(-153.87 2659.48) rotate(-81.57)"/>
            <rect class="cls-3" x="1422.58" y="1380.3" width="59.58" height="1.82" transform="translate(-542.81 1571.87) rotate(-49.02)"/>
            <rect class="cls-3" x="1428.75" y="1418.58" width="1.82" height="66.11" transform="translate(-115.21 123.27) rotate(-4.75)"/>
            <rect class="cls-3" x="1363.38" y="1430.73" width="75.75" height="1.82" transform="translate(-566.04 1053.67) rotate(-34.74)"/>
            <polygon class="cls-3" points="1480.8 1462.5 1482.09 1461.22 1430.11 1408.78 1430.11 1340.54 1428.29 1340.54 1428.29 1409.53 1480.8 1462.5"/>
          </g>
        </g>
        <path class="cls-32" d="m1493.01,1367.84c-1.45-2.01-3-3.96-4.63-5.82-6.2-7.09-13.65-13.06-22-17.56-3.64-1.97-7.45-3.65-11.4-5.02-8.08-2.82-16.75-4.35-25.78-4.35-2.8,0-5.57.15-8.29.44h0c-16.31,1.72-31.15,8.45-42.94,18.6h0c-16.73,14.44-27.35,35.78-27.35,59.56,0,7.2.99,14.34,2.91,21.21,1.72,6.18,4.21,12.15,7.42,17.75.09.18.2.35.3.53,6.8,11.68,16.55,21.48,28.2,28.32,9.15,5.38,19.32,8.83,29.84,10.16h.04c3.26.42,6.58.63,9.89.63s6.78-.22,10.08-.64h.02c38.6-4.98,68.5-38.03,68.5-77.96,0-17.1-5.48-32.94-14.79-45.85Zm-1.26,71.73c-.22.56-.46,1.12-.72,1.67-2.87,6.43-6.72,12.33-11.36,17.52-.4.46-.81.91-1.23,1.35-3.64,3.85-7.72,7.28-12.17,10.2-.5.34-1.01.66-1.53.98-3.37,2.09-6.94,3.89-10.67,5.37-.56.22-1.13.44-1.7.65-6.09,2.22-12.59,3.6-19.35,3.97-.61.04-1.21.06-1.82.08-.67.02-1.33.03-2,.03-8.46,0-16.82-1.58-24.62-4.63-.57-.21-1.13-.44-1.69-.67-2.72-1.16-5.37-2.48-7.93-3.99-.39-.23-.78-.47-1.17-.71-.52-.31-1.03-.63-1.53-.97-6.97-4.54-13.05-10.34-17.92-17.06-.31-.43-.62-.87-.92-1.31-.35-.5-.69-1.01-1.01-1.52-.62-.93-1.2-1.87-1.76-2.83-3.31-5.69-5.76-11.83-7.28-18.21-1.24-5.15-1.87-10.46-1.87-15.8,0-3.51.27-6.95.78-10.31.1-.6.2-1.2.3-1.79,3.18-17.55,13.15-32.76,27.07-42.81.49-.36.99-.71,1.49-1.05,4.11-2.81,8.54-5.17,13.22-7.03.57-.22,1.14-.43,1.71-.64,6.95-2.54,14.43-3.96,22.22-4.06.3-.01.61-.01.91-.01s.61,0,.91.01c7.28.09,14.29,1.34,20.84,3.57h0c.17.06.33.12.5.18.58.2,1.14.41,1.71.62,2.97,1.13,5.84,2.46,8.59,3.97,2.85,1.57,5.57,3.34,8.15,5.29.49.36.96.73,1.43,1.12,2.53,2.01,4.92,4.21,7.14,6.56,2.17,2.3,4.17,4.76,6,7.35,1.72,2.42,3.29,4.96,4.67,7.61.29.54.57,1.08.83,1.62,2.04,4.13,3.66,8.5,4.83,13.05.14.59.29,1.18.42,1.78,1.09,4.82,1.67,9.83,1.67,14.97,0,3.06-.2,6.08-.6,9.04-.08.6-.17,1.21-.27,1.8-.84,5.24-2.29,10.28-4.28,15.04Z"/>
      </g>
      <rect class="cls-12" x="1524.42" y="1348.27" width="151.69" height="8.18" transform="translate(-175.18 2464.79) rotate(-72.27)"/>
      <polygon class="cls-12" points="1584.94 1426.25 1693.97 1416.77 1491.77 1280.06 1503.33 1303.74 1670.27 1410.62 1584.23 1418.1 1584.94 1426.25"/>
      <polygon class="cls-12" points="1570.25 1419.85 1577.12 1415.42 1493.22 1281.03 1483.46 1291.13 1570.25 1419.85"/>
      <path class="cls-3" d="m1435.71,1410.09l46.72-99.99-6.26-2.5c-4.07-1.63-8.68.36-10.3,4.43l-37.73,94.97,7.57,3.09Z"/>
      <path class="cls-3" d="m1482.43,1310.1c6.76-17.54,18.05-45.1,17.87-44.83l-6.81-4.53c-.33.5-.55.83-18.28,46.84l7.22,2.53Z"/>
      <path class="cls-3" d="m1521.65,1274.85c2.68-3.72,1.83-8.9-1.89-11.58-3.72-2.68-8.9-1.83-11.58,1.89-2.68,3.72-1.83,8.9,1.89,11.58,3.72,2.68,8.9,1.83,11.58-1.89Z"/>
      <path class="cls-3" d="m1490.25,1253.13c2.68-3.72,1.83-8.9-1.89-11.58-3.72-2.68-8.9-1.83-11.58,1.89-2.68,3.72-1.83,8.9,1.89,11.58,3.72,2.68,8.9,1.83,11.58-1.89Z"/>
      <polygon class="cls-3" points="1482.16 1256.07 1513.84 1276.23 1518.24 1267.58 1486.55 1247.42 1482.16 1256.07"/>
      <path class="cls-3" d="m1534.3,1445.5h17.72c2.08,0,3.79-1.7,3.79-3.79h0c0-2.08-1.7-3.79-3.79-3.79h-17.72c-2.08,0-3.79,1.7-3.79,3.79h0c0,2.08,1.7,3.79,3.79,3.79Z"/>
      <rect class="cls-3" x="1540.56" y="1429.67" width="39.44" height="3.18" transform="translate(-453.04 775.88) rotate(-24.5)"/>
      <g>
        <g>
          <path class="cls-3" d="m1695.52,1413.69c0-7.4-6-13.4-13.4-13.4s-13.4,6-13.4,13.4,6,13.4,13.4,13.4,13.4-6,13.4-13.4Z"/>
          <g>
            <rect class="cls-3" x="1660.45" y="1380.22" width="67.26" height="1.82" transform="translate(-178.08 2509.17) rotate(-70.26)"/>
            <polygon class="cls-3" points="1746.28 1442.25 1746.99 1440.57 1682.71 1412.96 1640.46 1352.59 1638.97 1353.64 1681.52 1414.43 1681.76 1414.53 1746.28 1442.25"/>
            <path class="cls-3" d="m1707.61,1483.5l1.72-.58c-.46-1.36-25.31-66.77-26.37-69.55l-.65-1.7-40.05,63.33,1.54.97,38.1-60.25c9.1,23.96,25.35,66.74,25.69,67.78Z"/>
            <rect class="cls-3" x="1681.6" y="1402.11" width="72.38" height="1.82" transform="translate(-212.94 311.45) rotate(-9.76)"/>
            <rect class="cls-3" x="1666.22" y="1344.3" width="1.82" height="66.09" transform="translate(-350.13 598.19) rotate(-18.44)"/>
            <polygon class="cls-3" points="1682.26 1414.64 1682.53 1414.5 1747.96 1381.34 1747.13 1379.72 1681.97 1412.75 1611.85 1400.99 1611.54 1402.78 1682.26 1414.64"/>
            <path class="cls-3" d="m1655.72,1481.23c.39-1.14,17.18-42.45,26.58-65.56l36.31,57.12,1.53-.98-38.2-60.1-.66,1.63c-1.09,2.69-26.82,65.92-27.28,67.3l1.72.58Z"/>
            <rect class="cls-3" x="1716.42" y="1383.32" width="1.82" height="71.19" transform="translate(61.24 2908.86) rotate(-81.54)"/>
            <rect class="cls-3" x="1675.5" y="1380.3" width="59.58" height="1.82" transform="translate(-455.76 1762.81) rotate(-49.02)"/>
            <rect class="cls-3" x="1681.66" y="1418.58" width="1.82" height="66.1" transform="translate(-114.39 144.27) rotate(-4.75)"/>
            <rect class="cls-3" x="1616.3" y="1430.73" width="75.75" height="1.82" transform="translate(-520.96 1197.79) rotate(-34.74)"/>
            <polygon class="cls-3" points="1733.72 1462.5 1735.01 1461.22 1683.03 1408.78 1683.03 1340.54 1681.21 1340.54 1681.21 1409.53 1733.72 1462.5"/>
          </g>
        </g>
        <path class="cls-32" d="m1682.12,1335.09c-12.03,0-23.44,2.72-33.64,7.58-11.5,5.45-21.47,13.63-29.07,23.69-1.98,2.61-3.8,5.36-5.44,8.21-6.65,11.52-10.45,24.89-10.45,39.12,0,.91.02,1.82.05,2.73.09,2.73.33,5.45.7,8.15,1.41,10.07,4.75,19.81,9.87,28.61,6.44,11.06,15.54,20.44,26.39,27.21.6.38,1.21.75,1.82,1.11,9.08,5.34,19.15,8.77,29.57,10.13,3.37.44,6.78.66,10.2.66s6.87-.22,10.21-.66c38.53-5.02,68.39-38.06,68.39-77.94,0-43.34-35.26-78.6-78.6-78.6Zm62.55,104.48c-.22.56-.46,1.12-.72,1.67-2.87,6.43-6.72,12.33-11.36,17.52-.4.46-.81.91-1.23,1.35-3.64,3.85-7.72,7.28-12.17,10.2-.5.34-1.01.66-1.53.98-3.37,2.09-6.94,3.89-10.67,5.37-.56.22-1.13.44-1.7.65-6.1,2.22-12.6,3.6-19.36,3.97-.6.04-1.21.06-1.81.08-.67.02-1.33.03-2,.03-8.47,0-16.82-1.58-24.62-4.63-.57-.21-1.13-.44-1.69-.67-2.72-1.16-5.37-2.48-7.93-3.99-.39-.23-.78-.47-1.17-.71-.52-.31-1.03-.63-1.53-.97-.02,0-.04-.01-.05-.03-7.4-4.83-13.79-11.08-18.79-18.34-.35-.5-.69-1.01-1.01-1.52-.62-.93-1.2-1.87-1.76-2.83-4.32-7.42-7.17-15.6-8.41-24.08-.41-2.69-.64-5.41-.71-8.15-.02-.59-.03-1.19-.03-1.78,0-3.51.27-6.95.78-10.31.1-.6.2-1.2.3-1.79,1.37-7.55,3.99-14.67,7.66-21.13,1.57-2.8,3.34-5.47,5.29-7.99,4.02-5.22,8.78-9.84,14.12-13.69.49-.36.99-.71,1.49-1.05,4.11-2.81,8.54-5.17,13.22-7.03.57-.22,1.14-.43,1.71-.64,4.24-1.55,8.65-2.68,13.23-3.35h.01c2.94-.43,5.93-.67,8.98-.71.3-.01.61-.01.91-.01s.61,0,.91.01c7.47.09,14.65,1.41,21.35,3.75.58.2,1.14.41,1.71.62,6.04,2.29,11.67,5.43,16.74,9.26.49.36.96.73,1.43,1.12,7.33,5.84,13.42,13.16,17.81,21.52.29.54.57,1.08.83,1.62,2.04,4.13,3.66,8.5,4.83,13.05.14.59.29,1.18.41,1.78,1.1,4.82,1.68,9.83,1.68,14.97,0,3.06-.2,6.08-.6,9.04-.08.6-.17,1.21-.27,1.8-.84,5.24-2.29,10.28-4.28,15.04Z"/>
      </g>
      <path class="cls-4" d="m1618.06,1333.04c1.15.41,2.42.27,3.47-.36h0c36.78-22.22,87.66-13.87,102.38-10.78h.02c.81.18,1.57-.44,1.57-1.27v-2.87c0-2.2-1.61-4.07-3.78-4.39-7.96-1.19-26.56-3.73-36.96-3.78-.28,0-.56,0-.84,0-23.28,0-43.38,4.17-59.9,12.4-3.37,1.68-7.28,1.92-10.84.67l-4.53-1.59c-2.59-.91-5.43.45-6.34,3.04h0c-.59,1.67.29,3.5,1.96,4.09l13.78,4.84Z"/>
      <path class="cls-4" d="m1652.25,1277.05s1.48-6.7-2.73-7.16c-4.2-.45-19.54,2.84-23.63,2.38-4.09-.45-25.44-3.98-29.19-.34-3.75,3.63-2.16,6.82,5.34,7.5,7.5.68,17.49,1.93,20.33,4.32,2.84,2.39,23.4,9.43,29.87-6.7Z"/>
      <circle class="cls-15" cx="1577.17" cy="1424.6" r="20.45"/>
    </g>
    <path class="cls-21" d="m1505.92,1251.3s-6.69-8.49-10.35-7.44c-6.32,1.83-6.84,7.6-6.68,8.78.15,1.18.08,5.82,2.88,6.81,2.8.99,5.72-.23,7.02-1.31,1.3-1.09,7.13-6.84,7.13-6.84Z"/>
    <path class="cls-21" d="m1494.56,1244.44s.93,5.28,7.33,7.04c6.4,1.69,46.01-14.98,55.43-19.62,5.07-2.53,12.38-16.61,18.01-28.92,1.34-3.03,2.6-5.91,3.73-8.51,2.81-6.54,4.64-11.26,4.64-11.26,0-6.47-7.15-3.95-13.62-.99-1.97.92-12.28-3.44-15.03,1.83-1.27,2.46-2.95,2.18-4.21,4.93-5,11.05-9.57,23.5-10.55,26.46-1.76,5.28-45.74,29.05-45.74,29.05Z"/>
    <path class="cls-23" d="m1510.86,1256.25s-6.66-8.36-10.35-7.44c-8.7,2.18-7.53,8.45-7.38,9.63.15,1.18.77,4.97,3.58,5.96,2.8.99,5.72-.23,7.02-1.31,1.3-1.09,7.13-6.84,7.13-6.84Z"/>
    <path class="cls-23" d="m1587.42,1172.51l-22.59,8.34c-2.89-2.8-5.78-7.26-8.1-11.34-2.88-5.06-4.88-9.54-4.88-9.54l15.79-11.05,4.96-3.47c.32,10.07,14.84,27.06,14.84,27.06Z"/>
    <path class="cls-21" d="m1573.78,1150.91s-4.47,13.95-17.06,18.6c-2.88-5.06-4.88-9.54-4.88-9.54l15.79-11.05,6.15,1.99Z"/>
    <path class="cls-23" d="m1544.69,1159.64s27.94,4.38,30.4-13.06c2.46-17.44,7.72-28.62-10.01-32.16-17.74-3.54-22.15,2.63-24.38,8.25-2.24,5.62-3.21,35.38,3.99,36.97Z"/>
    <path class="cls-15" d="m1581.36,1111.24s-1.27.26-2.29,1.32c0-.01-.01-.02-.01-.02-.07-3.76-3.77-7.56-3.77-7.56,1.77,2.23,1.2,6.35,1.2,6.35-5.26-9-30.88-1.92-33.28-1.32-2.4.6-4.1-3-4.1-3-3.79,3.29-5.24,11.33-2.09,16.58,3.14,5.25,13.34,12.98,16.27,11.51,2.94-1.47,2.94,1.57,2.79,5.84-.15,4.27,7.24,11.44,12.45,12.49,4.2.84,4.53-2.03,5.67-3.87.28-.46.62-.88,1.02-1.23,5.72-5.16,8.87-15.48,7.59-25.64-.51-4.04-2.18-7.43-3.12-9.07.38-.64,1.11-1.85,1.65-2.36Z"/>
    <path class="cls-15" d="m1571.7,1265.65c.28,1.27,3.38,11.68,11.4,14.35,5.21,1.76,17.87,6.05,29.13,6.9,2.6-2.18,4.57-4.57,5.7-7.32,6.47-15.83-4.08-27.58-4.08-27.58,0,0-22.09,5.07-42.15,13.65Z"/>
    <path class="cls-23" d="m1635.16,1228.94s22.64,26.07,1.85,55.39c-20.79,29.31-54.63,52.97-56.5,63.42-3.61,20.23-25.15,62.01-35.42,82.68l-8.79-3.37s16.5-97.96,22.36-109.69c5.86-11.73,36.24-66.62,36.24-66.62l40.26-21.81Z"/>
    <path class="cls-16" d="m1550.59,1187.62c2.18.7,7.46,2.67,8.87,5.07,1.48,2.39,16.96-4.29,18.79-10.55-4.43-4.85-12.03-9.01-16.46-7.6-2.6.77-6.83,6.33-11.19,13.09Z"/>
    <path class="cls-13" d="m1639.72,1236.95s-29.39,20.94-49.03,19.77c0,0-12.9,21.99-15.76,29.25,0,0,33.42,16.71,50.79,13.63,0,0,22.65-21.99,21.33-37.38-1.32-15.39-7.33-25.26-7.33-25.26Z"/>
    <path class="cls-14" d="m1559.1,1197.57l7.05,10.04.56,1.27,14.64,33.42,7.46,17.03c5,1.2,14.28.35,18.44-1.13,22.66-7.74,32.51-21.25,32.51-21.25-13.16-34.41-31.38-57.91-35.11-62.06-6.47-7.04-23.43-12.81-23.43-12.81-4.64,4.79-21.25,13.16-21.25,13.16-3.66,2.88-.85,22.33-.85,22.33Z"/>
    <path class="cls-16" d="m1566.7,1208.87l14.64,33.42c11.12-22.45,4.08-55.02,4.08-55.02,0,0-17.87,15.48-18.51,16.68-.07.21-.21,2.04-.21,4.92Z"/>
    <path class="cls-23" d="m1499.51,1249.39s.93,5.28,7.33,7.04c6.4,1.69,46.01-14.98,55.43-19.62,5.07-2.53,12.38-16.61,18.01-28.92,1.34-3.03,2.6-5.91,3.73-8.51,2.81-6.54,4.64-11.26,4.64-11.26,0-6.47-15.27-15.27-21.74-12.31-1.97.92-4.57,4.92-7.32,10.2-1.27,2.46-2.53,5.14-3.8,7.88-5,11.05-9.57,23.5-10.55,26.46-1.76,5.28-45.74,29.05-45.74,29.05Z"/>
    <path class="cls-14" d="m1555.8,1193.88c5.91,2.67,16.54,7.88,24.49,14,1.34-3.03,2.6-5.91,3.73-8.51,2.81-6.54,4.64-11.26,4.64-11.26,0-6.47-15.27-15.27-21.74-12.31-1.97.92-4.57,4.92-7.32,10.2-1.27,2.46-2.53,5.14-3.8,7.88Z"/>
    <g>
      <path class="cls-12" d="m1548.56,1438.45h-5.26c-1.76-.25-3.07-.7-4.87-.91-2.75-.32-4.01.68-4.26.91-.03.03-.05.05-.05.05h-22.36c-.56-.71-.02-2.36.51-3.57.36-.82,1.13-1.45,2.09-1.69,2.37-.61,7.04-1.15,11.33-4.58,2.41-1.92,11.63-7.08,11.63-7.08h.05c.2,0,1.17.25,5.36,3.39,2.17,1.62,5.86-2.28,5.86-2.28,0,0,.69.51,1.21,1.45.42.75.72,1.77.48,3.04-.33,1.78.74,5.09,1.6,7.33.52,1.36.96,2.32.96,2.32,0,0,.25,1.12-4.28,1.62Z"/>
      <path class="cls-3" d="m1549.79,1424.14c-1.26.78-3.91,2.33-5.67,2.53-2.38.28-6.82-5.09-6.82-5.09h.05c.2,0,1.17.25,5.36,3.39,2.17,1.62,5.86-2.28,5.86-2.28,0,0,.69.51,1.21,1.45Z"/>
      <path class="cls-3" d="m1548.56,1438.45h-5.26c-1.76-.25-3.07-.7-4.87-.91-2.75-.32-4.01.68-4.26.91-.03.03-.05.05-.05.05h-22.36c-.56-.71-.02-2.36.51-3.57.68-.53.87,2.32,1.25,2.77.38.45,18.24.17,19.27-.5,1.03-.66,4.13-1.82,8.44-.91,3.76.79,9.29-1.24,10.66-1.78.52,1.36.96,2.32.96,2.32,0,0,.25,1.12-4.28,1.62Z"/>
    </g>
  </g>
  <g>
    <path class="cls-15" d="m2334.85,1423.46c1.93,0,3.49-1.56,3.49-3.49,0-43.29-35.22-78.52-78.51-78.52-10,0-19.73,1.85-28.93,5.51-1.79.71-2.66,2.74-1.95,4.53.72,1.78,2.73,2.66,4.53,1.95,8.37-3.33,17.24-5.02,26.35-5.02,39.45,0,71.54,32.09,71.54,71.54,0,1.93,1.56,3.49,3.49,3.49Z"/>
    <path class="cls-21" d="m2397.79,1254.17s-5.32,11.07-12.04,26.4c-7.54,17.2-16.85,39.77-22.39,58.12-2.93,9.71-4.81,18.23-4.82,24.16,0,2.03,7.84,10.29,10.1,13.44,14.29,19.89,33.81,46.45,33.81,46.45l5.33-1.34s-7.46-33.22-18.33-49.8c-2.14-3.26-8.16-7.23-7.87-7.59,0,0,0,0,.01-.01.94-1.18,3.28-4.12,6.47-8.33,8.81-11.6,24.11-32.73,34.36-52.39.64-1.23,1.26-2.45,1.85-3.66,5.4-10.97,8.97-21.25,8.62-28.88l-35.1-16.58Z"/>
    <g>
      <path class="cls-24" d="m2412.5,1422.69l-3.67,2.32c-1.35.58-2.48.8-3.85,1.43-2.07.96-2.46,2.3-2.52,2.59,0,.04,0,.06,0,.06l-15.58,9.85c-.75-.31-1.19-1.84-1.42-3.03-.16-.8.07-1.64.62-2.25,1.35-1.52,4.34-4.01,5.61-8.6.72-2.58,4.57-10.7,4.57-10.7l.03-.03c.14-.09.95-.31,5.43.31,2.32.32,2.95-4.38,2.95-4.38,0,0,.74.09,1.57.61.66.4,1.38,1.08,1.85,2.18.66,1.55,3.06,3.68,4.77,5.07,1.04.84,1.83,1.4,1.83,1.4,0,0,.73.77-2.17,3.16Z"/>
      <path class="cls-22" d="m2406.23,1410.88c-.48,1.17-1.56,3.55-2.69,4.49-1.52,1.26-7.28-1-7.28-1l.03-.03c.14-.09.95-.31,5.43.31,2.32.32,2.95-4.38,2.95-4.38,0,0,.74.09,1.57.61Z"/>
      <path class="cls-22" d="m2412.5,1422.69l-3.67,2.32c-1.35.58-2.48.8-3.85,1.43-2.07.96-2.46,2.3-2.52,2.59,0,.04,0,.06,0,.06l-15.58,9.85c-.75-.31-1.19-1.84-1.42-3.03.21-.72,1.76,1.44,2.25,1.64.49.19,12.79-7.91,13.18-8.89.39-.98,1.96-3.26,5.43-4.44,3.01-1.03,5.85-5.07,6.54-6.1,1.04.84,1.83,1.4,1.83,1.4,0,0,.73.77-2.17,3.16Z"/>
    </g>
    <rect class="cls-4" x="2342.01" y="1362.24" width="137.37" height="7.41" transform="translate(375.51 3246.17) rotate(-72.27)"/>
    <polygon class="cls-4" points="2396.82 1432.86 2495.55 1424.27 2312.44 1300.47 2322.92 1321.92 2474.09 1418.71 2396.18 1425.48 2396.82 1432.86"/>
    <polygon class="cls-4" points="2383.51 1427.06 2389.73 1423.05 2313.76 1301.34 2304.91 1310.5 2383.51 1427.06"/>
    <path class="cls-3" d="m2373.14,1409.71l-13.9,8.02c-1.63.94-2.2,3.05-1.25,4.68h0c.94,1.63,3.05,2.2,4.68,1.25l13.9-8.02c1.63-.94,2.2-3.05,1.25-4.68h0c-.94-1.63-3.05-2.2-4.68-1.25Z"/>
    <polygon class="cls-3" points="2370.38 1414.88 2387.91 1434.27 2389.52 1432.87 2372 1413.48 2370.38 1414.88"/>
    <path class="cls-13" d="m2426.81,1348.45c1.04.37,2.2.25,3.14-.33h0c33.31-20.12,79.38-12.56,92.71-9.76h.02c.73.16,1.42-.4,1.42-1.15v-2.6c0-1.99-1.46-3.68-3.43-3.97-7.21-1.07-24.06-3.38-33.47-3.42-.25,0-.51,0-.76,0-21.08,0-39.29,3.77-54.25,11.23-3.05,1.52-6.6,1.74-9.82.61l-4.1-1.44c-2.34-.82-4.91.41-5.74,2.75h0c-.53,1.51.26,3.17,1.78,3.71l12.48,4.39Z"/>
    <path class="cls-3" d="m2457.77,1297.74s1.34-6.07-2.47-6.48c-3.81-.41-17.69,2.57-21.4,2.16-3.7-.41-23.04-3.6-26.44-.31-3.39,3.29-1.95,6.17,4.83,6.79,6.79.62,15.84,1.75,18.41,3.91,2.57,2.16,21.19,8.54,27.05-6.07Z"/>
    <circle class="cls-3" cx="2389.78" cy="1431.36" r="18.52" transform="translate(-312.18 2109.06) rotate(-45)"/>
    <g>
      <g>
        <g>
          <rect class="cls-3" x="2469.6" y="1391.32" width="60.91" height="1.65" transform="translate(345.31 3275.06) rotate(-70.26)"/>
          <polygon class="cls-3" points="2547.32 1447.48 2547.97 1445.97 2489.75 1420.96 2451.49 1366.29 2450.14 1367.24 2488.67 1422.29 2488.89 1422.38 2547.32 1447.48"/>
          <path class="cls-3" d="m2512.3,1484.84l1.56-.52c-.41-1.24-22.92-60.46-23.88-62.98l-.58-1.54-36.27,57.35,1.39.88,34.5-54.57c8.24,21.69,22.96,60.44,23.27,61.38Z"/>
          <rect class="cls-3" x="2488.74" y="1411.13" width="65.55" height="1.65" transform="translate(-202.83 447.8) rotate(-9.76)"/>
          <rect class="cls-3" x="2474.81" y="1358.78" width="1.65" height="59.85" transform="translate(-312.11 854.13) rotate(-18.43)"/>
          <polygon class="cls-3" points="2489.34 1422.48 2489.59 1422.36 2548.84 1392.32 2548.09 1390.86 2489.08 1420.77 2425.58 1410.12 2425.3 1411.74 2489.34 1422.48"/>
          <path class="cls-3" d="m2465.31,1482.78c.35-1.03,15.55-38.45,24.07-59.37l32.88,51.73,1.39-.88-34.59-54.42-.6,1.48c-.99,2.44-24.29,59.7-24.71,60.95l1.56.52Z"/>
          <rect class="cls-3" x="2520.28" y="1394.12" width="1.65" height="64.47" transform="translate(739.29 3710.12) rotate(-81.54)"/>
          <rect class="cls-3" x="2483.22" y="1391.38" width="53.96" height="1.65" transform="translate(-187.01 2374.25) rotate(-49.02)"/>
          <rect class="cls-3" x="2488.8" y="1426.05" width="1.65" height="59.87" transform="translate(-111.55 210.18) rotate(-4.73)"/>
          <rect class="cls-3" x="2429.61" y="1437.06" width="68.6" height="1.65" transform="translate(-380.19 1660.3) rotate(-34.74)"/>
          <polygon class="cls-3" points="2535.95 1465.82 2537.12 1464.66 2490.04 1417.17 2490.04 1355.38 2488.39 1355.38 2488.39 1417.85 2535.95 1465.82"/>
        </g>
        <circle class="cls-15" cx="2489.21" cy="1421.63" r="12.14"/>
      </g>
      <path class="cls-32" d="m2547.3,1380.53c-12.9-18.19-34.13-30.09-58.09-30.09s-45.28,11.95-58.18,30.21c-1.69,2.4-3.24,4.9-4.63,7.51h0c-5.34,9.99-8.37,21.37-8.37,33.46,0,.65,0,1.31.03,1.96.06,2.47.26,4.93.59,7.38,1.22,9.31,4.28,18.3,9.01,26.43,6.16,10.58,14.99,19.44,25.54,25.64,8.38,4.93,17.69,8.06,27.32,9.23.08.02.16.03.25.03,2.79.34,5.61.51,8.44.51s5.73-.17,8.52-.51c.09-.01.18-.02.26-.03,20.32-2.51,38.01-13.61,49.31-29.55,8.25-11.61,13.1-25.79,13.1-41.09s-4.85-29.48-13.1-41.09Zm2.43,50.9c-.54,3.37-1.36,6.64-2.43,9.81-.43,1.29-.91,2.57-1.44,3.82-.21.51-.42,1.01-.65,1.51-2.6,5.82-6.09,11.17-10.3,15.86-.36.41-.73.82-1.11,1.22-3.29,3.5-6.99,6.6-11.02,9.24-.45.31-.91.6-1.38.89-3.06,1.89-6.29,3.52-9.67,4.87-.51.2-1.03.39-1.54.58-5.52,2.02-11.4,3.26-17.52,3.6-.55.03-1.1.06-1.65.07-.6.02-1.2.03-1.81.03-7.66,0-15.22-1.43-22.29-4.19-.51-.2-1.02-.4-1.53-.62-2.47-1.04-4.87-2.24-7.19-3.6-.36-.21-.71-.42-1.06-.65-.47-.28-.93-.57-1.39-.88-6.71-4.37-12.51-10.04-17.04-16.63h0c-.33-.46-.63-.91-.92-1.37-.56-.84-1.09-1.7-1.6-2.57-4-6.86-6.6-14.45-7.69-22.32-.34-2.44-.54-4.9-.57-7.38-.02-.37-.02-.73-.02-1.1,0-3.17.24-6.28.71-9.32.08-.55.17-1.09.27-1.63,1.1-6.07,3.1-11.84,5.86-17.16,1.32-2.55,2.81-5,4.47-7.33,3.91-5.5,8.7-10.33,14.18-14.29.45-.32.9-.63,1.35-.94,3.72-2.54,7.73-4.68,11.98-6.36.5-.2,1.01-.4,1.53-.59,6.29-2.29,13.07-3.58,20.13-3.67.27-.01.55-.01.82-.01s.55,0,.83.01c6.76.09,13.26,1.28,19.33,3.39.52.18,1.04.37,1.55.57,5.47,2.07,10.56,4.91,15.16,8.38.44.33.87.67,1.3,1.01,6.64,5.3,12.15,11.93,16.13,19.49.26.49.51.98.75,1.47,1.17,2.38,2.19,4.84,3.04,7.37.5,1.46.94,2.94,1.32,4.45.14.53.27,1.06.39,1.6.99,4.36,1.51,8.9,1.51,13.56,0,2.77-.18,5.5-.55,8.18-.07.55-.15,1.09-.24,1.63Z"/>
      <path class="cls-24" d="m2549.77,1407.93c-.12-.54-.26-1.07-.4-1.6-.57-2.22-1.26-4.39-2.07-6.51-.71-1.88-1.51-3.71-2.4-5.5-.24-.5-.49-.99-.75-1.47-4.04-7.64-9.61-14.35-16.3-19.71-.43-.35-.86-.69-1.3-1.02-10.19-7.75-22.82-12.46-36.51-12.75-.46-.02-.91-.02-1.37-.02h-.28c-7.18.03-14.08,1.28-20.5,3.54-.52.18-1.03.37-1.54.57-4.38,1.67-8.52,3.82-12.37,6.39-.46.3-.91.61-1.36.93-5.67,3.99-10.65,8.9-14.72,14.51-1.69,2.32-3.22,4.76-4.57,7.31-2.94,5.48-5.08,11.46-6.26,17.76-.11.54-.21,1.09-.29,1.63-.54,3.27-.81,6.63-.81,10.05,0,.28,0,.57,0,.85.03,2.5.21,4.97.53,7.39,1.24,9.45,4.6,18.24,9.58,25.89.3.46.6.91.92,1.36,4.69,6.82,10.7,12.66,17.66,17.17.46.3.93.59,1.4.87,2.73,1.68,5.59,3.14,8.58,4.39.51.21,1.02.41,1.54.61,6.98,2.69,14.56,4.17,22.48,4.17.84,0,1.67-.02,2.5-.05.55-.02,1.1-.05,1.65-.09,6.27-.41,12.29-1.75,17.93-3.88.52-.19,1.03-.39,1.54-.6,3.46-1.41,6.77-3.12,9.89-5.11.46-.29.92-.59,1.38-.9,4.08-2.74,7.83-5.95,11.14-9.55.38-.4.75-.81,1.11-1.22,4.26-4.85,7.77-10.36,10.37-16.35.23-.5.44-1,.64-1.51.17-.4.33-.81.48-1.22,1.54-4.05,2.67-8.29,3.35-12.69.08-.54.16-1.09.23-1.63.32-2.59.49-5.23.49-7.9,0-4.85-.55-9.58-1.6-14.11Zm-1.62,23.27c-.23,1.49-.52,2.96-.85,4.41-.71,3.05-1.65,6.02-2.8,8.87-.21.51-.42,1.01-.64,1.51-2.47,5.69-5.81,10.93-9.83,15.55-.36.41-.73.82-1.11,1.23-3.19,3.47-6.79,6.57-10.72,9.21-.46.31-.92.61-1.38.9-2.97,1.89-6.12,3.52-9.42,4.87-.51.21-1.02.41-1.54.6-5.42,2.05-11.21,3.34-17.25,3.72-.54.05-1.1.08-1.65.09-.76.04-1.52.05-2.29.05-7.59,0-14.85-1.41-21.54-3.99-.51-.19-1.02-.4-1.53-.61-2.85-1.18-5.58-2.58-8.19-4.17-.47-.29-.93-.58-1.39-.88-6.67-4.32-12.43-9.93-16.93-16.47-.32-.45-.62-.91-.92-1.37-4.73-7.29-7.93-15.66-9.14-24.66-.32-2.42-.5-4.89-.52-7.39,0-.21,0-.42,0-.63,0-3.28.26-6.49.77-9.63.09-.55.18-1.09.29-1.63,1.13-5.96,3.14-11.61,5.9-16.81,1.34-2.53,2.86-4.96,4.54-7.26,3.89-5.35,8.65-10.04,14.07-13.86.45-.32.9-.63,1.36-.93,3.65-2.43,7.57-4.47,11.72-6.06.51-.2,1.02-.39,1.54-.57h0c6.17-2.18,12.79-3.38,19.69-3.41h.28c.46,0,.92,0,1.37.02,6.56.14,12.86,1.35,18.75,3.44.52.18,1.03.37,1.54.58,5.25,2.02,10.14,4.77,14.56,8.12.44.32.87.66,1.3,1.01,6.45,5.15,11.81,11.6,15.7,18.94.26.49.51.98.75,1.47,1.77,3.58,3.2,7.36,4.23,11.3.14.53.28,1.06.4,1.6,0,.03.02.07.03.11,1.01,4.36,1.54,8.9,1.54,13.57,0,2.55-.16,5.07-.47,7.53-.07.55-.14,1.09-.22,1.63Z"/>
    </g>
    <g>
      <g>
        <g>
          <rect class="cls-3" x="2237.47" y="1391.32" width="60.91" height="1.65" transform="translate(191.56 3056.54) rotate(-70.26)"/>
          <polygon class="cls-3" points="2315.19 1447.48 2315.84 1445.97 2257.63 1420.96 2219.36 1366.29 2218.01 1367.24 2256.55 1422.29 2256.76 1422.38 2315.19 1447.48"/>
          <path class="cls-3" d="m2280.17,1484.84l1.56-.52c-.41-1.24-22.92-60.46-23.88-62.98l-.58-1.54-36.27,57.35,1.39.88,34.5-54.57c8.24,21.69,22.96,60.44,23.27,61.38Z"/>
          <rect class="cls-3" x="2256.61" y="1411.13" width="65.55" height="1.65" transform="translate(-206.19 408.45) rotate(-9.76)"/>
          <rect class="cls-3" x="2242.69" y="1358.78" width="1.65" height="59.85" transform="translate(-324.02 780.72) rotate(-18.43)"/>
          <polygon class="cls-3" points="2257.22 1422.48 2257.46 1422.36 2316.71 1392.32 2315.96 1390.86 2256.96 1420.77 2193.45 1410.12 2193.17 1411.74 2257.22 1422.48"/>
          <path class="cls-3" d="m2233.18,1482.78c.35-1.03,15.56-38.45,24.07-59.37l32.88,51.73,1.39-.88-34.59-54.42-.6,1.48c-.99,2.44-24.29,59.7-24.71,60.95l1.56.52Z"/>
          <rect class="cls-3" x="2288.15" y="1394.12" width="1.65" height="64.47" transform="translate(541.32 3480.52) rotate(-81.54)"/>
          <rect class="cls-3" x="2251.09" y="1391.38" width="53.96" height="1.65" transform="translate(-266.91 2199.01) rotate(-49.02)"/>
          <rect class="cls-3" x="2256.68" y="1426.05" width="1.65" height="59.87" transform="translate(-112.39 191.15) rotate(-4.73)"/>
          <rect class="cls-3" x="2197.48" y="1437.06" width="68.6" height="1.65" transform="translate(-421.56 1528.01) rotate(-34.74)"/>
          <polygon class="cls-3" points="2303.82 1465.82 2304.99 1464.66 2257.91 1417.17 2257.91 1355.38 2256.26 1355.38 2256.26 1417.85 2303.82 1465.82"/>
        </g>
        <circle class="cls-15" cx="2257.09" cy="1421.63" r="12.14"/>
      </g>
      <path class="cls-11" d="m2294.29,1360.96c-1.85-1.15-3.77-2.21-5.73-3.17-2.99-1.49-6.11-2.77-9.33-3.82-6.97-2.29-14.41-3.53-22.14-3.53-10.62,0-20.7,2.34-29.76,6.53-1.29.59-2.57,1.23-3.82,1.9-22.36,12.02-37.6,35.64-37.6,62.75,0,12.59,3.32,24.95,9.62,35.77,6.16,10.58,14.99,19.44,25.54,25.64.8.47,1.62.93,2.44,1.36,7.73,4.15,16.18,6.81,24.89,7.87.08.02.16.03.25.03,2.79.34,5.61.51,8.44.51s5.73-.17,8.52-.51c.09-.01.18-.02.26-.03,35.12-4.34,62.4-34.36,62.4-70.64,0-25.62-13.61-48.13-33.98-60.66Zm23.31,70.47c-.76,4.75-2.08,9.32-3.88,13.63-.2.51-.42,1.01-.65,1.51-2.6,5.82-6.08,11.17-10.29,15.86-.36.41-.73.82-1.11,1.22-3.29,3.5-6.99,6.61-11.02,9.24-.46.31-.91.6-1.38.89-3.05,1.89-6.29,3.52-9.67,4.87-.5.2-1.01.39-1.53.58-5.51,2.02-11.4,3.26-17.52,3.6-.55.03-1.1.06-1.65.07-.6.02-1.2.03-1.81.03-7.67,0-15.24-1.43-22.3-4.19-.51-.2-1.02-.4-1.52-.62-2.47-1.04-4.87-2.24-7.19-3.6-.36-.21-.71-.42-1.06-.65-.47-.28-.93-.57-1.39-.88-.04-.02-.08-.04-.12-.08-6.67-4.36-12.43-10-16.93-16.55-.33-.45-.64-.91-.92-1.37-.57-.84-1.09-1.7-1.6-2.57-5.42-9.31-8.28-19.96-8.28-30.8,0-3.17.24-6.28.71-9.32.08-.55.17-1.09.27-1.63,2.88-15.89,11.9-29.67,24.51-38.78.45-.32.89-.63,1.35-.94.29-.2.59-.4.89-.59,3.47-2.29,7.18-4.22,11.09-5.77.51-.2,1.03-.4,1.54-.59,6.29-2.29,13.07-3.58,20.12-3.67.28-.01.55-.01.83-.01s.55,0,.82.01c6.15.08,12.08,1.07,17.67,2.84.56.17,1.11.36,1.66.55.52.18,1.04.37,1.55.57,1.97.74,3.89,1.59,5.75,2.52,3.32,1.68,6.47,3.64,9.41,5.86.44.33.87.67,1.3,1.01,6.64,5.3,12.15,11.93,16.13,19.49.26.49.51.98.74,1.48,1.85,3.74,3.32,7.69,4.37,11.81.14.53.27,1.06.39,1.6.99,4.36,1.51,8.9,1.51,13.56,0,2.77-.19,5.5-.55,8.18-.07.55-.15,1.09-.24,1.63Z"/>
      <path class="cls-24" d="m2317.64,1407.93c-.12-.54-.26-1.07-.4-1.6-1.08-4.19-2.58-8.21-4.47-12.01-.24-.5-.49-.99-.75-1.47-4.04-7.64-9.61-14.35-16.3-19.71-.43-.35-.86-.69-1.3-1.02-2.99-2.28-6.19-4.29-9.57-6.01-2.87-1.46-5.86-2.7-8.96-3.71h-.01c-2.33-.76-4.71-1.38-7.15-1.85-3.51-.71-7.13-1.11-10.82-1.18-.46-.02-.91-.02-1.37-.02h-.28c-1.68,0-3.35.08-5,.22-5.38.45-10.58,1.58-15.49,3.32-.52.18-1.04.37-1.55.57-3.76,1.43-7.34,3.21-10.71,5.32-.56.34-1.11.7-1.66,1.07-.46.3-.91.61-1.36.93-13.07,9.21-22.48,23.29-25.55,39.58-.11.54-.21,1.09-.29,1.63-.54,3.27-.81,6.63-.81,10.05,0,12.58,3.72,24.3,10.12,34.13.3.46.61.92.92,1.37,4.7,6.82,10.71,12.66,17.67,17.16.32.21.64.42.96.61.14.1.29.19.43.27,2.73,1.67,5.6,3.14,8.59,4.38.5.21,1.01.41,1.52.61,6.98,2.69,14.57,4.17,22.49,4.17.84,0,1.68-.02,2.51-.05.55-.02,1.1-.05,1.65-.09,6.27-.41,12.29-1.75,17.92-3.88.52-.19,1.03-.39,1.54-.6,3.46-1.41,6.77-3.12,9.89-5.11.46-.29.92-.59,1.38-.9,4.08-2.74,7.83-5.95,11.14-9.55.38-.4.75-.81,1.11-1.22,4.26-4.85,7.77-10.36,10.38-16.35.22-.5.43-1,.63-1.51,1.79-4.41,3.09-9.07,3.83-13.91.08-.54.16-1.09.23-1.63.32-2.59.49-5.23.49-7.9,0-4.85-.55-9.58-1.6-14.11Zm-1.62,23.27c-.72,4.62-1.95,9.07-3.65,13.28-.21.51-.42,1.01-.64,1.51-2.47,5.69-5.81,10.93-9.83,15.55-.36.41-.73.82-1.11,1.23-3.19,3.47-6.79,6.57-10.72,9.21-.46.31-.92.61-1.38.9-2.97,1.89-6.12,3.52-9.42,4.87-.51.21-1.02.41-1.54.6-5.42,2.05-11.21,3.34-17.24,3.72-.54.05-1.1.08-1.65.09-.76.04-1.53.05-2.3.05-7.59,0-14.85-1.41-21.54-3.99-.51-.19-1.02-.4-1.53-.61-2.84-1.18-5.58-2.58-8.18-4.17-.47-.29-.93-.58-1.39-.88-.13-.08-.26-.16-.39-.26-6.51-4.28-12.13-9.8-16.55-16.21-.31-.45-.62-.91-.91-1.37-6.12-9.42-9.68-20.64-9.68-32.68,0-3.28.26-6.49.77-9.63.09-.55.18-1.09.29-1.63,2.97-15.61,11.99-29.1,24.52-37.92.45-.33.9-.64,1.35-.94.07-.05.14-.09.21-.13,3.59-2.38,7.44-4.37,11.51-5.93.51-.2,1.03-.39,1.55-.57,6.17-2.18,12.79-3.38,19.69-3.41h.28c.46,0,.92,0,1.37.02,5.93.13,11.65,1.12,17.04,2.87.58.18,1.14.37,1.71.57.52.18,1.03.37,1.54.58,1.92.74,3.8,1.58,5.62,2.51,3.15,1.61,6.14,3.48,8.94,5.61.44.32.87.66,1.3,1.01,6.45,5.15,11.81,11.6,15.7,18.94.26.49.51.98.75,1.47,1.77,3.58,3.2,7.36,4.23,11.3.14.53.28,1.06.4,1.6,1.03,4.39,1.57,8.97,1.57,13.68,0,2.55-.16,5.07-.47,7.53-.07.55-.14,1.09-.22,1.63Z"/>
    </g>
    <path class="cls-23" d="m2441.35,1254.39s15.06,23.87-3.55,36.99c-18.6,13.13-81.24,19.4-78.17,21.95,9.39,7.79,17.93,19.77,17.48,91.48l-4.64,2.4s-44.67-97.17-41.67-108.75c1.98-7.67,67.13-49.16,110.55-44.07Z"/>
    <path class="cls-13" d="m2405.24,1304.06s37.95-6.29,41.87-19.69c2.92-10.01,3.79-14.09-13.41-46.43,0,0-7.19,13.66-44.7,10.49,0,0,.19,1.77.19,4.17-.05,3.98-.67,9.63-3.79,11.26-.05.05-.14.05-.19.1-4.94,2.25-12.58,6.79-13.73,7.23-.05,0,23.02,4.42,33.76,32.88Z"/>
    <path class="cls-15" d="m2385.4,1263.86c16.72-4.93,33.06-4.42,42.68-13.41-14.18-3.64-31.23,2.15-38.9,2.15-.05,3.98-.67,9.63-3.79,11.26Z"/>
    <g>
      <path class="cls-24" d="m2383.4,1408.3l-3.91,1.88c-1.41.42-2.56.51-3.99.98-2.17.71-2.71,2-2.8,2.28-.01.04-.02.06-.02.06l-16.61,7.98c-.7-.4-.97-1.97-1.06-3.18-.07-.82.26-1.62.87-2.17,1.52-1.36,4.77-3.48,6.57-7.89,1.01-2.48,5.79-10.1,5.79-10.1l.03-.03c.15-.07.97-.19,5.35.94,2.26.58,3.44-4.01,3.44-4.01,0,0,.72.18,1.49.79.61.48,1.25,1.23,1.58,2.38.47,1.62,2.61,4.01,4.15,5.59.94.95,1.65,1.61,1.65,1.61,0,0,.64.85-2.52,2.89Z"/>
      <path class="cls-22" d="m2378.55,1395.84c-.62,1.11-1.97,3.35-3.19,4.15-1.65,1.08-7.12-1.84-7.12-1.84l.03-.03c.15-.07.97-.19,5.35.94,2.26.58,3.44-4.01,3.44-4.01,0,0,.72.18,1.49.79Z"/>
      <path class="cls-22" d="m2383.4,1408.3l-3.91,1.88c-1.41.42-2.56.51-3.99.98-2.17.71-2.71,2-2.8,2.28-.01.04-.02.06-.02.06l-16.61,7.98c-.7-.4-.97-1.97-1.06-3.18.29-.69,1.58,1.64,2.04,1.89.46.25,13.62-6.37,14.12-7.3.5-.93,2.33-3.01,5.9-3.78,3.11-.67,6.4-4.36,7.2-5.3.94.95,1.65,1.61,1.65,1.61,0,0,.64.85-2.52,2.89Z"/>
    </g>
    <path class="cls-13" d="m2288.99,1329.42c1.06-2.66,3.54-4.32,6.22-4.49,30.73-70.59,31.06-71.15,31.52-71.91l4.44,8.8c.24-.38-69.5,156.4-69.5,156.4l-6.86-2.8,34.17-86.01Z"/>
    <path class="cls-3" d="m2362.26,1263.54c1.46-4.91-1.34-10.07-6.25-11.53-4.91-1.46-10.07,1.34-11.53,6.25s1.34,10.07,6.25,11.53c4.91,1.46,10.07-1.34,11.53-6.25Z"/>
    <path class="cls-3" d="m2304.85,1247.31c1.46-4.91-1.34-10.07-6.25-11.53-4.91-1.46-10.07,1.34-11.53,6.25-1.46,4.91,1.34,10.07,6.25,11.53s10.07-1.34,11.53-6.25Z"/>
    <polygon class="cls-3" points="2297.91 1253.54 2351.9 1267.09 2352.84 1256.19 2298.85 1242.64 2297.91 1253.54"/>
    <path class="cls-23" d="m2350.68,1242.78s-5.09,3.33-8.68,3.18c-3.59-.15-8.16,1.35-8.16,1.35,0,0-4.79,1.42-5.24,7.11,0,0,.02,1.65,7.56-.67,1.65-.51,5.62.45,6.96,0,1.35-.45,5.44-4.87,9.01-4.76l-1.45-6.21Z"/>
    <path class="cls-21" d="m2323.49,1236.35s-5.09,3.33-8.68,3.18c-3.59-.15-8.16,1.35-8.16,1.35,0,0-4.79,1.42-5.24,7.11,0,0,.1,2.34,7.56-.67,2.05-.83,5.62.45,6.96,0,1.35-.45,6.29-4.24,9.71-5.18l-2.15-5.79Z"/>
    <path class="cls-15" d="m2387.54,1099.84c7.42,1.34,10.86,5.35,15.57,16.78,4.91,11.93-1.04,22.91-5.77,21.48-3.04-.92-4.1,4.28-4.1,4.28l-28.88-25.23s4.21-18.53,23.18-17.31Z"/>
    <path class="cls-21" d="m2370.63,1168.64s10.06,5.66,8.88,20c-1.18,14.34-14.34,36.94-24.35,42.55-7.92,4.44-30.84,11.38-30.84,11.38l-.82-6.22s18.65-12.18,22.68-16.34c8.66-8.92,16.9-54.84,24.45-51.37Z"/>
    <path class="cls-23" d="m2371.63,1200.88c.46,3.23,1.31,6.01,2.36,8.66.88,2.21,1.89,4.33,2.93,6.53,3.06,6.47,10.25,9.65,10.5,22.08.08,4.28,36.26-13.81,36.47-28.78,0-.04,0-.08.01-.12.06-.73.16-2.67.27-5.24.27-6.28.63-16.31.75-21.38,0-.12,0-.24,0-.35.05-2.17.12-3.75.2-4.16-4.84-20.6-15.98-20.69-19.79-20.63-.5,0-1.01.03-1.52.05-2.09.1-4.07-.9-5.27-2.61-2.13-3.02-4.52-8.23-5.98-15.34l-.87.37-14.6,6.21s1.35,4.72,2.31,9.24c.41,1.93.74,3.82.87,5.29.12,1.41-.7,2.73-2.02,3.24h0s0,0,0,.01c-.26.58-8.97,20.53-6.64,36.92Z"/>
    <path class="cls-21" d="m2373.99,1209.54c.88,2.21,1.89,4.33,2.93,6.53,3.06,6.47,10.25,9.65,10.5,22.08.22.02.44.04.67.06,26.71,2.09,35.81-28.96,35.81-28.96.06-.73.16-2.67.27-5.24l-48.2.08s-.99,2.18-1.99,5.45Z"/>
    <path class="cls-14" d="m2367.21,1194.83c.13.4.29.8.45,1.2,4.63,11.04,14.86,67.83,14.86,67.83.12-.07,41.79,2.73,58.31-20.05.81,2.41-3.1-11.48-9.19-30.14-4.57-14-6.9-23.88-6.72-31.03,0-.12,0-.24,0-.35-1.06-.85-2.1-1.64-3.05-2.39-3.07-2.42-5.35-4.47-5.4-6.99-.02-.99.05-2.01.19-3.03.07-.48.14-.96.24-1.43.97-5.02,3.24-9.51,3.24-9.51-5.25-2.36-14.79-1.43-14.79-1.43,0,0-3.58,8-11.19,12.77-2.13,1.33-9.75,4.68-13.5,1.2-2.48-2.3-2.55-7.02-2.4-7.51,0-.01,0-.01,0-.01-8.64,3.02-11.79,5.71-11.79,5.71,5,3.52-2.85,14.5.73,25.17Z"/>
    <path class="cls-21" d="m2377.11,1146.18s1.35,4.72,2.31,9.24c8.48-2.03,11.35-10.75,12.3-15.44l-14.6,6.21Z"/>
    <path class="cls-23" d="m2375.16,1151.05s20.24-3.89,17.62-16.46c-2.62-12.57-1.77-21.53-14.8-19.58-13.03,1.95-14.54,7.27-14.68,11.68-.15,4.41,6.53,25.05,11.86,24.36Z"/>
    <path class="cls-15" d="m2362.43,1119.58c2.33-4.43,4.86-4.1,6.42-3.24,9.76-8.37,18.74-.9,18.74-.9,3.24,8.73,10.82,12.54,10.82,12.54,0,0-3.2,3.04-12.13,2.64-2.73-.12-5.43-1.48-7.86-3.3,4.63,5.03,10.17,8.2,10.17,8.2-11.1-2.56-18.12-15.79-18.83-17.19-1,1.36-2.92,4.27-3.17,6.78-.33,3.41.59,10.09-1.38,10.27,0,0-6.26-9.15-2.77-15.79Z"/>
    <path class="cls-23" d="m2350.68,1242.78l1.45,6.21s33.96-4.64,45.06-11.1c11.1-6.46,27.91-44.44,29.23-60.5.07-.85.12-1.67.13-2.44.4-13.87-6.42-16.02-6.42-16.02-2.73-1.25-6.13,3.43-9.73,10.75-7.55,15.36-15.98,42.32-20.99,50.3-3.85,6.13-38.74,22.8-38.74,22.8Z"/>
    <path class="cls-14" d="m2410.42,1169.69c9.31-2.2,16.15,5.27,16.15,5.27.4-13.87-6.42-16.02-6.42-16.02-2.73-1.25-6.13,3.43-9.73,10.75Z"/>
    <path class="cls-14" d="m2366.48,1169.66s-3.41,3.16-4.71,10.35c0,0,5.04.03,7.38,4.95,0,0,1.86-14.51-2.67-15.3Z"/>
    <path class="cls-15" d="m2386.14,1104.34s11.19-13.86,25.3-9.97c14.11,3.89,22.14,20.19,28.7,17.51,11.01-4.5,14.06,10.27,9.67,21.02-3.84,9.39-20.43,12.96-30.47,2.68-7.32-7.49-17.38-39.51-29.78-28.81-12.4,10.7-3.41-2.43-3.41-2.43Z"/>
  </g>
  <path class="cls-27" d="m2720.26,1495.37v1.06c0,1.69-1.38,3.08-3.08,3.08H3.09c-1.7,0-3.09-1.39-3.09-3.08v-1.06c0-1.69,1.39-3.08,3.09-3.08h2714.09c1.7,0,3.08,1.39,3.08,3.08Z"/>
  <polygon class="cls-5" points="835.54 1317.54 844.99 1310.21 827.93 1310.2 835.54 1317.54"/>
  <polygon class="cls-5" points="1301.9 1373.48 1308.39 1368.45 1286.86 1368.45 1301.9 1373.48"/>
</svg>