<?xml version="1.0" encoding="UTF-8"?>
<svg id="Layer_2" data-name="Layer 2" xmlns="http://www.w3.org/2000/svg" viewBox="0 0 2604.43 1817.29">
  <defs>
    <style>
      .cls-1, .cls-2 {
        fill: #9bc1f9;
      }

      .cls-3 {
        fill: #f48c7f;
      }

      .cls-4 {
        fill: #f7a491;
      }

      .cls-5 {
        fill: #fff;
      }

      .cls-6 {
        fill: #13375b;
      }

      .cls-7 {
        fill: #fe875e;
      }

      .cls-8 {
        fill: #50bfa5;
      }

      .cls-9 {
        fill: #96d9c9;
      }

      .cls-10 {
        fill: #e0973f;
      }

      .cls-11 {
        fill: #355389;
      }

      .cls-12 {
        fill: #466eb6;
      }

      .cls-13 {
        fill: #f7cc7f;
      }

      .cls-14 {
        fill: #256653;
      }

      .cls-15 {
        fill: #f47458;
      }

      .cls-16 {
        fill: #f8a492;
      }

      .cls-17 {
        fill: #6a97ce;
      }

      .cls-2 {
        opacity: .1;
      }

      .cls-18 {
        fill: #dd513a;
      }

      .cls-19 {
        fill: #3c8f7c;
      }

      .cls-20 {
        fill: #184655;
      }

      .cls-21 {
        fill: #0e2e35;
      }

      .cls-22 {
        fill: #327f6b;
      }
    </style>
  </defs>
  <g id="Layer_1-2" data-name="Layer 1">
    <g>
      <path class="cls-2" d="m223.19,1805.96h2277.47c188.77-157.47,91.63-631.31-66.05-727.37-169.72-103.4,99.78-460.99-161.67-577.06-170.71-75.78-442.21,6.82-405.69-195.94C1917.9,24.43,1325.99-47.6,889.91,28.18c-471.45,81.94-40.92,484.79-559.38,565.96-266.6,41.74-215.08,398.82-190.22,472.61,21.65,64.27,164.89,166.21-34.18,306.59-291.91,205.85,110.18,428.84,117.06,432.62Z"/>
      <g>
        <g>
          <path class="cls-14" d="m2246.17,603.28s-37.28,81.17-62.37,115.45c-25.09,34.29-48.99,67.07-69.01,162.23-20.02,95.16-16.59,104.72-22.06,129.3-5.48,24.58-41.14,124.16-41.34,142.42-.21,18.26-72.06,122.21-90.47,170.86-18.41,48.65-51.01,118.15-49.18,153.54l8.19-2.08s6.68-82.5,63.48-165.88c56.8-83.38,48.68-99.12,113.18-141.96,64.51-42.83,106.17-161.16,106.17-161.16,0,0,65.62-128.52,62.56-195.33-3.05-66.81,14.37-127.07-19.15-207.4Z"/>
          <path class="cls-14" d="m2158.86,478.44s-2.17,53.32-19.37,84.99c-17.2,31.67-32.01,50.91-35.13,85.18-3.12,34.27-13.92,122.61-61.88,165.74-47.96,43.13-54.08,172.36-90.59,211.46-36.5,39.09-41.27,67.19-34.53,134.24,6.74,67.05,29.64,159.97-23.31,281.26l-11.97-30.17s37.88-99.78,28.71-158.21c-9.17-58.43-41.09-146.71-29.4-189.05,11.68-42.34-31.75-50.61-5.6-114.65,26.15-64.04,15.41-86.29,51.02-141.66,0,0,3.65-2.59,13.01-49.44,9.36-46.85,84.83-132.71,119.61-162.01,34.78-29.3,84.9-76.26,99.44-117.69Z"/>
          <path class="cls-19" d="m2017.21,742.43s-41.65,71.3-42.24,117.2c-.59,45.89,4.38,83.22-16.69,146.07-21.07,62.85,20.75,102.58,8.7,137.28-12.05,34.7-12.99,75.78-12.62,106.93.37,31.15-47.7,134.26-55.02,186.46-7.32,52.2,2.03,52.38,2.03,52.38,0,0,7.97-68.92,19.03-91.71,11.06-22.79,44.69-101.36,52.55-131.76,7.86-30.4,29.15-49.91,47.52-101.4,18.37-51.48,44.49-94.85,42.49-167.9-1.99-73.06,27.41-150.16-45.76-253.54Z"/>
          <path class="cls-19" d="m1929.03,1440.9s19.42-90.49,101.32-99.53c81.9-9.04,130,7.16,187.86-58.96,57.85-66.11,91.46-171.03,109.94-189.09,0,0-29.07-14.95-77.4,30.23-48.33,45.18-82.27,79.45-110.25,105.76-27.98,26.31-50.7,9.15-80.24,26.5-24.75,14.54-56.77,56.54-70.87,78.54-4.58,7.15-10.01,13.7-16.25,19.46-5.67,5.24-12.43,11.65-16.77,16.38-8.67,9.45-33.68,71.03-33.68,71.03l6.33-.32Z"/>
          <path class="cls-19" d="m1900.17,1424.94s28.86-110.67,9.53-164.82c-19.33-54.16-79.85-94.23-77.42-128.25,2.43-34.02,41.29-125.97,9.61-194.42,0,0-12.04,61.06-23.91,74.65-11.88,13.58-93.37,68.36-78.92,140.7,14.45,72.34,93.67,89.25,113.19,110.55,19.51,21.3,45.85,21.27,46.02,35.43.17,14.16,5.31,65.65-3.44,116.46l5.35,9.71Z"/>
          <path class="cls-22" d="m1931.73,1350.87l40.55-116.8s23.82-93.94,37.63-172.28c13.81-78.34,7.3-319.37,7.3-319.37,0,0-41.65,71.3-42.24,117.2-.59,45.89,4.38,83.22-16.69,146.07-21.07,62.85,20.75,102.58,8.7,137.28-12.05,34.7-12.99,75.78-12.62,106.93.37,31.15-47.71,134.26-55.02,186.46-4.01,28.6-3.01,41.56-1.29,47.46-6.5-45.66,33.69-132.95,33.69-132.95Z"/>
          <path class="cls-22" d="m2131.45,1281.3c-36.17,7.22-68.51,4.76-111.45,36.72-42.94,31.96-68.19,66.09-68.19,66.09,0,0-19.3,34.5-27.28,52.68-1.15,2.78-1.82,4.44-1.82,4.44l6.33-.32s19.42-90.49,101.32-99.53c81.9-9.04,130,7.16,187.86-58.96,57.85-66.11,91.46-171.03,109.94-189.09,0,0-61.54,47.87-99.56,90.24-38.02,42.37-60.97,90.51-97.14,97.73Z"/>
          <path class="cls-22" d="m1817.98,1012.08c-11.88,13.58-93.37,68.36-78.92,140.7,14.45,72.34,93.67,89.25,113.19,110.55,19.51,21.3,45.85,21.27,46.02,35.43.17,14.16,5.31,65.65-3.44,116.46l2.34,4.24c4.27-19.83,10.21-50.02,12.15-72.95,3.15-37.24-2.89-52.65-14.85-82.82-11.97-30.17-86.34-91.61-104.97-123.91-18.63-32.3,35.93-86.3,48.05-112.37,12.11-26.07,4.37-89.98,4.37-89.98,0,0-12.04,61.06-23.91,74.65Z"/>
        </g>
        <g>
          <path class="cls-8" d="m2011.3,1371.47l12.73-30.77c9.88-22.63,35.15-33.43,56.46-24.14h0c53.68,23.43,77.02,88.66,52.13,145.68l-18.2,41.69c-7.97,18.26-5.2,38.36,5.55,52.52,9.76,12.87,11.36,30.76,4.59,46.27l-9.59,21.98c-10.39,23.8-30.6,41.42-54.57,48.69-14.02,4.25-26.4,14.77-32.95,29.77l-13.59,31.12c-15.02,34.41-53.45,50.84-85.84,36.7l-18.48-8.07c-32.39-14.14-46.47-53.49-31.45-87.9h0c24.29-41.14,22.35-71.84,13.74-92.67-12.65-30.62-12.51-65.85,1.18-97.21l1.92-4.4c14.45-33.1,42.35-57.81,75.58-68.39,14.67-4.67,29.96-16.08,40.78-40.88Z"/>
          <path class="cls-9" d="m1782.08,1805.96c26.05-33.78,168.9-214.72,262.04-244.88,102.81-33.28,5.91,98.91,5.91,98.91,0,0,182.39-199.44,249.32-181.46,61.35,16.48,0,140.1,0,140.1,0,0,69.1-68.45,152.9-68.45s-56.98,242.78-64.45,255.78h-605.73Z"/>
          <g>
            <path class="cls-19" d="m2331.75,1414.52c-74.52,116.38-128.91,245.67-160,383.02l-5.11-1.37c30.97-134.48,84.99-263.54,159.39-379.79,17.29-27.02,35.96-59.07,68.33-69.61.62-.2.86.75.27.97-29.57,11.14-46.7,41.52-62.87,66.78Z"/>
            <path class="cls-19" d="m2189.71,1802.37c83.27-113.24,184.51-217.91,304.89-308.92,1.2-.91,2.82,1.19,1.61,2.12-114.17,87.76-215.18,191.39-300.17,308.51l-6.33-1.7Z"/>
            <path class="cls-19" d="m2338.56,1342.35c1.92,2.82,9.26,10.18,11.42,19.85,2.9,9.17.61,20.65.36,20.25-.55.23,8.5-7.42,11.32-19.59,3.66-11.67,1.1-27.87-3.46-33.23-7.86-12.13-21.6-13.36-24.27-7.48-2.83,5.84.76,13.79,4.62,20.21Z"/>
            <path class="cls-19" d="m2356.39,1446.23c-2.78-1.97-10-9.46-19.62-11.81-9.11-3.08-20.63-1.02-20.24-.76-.24.55,7.59-8.35,19.81-10.94,11.74-3.43,27.88-.55,33.16,4.11,11.97,8.1,12.93,21.86,7,24.41-5.9,2.72-13.77-1.03-20.11-5.01Z"/>
            <path class="cls-19" d="m2329.48,1491.76c-2.78-1.97-9.99-9.46-19.62-11.81-9.11-3.08-20.63-1.02-20.24-.76-.24.55,7.59-8.35,19.81-10.94,11.74-3.43,27.88-.55,33.16,4.11,11.97,8.1,12.93,21.86,7,24.41-5.9,2.72-13.77-1.03-20.11-5.01Z"/>
            <path class="cls-19" d="m2425.45,1597.37c-2.78-1.97-9.99-9.46-19.62-11.81-9.11-3.08-20.63-1.02-20.24-.76-.24.55,7.59-8.35,19.81-10.94,11.74-3.43,27.88-.55,33.16,4.11,11.97,8.1,12.93,21.86,7,24.41-5.9,2.72-13.77-1.03-20.11-5.01Z"/>
            <path class="cls-19" d="m2474.48,1554.18c-2.78-1.97-10-9.46-19.62-11.81-9.11-3.08-20.63-1.02-20.24-.76-.24.55,7.59-8.35,19.81-10.94,11.74-3.43,27.88-.55,33.16,4.11,11.97,8.1,12.93,21.86,7,24.41-5.89,2.72-13.77-1.03-20.11-5.01Z"/>
            <path class="cls-19" d="m2300.91,1393.87c2.34,2.48,10.75,8.59,14.41,17.8,4.31,8.6,3.86,20.3,3.55,19.94-.51.31,7.22-8.67,8.09-21.13,1.77-12.1-3.31-27.69-8.65-32.27-9.68-10.74-23.44-9.78-25.15-3.56-1.88,6.21,2.92,13.5,7.75,19.23Z"/>
            <path class="cls-19" d="m2261.35,1445.5c3.33,1.77,14.96,4.97,20.81,13.67,6.62,7.75,7.46,20.99,7.02,20.73-.62.57,8.29-12.78,7.91-27.07.82-14.27-7.65-29.48-15.12-32.3-13.83-7.82-31.53-.85-32.98,6.84-1.67,7.74,5.43,13.81,12.36,18.13Z"/>
            <path class="cls-19" d="m2219.71,1523.71c3.58,1.18,15.58,2.38,22.81,9.98,7.83,6.52,10.89,19.44,10.41,19.25-.52.67,6.02-13.99,3.24-28.01-1.59-14.21-12.5-27.77-20.34-29.29-14.95-5.38-31.22,4.47-31.36,12.29-.35,7.91,7.67,12.7,15.24,15.79Z"/>
            <path class="cls-19" d="m2342.93,1578.19c2.61,1.63,11.89,4.89,16.15,12.31,4.94,6.68,4.88,17.5,4.53,17.26-.54.43,7.47-9.92,7.97-21.57,1.48-11.56-4.54-24.42-10.46-27.13-10.81-7.15-25.6-2.48-27.22,3.68-1.8,6.2,3.63,11.54,9.03,15.45Z"/>
            <path class="cls-19" d="m2407.07,1360.66c-1.56-1.29-5.5-6.03-11.09-7.84-5.26-2.22-12.16-1.5-11.94-1.34-.17.31,4.85-4.61,12.2-5.6,7.1-1.51,16.52.9,19.43,3.88,6.73,5.32,6.69,13.5,3.07,14.75-3.61,1.35-8.1-1.21-11.68-3.85Z"/>
            <path class="cls-19" d="m2392.13,1327.42c.07,2.02,1.42,8.04-.56,13.57-1.45,5.52-6.23,10.55-6.23,10.27-.35-.06,6.61-1.03,11.88-6.24,5.53-4.7,9.38-13.63,8.79-17.76-.1-8.57-6.61-13.54-9.81-11.43-3.27,2.03-3.99,7.16-4.08,11.6Z"/>
            <path class="cls-19" d="m2509.78,1510.18c-1.56-1.29-5.5-6.03-11.09-7.84-5.26-2.22-12.16-1.5-11.94-1.34-.16.31,4.86-4.61,12.2-5.6,7.1-1.51,16.52.9,19.43,3.88,6.73,5.32,6.69,13.5,3.07,14.75-3.61,1.35-8.1-1.21-11.68-3.85Z"/>
            <path class="cls-19" d="m2491.76,1476.66c.23,2.01,2.08,7.89.56,13.57-.99,5.62-5.35,11.03-5.37,10.75-.35-.03,6.51-1.57,11.33-7.19,5.13-5.13,8.23-14.35,7.31-18.42-.81-8.54-7.69-12.95-10.71-10.59-3.09,2.29-3.39,7.46-3.12,11.89Z"/>
          </g>
          <g>
            <path class="cls-19" d="m2479.22,1693.28c-76.09,8.34-146.96,41.93-215.19,74.68-46.01,22.09-43.69,28.38-53.06,31.67-1.52.53-3.04-1.12-2.3-2.58,3.61-7.14,13.06-11.97,19.63-16.08,7.66-4.78,15.65-9.01,23.77-12.95,17.37-8.43,35.18-16.02,52.88-23.71,36.01-15.65,72.6-30.36,110.65-40.33,20.86-5.46,42.08-9.4,63.56-11.33.4-.04.45.58.05.62h0Z"/>
            <path class="cls-19" d="m2410.63,1669.68c.5,3.12,3.75,12.19,1.74,21.14-1.19,8.83-7.64,17.55-7.68,17.12-.55-.03,10.05-2.87,17.22-11.96,7.67-8.34,11.91-22.92,10.21-29.21-1.81-13.27-12.84-19.72-17.39-15.84-4.68,3.78-4.8,11.86-4.1,18.76Z"/>
            <path class="cls-19" d="m2343.6,1693.69c.5,3.12,3.75,12.19,1.74,21.14-1.19,8.83-7.64,17.55-7.68,17.12-.55-.03,10.05-2.87,17.22-11.96,7.67-8.34,11.91-22.92,10.21-29.22-1.81-13.27-12.84-19.72-17.39-15.84-4.68,3.78-4.8,11.86-4.1,18.76Z"/>
            <path class="cls-19" d="m2275.49,1724.05c.5,3.12,3.75,12.19,1.74,21.14-1.19,8.83-7.64,17.55-7.68,17.12-.55-.03,10.05-2.87,17.22-11.96,7.67-8.34,11.91-22.92,10.21-29.22-1.81-13.27-12.84-19.72-17.39-15.84-4.68,3.78-4.8,11.86-4.1,18.76Z"/>
            <path class="cls-19" d="m2430.65,1732.32c-1.38-2.58-4.04-11.07-10.51-16.55-5.8-5.84-15.42-8.67-15.21-8.32-.39.33,9.01-3.49,19.36-.8,10.31,1.86,21.57,10.24,23.83,15.83,6.07,10.78,1.54,21.69-3.98,21.38-5.56-.17-10.16-6.06-13.49-11.53Z"/>
            <path class="cls-19" d="m2360.92,1757c-1.38-2.58-4.04-11.07-10.52-16.55-5.8-5.84-15.42-8.67-15.21-8.32-.39.33,9.01-3.49,19.36-.8,10.31,1.86,21.57,10.24,23.83,15.83,6.07,10.79,1.54,21.69-3.98,21.38-5.55-.17-10.16-6.06-13.49-11.53Z"/>
            <path class="cls-19" d="m2483.75,1706.91c-1.2-1.44-4-6.42-8.79-9-4.42-2.9-10.83-3.41-10.65-3.22-.2.26,5.2-3.38,12.05-3.06,6.72-.19,14.9,3.58,17.06,6.79,5.24,5.97,3.84,13.42.33,13.95-3.51.62-7.18-2.46-10-5.46Z"/>
            <path class="cls-19" d="m2475.7,1674.13c-.28,1.85-.05,7.56-2.78,12.27-2.25,4.78-7.45,8.57-7.4,8.32-.31-.11,6.2.17,11.87-3.7,5.83-3.35,10.82-10.85,10.98-14.71,1.34-7.83-3.75-13.44-7.02-12.06-3.32,1.3-4.83,5.85-5.66,9.88Z"/>
          </g>
        </g>
      </g>
      <g>
        <path class="cls-19" d="m515.92,1228.04c-89.41-79.73-135.39-194.22-158.21-276.24-24.78-89.03-28.39-160.09-28.42-160.8l-4.86-.3c.03.71,3.66,72.29,28.59,161.92,23.03,82.82,69.49,198.5,160.01,279.21l2.89-3.79Z"/>
        <path class="cls-19" d="m339.48,770.39c4.41,20.5.72,39.87-8.68,53.85-14.73-10.85-26.32-28.22-30.73-48.72-4.41-20.5-.72-39.86,8.68-53.85,14.73,10.85,26.32,28.22,30.73,48.72Z"/>
        <path class="cls-19" d="m312.05,828.77c15.41,14.33,24.41,33.16,26.16,51.29-16.91.77-35.52-6.09-50.92-20.43-15.4-14.33-24.41-33.16-26.15-51.29,16.91-.77,35.52,6.09,50.92,20.43Z"/>
        <path class="cls-19" d="m304.83,890.1c19.14,6.01,34.84,19.34,44.14,35.53-13.89,8.92-32.51,11.49-51.65,5.48-19.14-6.01-34.84-19.34-44.14-35.53,13.89-8.92,32.51-11.49,51.65-5.48Z"/>
        <path class="cls-19" d="m334.31,963.88c15.16,4.78,27.29,17.02,34.16,32.47-11.5,9.66-26.55,13.32-41.72,8.54-15.16-4.78-27.29-17.02-34.16-32.47,11.5-9.66,26.55-13.32,41.72-8.54Z"/>
        <path class="cls-19" d="m360.2,858.58c11.93-12.01,27.74-17.14,43.04-15.49.85,16.19-4.74,32.61-16.67,44.62-11.93,12.01-27.74,17.14-43.04,15.49-.85-16.19,4.74-32.61,16.67-44.62Z"/>
        <path class="cls-19" d="m374.04,911.46c11.93-12.01,27.74-17.14,43.04-15.49.85,16.19-4.74,32.61-16.67,44.62-11.93,12.01-27.74,17.14-43.04,15.49-.85-16.19,4.74-32.6,16.67-44.62Z"/>
      </g>
      <g>
        <path class="cls-8" d="m462.04,1336.16c-82.57-12.04-153.23-60.95-197.97-99.87-48.57-42.25-77.93-82.17-78.22-82.57l-2.94,1.69c.29.4,29.87,40.62,78.75,83.16,45.17,39.31,116.56,88.72,200.16,100.9l.22-3.31Z"/>
        <path class="cls-8" d="m183.86,1137.84c10.43,10.23,15.71,22.9,15.62,34.63-12.73-.65-26.13-6.31-36.56-16.53-10.43-10.23-15.71-22.9-15.62-34.63,12.73.65,26.13,6.31,36.56,16.53Z"/>
        <path class="cls-8" d="m190.32,1182.3c14.46,2.42,26.91,9.91,34.88,19.78-9.54,6.94-22.98,10.09-37.44,7.67-14.45-2.42-26.91-9.91-34.88-19.78,9.54-6.94,22.98-10.09,37.44-7.67Z"/>
        <path class="cls-8" d="m209.65,1220.72c13.43-3.85,27.68-2.13,39.29,3.72-4.65,10.52-14.49,19.15-27.92,23.01-13.43,3.85-27.68,2.13-39.29-3.72,4.65-10.52,14.49-19.15,27.92-23.01Z"/>
        <path class="cls-8" d="m255.1,1252.3c10.65-3.04,22.39-.58,32.31,5.77-2.98,10.03-10.32,17.93-20.97,20.97-10.65,3.04-22.39.58-32.31-5.77,2.98-10.03,10.32-17.93,20.97-20.97Z"/>
        <path class="cls-8" d="m229.75,1181.15c2.33-11.56,9.55-20.61,19.07-25.52,6.71,9.09,9.76,20.77,7.43,32.33-2.33,11.56-9.55,20.61-19.08,25.52-6.71-9.09-9.76-20.77-7.43-32.34Z"/>
        <path class="cls-8" d="m258.08,1206.58c2.33-11.56,9.55-20.61,19.08-25.52,6.71,9.09,9.76,20.77,7.43,32.33-2.33,11.56-9.55,20.61-19.08,25.52-6.71-9.09-9.76-20.77-7.43-32.33Z"/>
      </g>
      <g>
        <path class="cls-9" d="m511.76,1583.29c-95.24,36.16-200.09,17.06-271.27-5.33-77.27-24.3-132.68-57.63-133.23-57.96l-2.11,4.03c.55.34,56.37,33.92,134.15,58.4,71.88,22.62,177.8,41.9,274.23,5.3l-1.77-4.44Z"/>
        <path class="cls-9" d="m95.53,1500.65c17.29,6.71,30.58,19.82,37.57,35.09-13.95,7.13-31.65,8.2-48.94,1.49-17.29-6.72-30.58-19.82-37.57-35.09,13.95-7.13,31.65-8.2,48.94-1.49Z"/>
        <path class="cls-9" d="m129.27,1554.21c16.86-5.92,34.66-4.03,49.12,3.76-5.97,14.97-18.39,27.48-35.26,33.4-16.86,5.92-34.66,4.03-49.12-3.76,5.97-14.96,18.39-27.48,35.26-33.4Z"/>
        <path class="cls-9" d="m173.09,1591.89c11.98-13.41,28.2-20.1,44.11-19.81,1.4,16.55-3.86,33.9-15.85,47.31-11.98,13.42-28.2,20.11-44.11,19.81-1.4-16.54,3.86-33.9,15.85-47.31Z"/>
        <path class="cls-9" d="m234.4,1611.34c11.98-13.42,28.2-20.11,44.11-19.81,1.4,16.55-3.86,33.9-15.85,47.31-11.98,13.42-28.2,20.11-44.11,19.81-1.4-16.54,3.86-33.9,15.85-47.31Z"/>
        <path class="cls-9" d="m176.72,1548.49c-10.55-13.73-15.25-30.28-14.13-45.29,13.89,1.62,28.09,9.69,38.63,23.42,10.55,13.73,15.25,30.28,14.13,45.29-13.89-1.62-28.09-9.69-38.63-23.42Z"/>
        <path class="cls-9" d="m240.41,1568.42c-10.74-13.57-15.7-30.07-14.83-45.12,13.88,1.38,28.18,9.21,38.93,22.78,10.74,13.57,15.7,30.07,14.83,45.12-13.89-1.38-28.18-9.21-38.93-22.78Z"/>
        <path class="cls-9" d="m314.97,1616.67c2.82-7.15,8.41-12.12,14.97-14.17,3.15,6.61,3.69,14.46.88,21.61-2.82,7.15-8.41,12.12-14.97,14.17-3.15-6.61-3.69-14.46-.88-21.61Z"/>
      </g>
      <path class="cls-19" d="m716.18,1798.98s121.35-479.93,81.11-528.16c-55.61-66.65-101.49,154.44-105.99,135.66-42.51-177.34-53.83-404.25-190.97-428.27-77.95-13.65,18.01,168.73,12.23,218.06-5.77,49.33-146.25-114.45-231.62-200.25-85.37-85.8-129.46-31.48-75.52,76.41,52.16,104.33,220.89,218.34,186.11,231.87s-245.93-121.2-271.79-63.61c-31.7,70.62,285.03,166.72,255.21,182.59-29.83,15.86-181.21-36.38-177.07,17.62,4.14,54,207.63,51.99,204.16,75.74-5.63,38.46-140.23-48.59-146.14,4.62-6.05,54.43,177.07,44.5,173.9,86.96-1.82,24.4-41.12-12.4-46.91,21.39-13.2,77.06,228.2,170.92,228.2,170.92l105.09-1.56Z"/>
      <g>
        <path class="cls-8" d="m808.71,1801.91s-115.49-177.07-171.06-210.5c-59.21-35.62-14.13,71.03-14.13,71.03,0,0-121.01-143.99-154.64-114.73-33.64,29.26-3.11,63.14-3.11,63.14,0,0-108.64-32.19-128.16,7.68-30,61.27,148.85,112.08,148.85,112.08,0,0-76.78-.81-62.65,40.56,21.3,62.39,384.91,30.75,384.91,30.75Z"/>
        <path class="cls-9" d="m337.6,1618.52c19.53-39.88,128.16-7.68,128.16-7.68,0,0-30.53-33.88,3.11-63.14,33.64-29.26,130.44,58.32,130.44,58.32,0,0-10.15-72.22,62.75-8.6,52.06,45.44,146.66,204.49,146.66,204.49l-471.11-183.39Z"/>
      </g>
      <g>
        <path class="cls-9" d="m668.52,1357.32l5.18-3.54c-94.03-142.41-122.73-311.47-130.25-428.23-8.16-126.7,6.16-220.88,6.31-221.81l-6.42-1.87c-.15.94-14.58,95.75-6.39,223.2,7.57,117.75,36.54,288.32,131.57,432.24Z"/>
        <path class="cls-9" d="m568.27,681.56c.21,28.61-9.72,52.26-25.56,66.45-16.09-20.46-26.38-48.08-26.59-76.69-.2-28.61,9.72-52.26,25.56-66.45,16.09,20.46,26.38,48.08,26.59,76.69Z"/>
        <path class="cls-9" d="m517.34,745.86c16.03,25.29,22.61,53.69,20.01,78.06-22-6.26-44.15-23.19-60.17-48.48-16.03-25.29-22.61-53.69-20.01-78.06,22,6.26,44.15,23.19,60.17,48.48Z"/>
        <path class="cls-9" d="m491.65,822.68c23.07,16.05,39.74,40.16,47.39,65.26-20.29,5.66-44.96,1.02-68.03-15.03-23.07-16.05-39.74-40.16-47.39-65.26,20.29-5.66,44.96-1.02,68.03,15.03Z"/>
        <path class="cls-9" d="m521.74,956.8c10.06,6,17.7,15.63,21.63,25.98-8.26,3.08-18.65,1.94-28.71-4.06-10.06-6-17.7-15.63-21.63-25.98,8.26-3.08,18.65-1.94,28.71,4.06Z"/>
        <path class="cls-9" d="m529.91,1006.48c10.06,6,17.7,15.63,21.63,25.98-8.26,3.08-18.65,1.94-28.71-4.06-10.06-6-17.7-15.63-21.63-25.98,8.26-3.08,18.65-1.94,28.71,4.06Z"/>
        <path class="cls-9" d="m571.44,805.38c18.59-10.53,40.33-10.42,59.61-1.71-3.23,21.47-14.81,40.46-33.4,50.99-18.59,10.53-40.33,10.42-59.61,1.71,3.23-21.47,14.81-40.46,33.4-50.99Z"/>
        <path class="cls-9" d="m575.15,880.22c18.59-10.53,40.33-10.42,59.61-1.71-3.23,21.47-14.81,40.46-33.4,50.99-18.59,10.53-40.33,10.42-59.61,1.71,3.23-21.47,14.81-40.46,33.4-50.99Z"/>
        <path class="cls-9" d="m571.46,987.34c12.1-6.86,26.25-6.78,38.8-1.11-2.1,13.97-9.64,26.33-21.74,33.19-12.1,6.86-26.25,6.78-38.8,1.11,2.1-13.97,9.64-26.33,21.74-33.19Z"/>
      </g>
      <g>
        <path class="cls-16" d="m1898.27,1409.63c10.93,1.77,10.28,3.55,11.69,3.74,1.66.22,21.38-9.68,21.38-9.68,0,0,58.33-28.79,61.42-30.46l42.1-52.97,32.44,14.96s-47.35,56.31-50.34,58.79c-3,2.48-86.63,31.81-93.9,34.63,0,0-7.33,6.7-12.08,10.75-4.75,4.05-11.09,5.65-12.6,6.57-.22.14-5.46,2.9-12.85,4.51-6.37,1.39-1.06-2.94-1.06-2.94,0,0,11.27-4.76,10.72-5.62-.43-.66-6.42,2.31-13.45,3.92-1.81.41-3.59.82-5.24,1.17-4.32.93-6.21-1.54-1.88-3.26,1.53-.61,4.1-1.55,6.04-1.95,2.09-.44,3.85-1.53,5.54-2.18,3.36-1.28,5.83-2.17,5.7-2.28-.17-.15.3-.89-1.63-.52-2.33.45-7.02,2.55-10.5,2.94-1.97.22-6.06.95-6.06.95,0,0-7.24.69-7.29-.32-.11-2.22,4.35-3.46,7.08-3.4,1.72-.88,6.05-1.52,6.05-1.52,0,0,8.39-3.31,7.91-4.55-.19-.5-5.28.27-10.67.64-5.7.39-9.83.39-10.13-.71-.48-1.75,4.05-2.42,4.05-2.42,0,0,4-.58,5.31-.88,1.54-.35,6.04-1.76,6.04-1.76,0,0,15.44-5.67,14.88-6.81-.56-1.14-3.11-3.52-4.2-3.52-1.09,0-3.03,1.09-4.12,1.1-1.09,0-3.43-.2-3.59-1.57-.16-1.37,5.88-4.21,5.88-4.21,0,0,4.21-1.67,7.37-1.16Z"/>
        <path class="cls-11" d="m2005.56,1353.08s10.5,9.54,14.87,12.68c3.63,2.61,21.33,11.13,21.33,11.13,0,0,17.61-26.96,25.31-40.48,9.34-16.4,15.81-40.8,13.6-41.46-6.2-1.86-14.72-2.99-22.59.62-27.24,12.5-52.51,57.5-52.51,57.5Z"/>
        <path class="cls-7" d="m1908.48,1423.72c-4.67.74-9.45-.15-11.52-4.43-.47,5.08,7.22,7.59,11.52,4.43Z"/>
      </g>
      <path class="cls-6" d="m603.04,1234.6c.65-15.7-1.65-31.21-8.65-45.82-6.02-12.58-20.91-19.71-34.49-19.73-43.12-.06-48.6,57.16-76.05,79.23-8.39,6.74-17.76,12.24-25.7,19.51-29.31,26.85-16.11,76.57,10.8,100.11,18.67,16.34,48.02,25.62,71.04,12.85,12.01-6.67,21.13-17.75,27.63-29.89,9.22-17.23,15.17-37.12,21.72-55.48,6.98-19.55,12.83-39.9,13.69-60.77Z"/>
      <path class="cls-13" d="m610.09,1310.63c-13.47-40.86-31.25-40.22-31.25-40.22l14.37,87c8.32-2.27,19.15-7.34,27.46-9.68-2.75-12.92-7.25-27.04-10.57-37.1Z"/>
      <path class="cls-3" d="m678.16,1449.98l-49.24-37.56s-4.95-35.04-11.59-66.14c-8.31,2.35-15.81,8.86-24.12,11.14l12.52,69.64,64.54,33.29,18.23,23.43,4.15-24.05-14.48-9.75Z"/>
      <path class="cls-15" d="m1127,1391.31c15.29,0,29.64,4.03,42.04,11.08,1.57.89,3.27,1.71,5.08,2.45,37.84,15.54,79.24-13.24,79.24-54.15v-201.17h-201.17c-40.91,0-69.69-41.4-54.15-79.24.74-1.81,1.56-3.51,2.45-5.08,7.05-12.41,11.08-26.75,11.08-42.04,0-48.45-40.4-87.47-89.35-85.2-44.3,2.05-79.97,38.44-81.21,82.77-.44,15.77,3.4,30.6,10.45,43.42.88,1.6,1.68,3.33,2.42,5.17,15.41,38.46-13.83,80.21-55.26,80.21h-199.44v458.39c0,108.13,87.66,195.79,195.79,195.79h458.39v-200.5c0-41.11-41.54-70.07-79.61-54.58-1.82.74-3.53,1.55-5.1,2.43-13.56,7.61-29.42,11.62-46.28,10.73-43.43-2.3-78.52-37.59-80.57-81.04-2.31-48.99,36.72-89.43,85.2-89.43Z"/>
      <path class="cls-13" d="m1563.02,1279.72c.71-15.27,5.41-29.42,13.03-41.48.96-1.52,1.86-3.19,2.68-4.96,17.29-37.07-9.53-79.77-50.39-81.68l-200.96-9.39-9.39,200.95c-1.91,40.86-44.61,67.68-81.68,50.39-1.77-.83-3.44-1.72-4.96-2.68-12.06-7.62-26.2-12.31-41.48-13.03-48.4-2.26-89.26,36.27-89.28,85.27-.02,44.34,34.66,81.68,78.88,84.98,15.73,1.18,30.72-1.97,43.86-8.41,1.64-.8,3.4-1.53,5.28-2.18,39.13-13.6,79.48,17.56,77.54,58.94l-9.31,199.22,457.89,21.41c108.01,5.05,199.67-78.42,204.72-186.43l21.41-457.89-200.29-9.36c-41.06-1.92-71.93,38.22-58.24,76.98.65,1.85,1.38,3.6,2.19,5.21,6.97,13.9,10.24,29.93,8.56,46.73-4.32,43.28-41.22,76.68-84.71,76.7-49.04.02-87.62-40.86-85.35-89.28Z"/>
      <path class="cls-8" d="m1003.07,963.31c.77,15.27-2.53,29.8-8.95,42.54-.81,1.61-1.54,3.35-2.19,5.2-13.62,38.57,17.2,78.48,58.06,76.42l200.92-10.1-10.1-200.92c-2.05-40.85,37.85-71.68,76.42-58.06,1.85.65,3.59,1.38,5.2,2.19,12.74,6.42,27.27,9.72,42.54,8.95,48.39-2.43,85.33-44.74,80.61-93.52-4.27-44.14-42.41-77.94-86.74-76.95-15.77.35-30.39,4.94-42.84,12.62-1.55.96-3.24,1.85-5.04,2.68-37.63,17.33-80.81-9.78-82.89-51.16l-10.02-199.19-457.81,23.02c-107.99,5.43-191.14,97.38-185.71,205.37l23.02,457.81,200.25-10.07c41.05-2.06,67.89-45,50.51-82.25-.83-1.78-1.72-3.45-2.69-4.97-8.29-13.16-13.09-28.8-13.04-45.68.11-43.49,33.6-80.31,76.89-84.54,48.81-4.77,91.16,32.18,93.6,80.6Z"/>
      <path class="cls-20" d="m1414.3,852.42c-15.29,0-29.64-4.03-42.04-11.08-1.57-.89-3.27-1.71-5.08-2.45-37.84-15.54-79.24,13.24-79.24,54.14v201.17h201.17c40.91,0,69.69,41.4,54.15,79.24-.74,1.81-1.56,3.51-2.45,5.08-7.05,12.41-11.08,26.75-11.08,42.04,0,48.45,40.4,87.47,89.35,85.2,44.3-2.05,79.97-38.44,81.21-82.77.44-15.77-3.41-30.6-10.45-43.42-.88-1.6-1.68-3.33-2.42-5.17-15.42-38.46,13.83-80.21,55.26-80.21h199.44v-458.39c0-108.13-87.66-195.79-195.79-195.79h-458.39v200.5c0,41.11,41.54,70.07,79.61,54.58,1.82-.74,3.53-1.55,5.1-2.43,13.56-7.61,29.42-11.63,46.28-10.73,43.43,2.3,78.52,37.59,80.57,81.04,2.31,48.99-36.72,89.43-85.2,89.43Z"/>
      <path class="cls-4" d="m468.25,1740.09s-3.04,21.12-8.26,27.94c-1.75,2.29-4.96,5.18-7.06,9.32-3.27,6.43-1.46,16.02.95,21.29,1.24,2.71-.09,2.7,2.74,3.57,8.36,2.58,17.25-1.77,20.81-9.79,1.99-4.48,3.73-10.46,4.08-18,.89-19.18,6.84-28.93,6.84-28.93l-20.1-5.4Z"/>
      <path class="cls-4" d="m559.69,1749.75s1.88,23.82.35,31.55c-.82,4.14-5.36,12.68-3.27,16.58,2.08,3.9,4.46,4.88,4.46,4.88l53.97.87c2.94.05,1-1.85-1.37-3.6-3.88-2.86-7.01-4.75-19.41-10.76-.81-.39-3.75-2.27-4.81-2.92-2.69-1.65-5.39-4.24-7.72-6.83-3.87-4.33-4.21-25.3-4.21-25.3l-17.99-4.47Z"/>
      <path class="cls-11" d="m601.87,1433.19s6.8,38.67,2.33,64.02-25.88,260.32-25.88,260.32l-23.8,1.35s-4.99-98.15-4.1-111.8c.89-13.65,7.96-36.49,7.96-36.49l-2.37-79.25,30.04-104.11,15.82,5.97Z"/>
      <path class="cls-12" d="m531.92,1425.05s-18.74,28.27-23.21,51.67c-4.46,23.4,3.28,95.31-5.31,125.98-4.65,16.6-22.26,42.23-24.94,63.68-2.68,21.45-13.18,77.64-13.18,77.64l23.79,4.73,55.29-140.32,43.37-126.83,11.11-65.32-66.94,8.77Z"/>
      <path class="cls-13" d="m547.09,1264.18s-24.82-1.58-34.63,9.14c-9.82,10.72,21.78,95.57,23.56,109.21,1.78,13.65-9.1,49.94-9.1,49.94,0,0,58.29,11.76,74.96.71,0,0,1.79-98.15,0-107.9-1.78-9.75-16.66-49.4-20.23-53.3-3.57-3.9-34.55-7.8-34.55-7.8Z"/>
      <path class="cls-4" d="m555.35,1230.95s-.13.73-.36,1.98c-1.11,5.98-5.37,25.82-8.25,31.27-3.48,6.59,11.91,27.61,26.72,25.04,4.41-.76-3.73-19.31-3.33-21.28.75-3.76,1.76-8.89,2.8-14.15.59-2.97,1.18-5.98,1.74-8.8,1.58-8.04,2.88-14.61,2.88-14.61l-22.19.55Z"/>
      <path class="cls-15" d="m554.99,1232.92c.23-1.25.36-1.98.36-1.98l22.19-.55s-1.29,6.57-2.88,14.61c-.55,2.81-1.14,5.8-1.73,8.76-3.43-.51-7.01-2.17-10.6-5.33-3.91-3.43-6.48-7.56-8.03-11.96.27-1.41.5-2.62.67-3.54Z"/>
      <path class="cls-4" d="m570.29,1180.39s-10.46-1.21-17.02,7.29c-6.56,8.5-13.62,34.78,2.66,49.07,16.29,14.29,32.38-1.89,34.77-19.04,2.39-17.15,3.31-37.94-20.41-37.33Z"/>
      <path class="cls-4" d="m595.52,1217.46c-1.94,3.79-5.21,5.88-7.29,4.68-2.08-1.2-2.19-5.25-.25-9.03,1.94-3.79,5.21-5.89,7.29-4.69,2.08,1.2,2.19,5.25.25,9.03Z"/>
      <path class="cls-6" d="m571.46,1177.58s-13.97,25-23.97,26.15c-10,1.15-11.31,14.44-11.31,14.44,0,0,3.57-30.6,13.47-36.5,9.9-5.9,21.81-4.08,21.81-4.08Z"/>
      <path class="cls-15" d="m479.05,1788.19c-12.97,2.37-21.59-5.23-26.08-10.92-3.3,6.45-4.9,16.07-2.48,21.36,2.13,4.67,8.37,4.53,13.29,4.71,5.19.19,9.21-2.7,11.79-7.23,1.2-2.12,2.45-4.75,3.48-7.92Z"/>
      <path class="cls-15" d="m589.61,1786.35c-14.27,3.67-24.83,1.17-30.73-1.21-1.52,4.32-3.54,9.75-2.47,12.88,1.31,3.83,3.18,4.7,4.82,4.74,13.04.34,47.76.81,57.7.94,1.39.02,2.15-1.61,1.26-2.68-2.47-2.95-29.52-14.02-30.59-14.67Z"/>
      <path class="cls-4" d="m550.11,1210.01c.81,4.44-.82,8.51-3.65,9.09-2.83.58-5.78-2.54-6.6-6.98-.81-4.44.82-8.51,3.65-9.09,2.83-.58,5.78,2.54,6.6,6.98Z"/>
      <path class="cls-5" d="m566.43,1225.38l12.62.57s-.51,4.78-6.06,4.69c-6.77-.11-6.55-5.26-6.55-5.26Z"/>
      <g>
        <path class="cls-18" d="m1642.39,219.26c1.57.06,5.88,1.51,12.17,13.4,8.04,15.2,19.79,61.1,19.79,61.1l-35.08,13.06-4.51-9.58-7.42-73.76s14.61-4.24,15.04-4.22Z"/>
        <path class="cls-15" d="m1596.02,212.64c10.03.01,34.85,2.94,46.37,6.62,0,0,8.46,72.73-7.62,128-3.6,12.37,2.98,51.29,2.98,51.29l-103.94-1.37s12.31-94.08,7.67-109.27c-4.64-15.2-4.75-68.15-4.75-68.15,0,0,.71-.11,23.35-4.02,10.56-1.83,25.23-3.1,35.93-3.08Z"/>
        <path class="cls-4" d="m1583.91,533.54s2.3,26.54,6.53,33.89c4.23,7.35-.22,19.84-.45,21.56-.22,1.71-8.9,4.16-22.7,2.69-13.8-1.47-13.57-4.65-12.46-9.8,1.11-5.14,8.46-11.76,8.9-16.66.45-4.9-4.23-22.54-4.23-22.54l24.4-9.15Z"/>
        <path class="cls-10" d="m1626.02,376.64s71.75-3.98,87.77,5.72c16.02,9.7-11.38,57.33-11.38,57.33,0,0-49.93-2.3-147.72,3.34-23.16,1.34-25.15-60.38-20.82-65.49,4.33-5.11,92.15-.9,92.15-.9Z"/>
        <path class="cls-18" d="m1565.58,593.74c-14.21-1.51-12.45-8.49-11.3-13.79.72-3.32,4.79-7.23,7.22-10.93,1.27,1.01,3.34,2.8,9.5,4.62,6.41,1.89,15.19-1.85,20.78-4.2,2,7.42,2.09,16.89,1.9,18.33-.23,1.77-13.9,7.48-28.11,5.97Z"/>
        <path class="cls-13" d="m1573.42,427.97c2.87,21.69,17.06,129.68,17.06,129.68l-32.93,4.08s-40.5-140.95-38.42-162.5c2.08-21.56,17.24-23.37,17.24-23.37,0,0,29.47-5.3,37.06,52.12Z"/>
        <path class="cls-4" d="m1535.6,227.83c9.72-3.65,14.47,83.92,15.78,119.96,17.21,1.66,47.21.01,54.68-.55,3.51-.26,11.61-3.23,15.11-3.69,3.58-.47,6.83-.71,8.58-.41.65.11,18.58,7.45,20.12,9.06,1.9,2,7.05,7.03,6.18,9.2-.87,2.18-9.89-6.06-9.89-6.06l-4.41-2.48c5.49,5.36,15.97,12.43,14.46,15-1.47,2.51-10.92-4.66-17.65-9.55,5.78,5.22,12.95,14.55,11.3,16.01-1.49,1.31-9.65-9.5-18.37-12.61-3.23-1.15-6.46,2.04-9,2.43-1.87.28-4.75.89-6.59.37l-9.45-2.68c-3.22.29-3.3,2.19-6.55,2.89-3.77.8-9.96,1.65-14.76,2.82-27.66,6.76-36.89,9.9-45.36,9.89-25.65-.02-27.14-140.99-4.17-149.6Z"/>
        <path class="cls-18" d="m1517.16,310.04c-1.82-36.92-1.55-82.42,19.14-90.18,8.17-3.06,22.56,15.35,19.97,90.93-11.05.91-27.27,1.65-39.11-.75Z"/>
        <path class="cls-4" d="m1680.21,556.24s-2.87,9.21,2.27,15.31c5.15,6.09,26.53,12.07,29.33,15.37,2.81,3.3,2.59,6.11,2.59,6.11l-60.01-1.65.65-18.12,2.76-13.02,22.39-3.99Z"/>
        <path class="cls-18" d="m1686.22,574.58s-15.42,6.24-22.87,2.54c-7.45-3.69-7.22-4.72-9.38-3.34-2.16,1.38-2.93,18.37-2.93,18.37l67.48,1.98c4.7-.11,7.07-3.57,3.25-6.53-2.62-2.03-5.64-3.39-7.36-4.37-5.28-3.03-28.2-8.65-28.2-8.65Z"/>
        <path class="cls-13" d="m1677.94,393.65c4.64-9.76,15.19-22.47,33.75-14.81,17.7,7.3,22.45,25.24,16.87,43.61-5.58,18.37-42.35,126.37-43.63,141.22l-29.36.19s5.34-85.51,6.64-106.18c1.26-19.89,7.71-47.13,15.73-64.03Z"/>
        <path d="m1725.6,294.18h-98.13c-2.6,0-4.93,1.57-5.92,3.98l-30.22,73.95h-54.1c-1.51,0-2.74,1.23-2.74,2.75h0c0,1.52,1.23,2.75,2.74,2.75h153.98c4.23,0,8.07-2.49,9.81-6.37l30.43-68.01c1.9-4.25-1.2-9.05-5.84-9.05Z"/>
        <path class="cls-5" d="m1672.76,337.24c-.66,3.32-3.55,5.54-6.45,4.96-2.9-.58-4.71-3.75-4.05-7.07.66-3.32,3.55-5.54,6.45-4.96,2.9.58,4.71,3.75,4.05,7.07Z"/>
        <g>
          <path class="cls-21" d="m1619.34,123.81c-2.96-1-5.87-2.12-8.68-3.48-3.18-1.53-7.3-3.33-9.9-3.73-5.48-.85-14.88-.28-20.08,5.35-6.47,7.02-17.97,1.27-15.66,38.04,2.62,41.63,25.77,37.06,26.33,36.35.56-.7,20.64-26.63,20.64-26.63,0,0,7.02,15.36,7.02,14.79s35.85-48.75.32-60.71Z"/>
          <path class="cls-4" d="m1601.77,199.43l2,14.87s4.48,21.43-1.28,25.56c-5.76,4.13-24.49-26.17-24.49-26.17l1.98-37.69,21.79,23.43Z"/>
          <path class="cls-15" d="m1579.34,188.22c4.76,12.86,16.09,20.76,24.13,23.82l-1.69-12.61-21.79-23.43-.64,12.21Z"/>
          <path class="cls-4" d="m1600.59,134.99c12.2-1.97,23.15,7.84,22.84,20.06-.13,5.31-.57,11.94-1.67,19.08-2.65,17.17-14.37,32.29-22.11,30.94-7.75-1.35-27.24-16.16-23.8-40.6,2.12-15.09,11.94-27.41,24.75-29.48Z"/>
          <path class="cls-4" d="m1581.22,167.38c-.65,3.78-3.68,6.4-6.75,5.87-3.08-.54-5.04-4.03-4.39-7.81.65-3.78,3.68-6.4,6.75-5.87,3.08.54,5.04,4.03,4.39,7.81Z"/>
          <path class="cls-21" d="m1576.83,159.57s9.37,2.33,12.84-3.7c3.48-6.02,15.9-19.02,31.7-13.63,15.8,5.39-13.9-13.1-15.17-13.1s-16.43-.11-16.43-.11c0,0-11.69,9.62-12.11,10.67-.42,1.06-3.79,12.58-3.79,12.58l2.96,7.29Z"/>
        </g>
        <path class="cls-5" d="m1593.96,184.71l17.04,3.26s-1.63,6.42-9.16,5.2c-9.19-1.48-7.88-8.46-7.88-8.46Z"/>
      </g>
      <g>
        <path class="cls-16" d="m1305.69,1371.18c.65,2.25,1.03,2.99,1.85,4.5,5.34,9.73,17.74,23.61,17.74,23.61l9.59-21.61s-1.56-6.79-4.28-16.48c-9.26,2.42-18.09,3.82-24.91,9.99Z"/>
        <path class="cls-6" d="m1360.68,1352.44s-53.5,23.04-55.23,22.6c-1.11-.28-21.94-35.15-22.17-67.93-.1-15.14,15.62-33.36,33.17-29.76,8.83,1.81,8.7,4.27,21.77,23.26,13.07,18.99,22.46,51.83,22.46,51.83Z"/>
        <path class="cls-4" d="m1406.35,1765.47s-1.27,21.01-1.28,21.05c-.47,2.67-2.3,9.26-2.3,11.68,0,9.11,43.26-7.73,33.56-11.77-.88-.37-5.48-3.13-5.76-6.23-.44-4.78-1.57-14.44-1.57-14.44l-22.65-.29Z"/>
        <path class="cls-18" d="m1436.23,1786.35s-10.16,2.79-15.36,3.48c-5.2.7-12.06-5.17-15.74-3.58-4.05,1.74-3.89,17.44-3.89,17.44,0,0,54.46,4.47,69.78-.15,6.07-1.83-14.03-10.7-34.79-17.19Z"/>
        <path class="cls-4" d="m1317.86,1765.47s-1.27,21.01-1.28,21.05c-.47,2.67-2.3,9.26-2.3,11.68,0,9.11,43.26-7.73,33.56-11.77-.88-.37-6.84-5.19-7.13-8.29-.44-4.78-.21-12.38-.21-12.38l-22.65-.29Z"/>
        <path class="cls-18" d="m1347.73,1786.35s-10.16,2.79-15.36,3.48c-5.2.7-12.06-5.17-15.74-3.58-4.05,1.74-4.21,17.44-4.21,17.44,0,0,54.71,5.21,70.1-.15,5.97-2.08-14.03-10.7-34.79-17.19Z"/>
        <g>
          <path class="cls-4" d="m1331.08,1382.83l38.1-53.37c.16-.47.51-1.42,1.04-2.88,1.92-5.3,5.91-16.32,9.39-27.28l.04-.12c1.09-3.83,3.41-10.52,5.65-16.98,2.49-7.19,5.58-16.11,5.69-17.63-.1-.26-.28-.73-.51-1.35-1.4-3.63-3.29-12.26-3.95-16.02-.42-2.39-.85-8.2,1.99-8.2,4.47,0,2.34,5.8,4.4,9.43.76-2.42,2.29-7.23,3.1-12.09l.75-11.35c.14-.86-.77-7.12,2.37-7.12h.15c2.82.21,2.75,6.87,3.92,18.12.37-1.3.74-2.86,1.02-4.29-.03-.77.53-4.15.95-5.94-.57-3.14-.24-8.08,3.1-7.62,1.67.23,1.54,7.14,1.54,7.14-.02.95-.12,8.25-.06,9.69.34-2.45,1.68-12.9,4.3-12.9,2.17,0,2.35,2.81,2.3,5.04-.03,1.32-1.39,12.63-1.47,13.95,1.02-1.72,2.24-11.69,3.25-11.69,4.24,0,2.71,14.18,1.15,17.88-.15.38-.3,1.12-.48,1.98-.53,2.53-1.42,6.75-3.63,10.55-2.66,4.55-6.33,11.79-6.89,12.9-.41,2.26-1.68,10.39-3.29,20.62-.69,4.38-1.44,9.17-2.22,14.14h-.04c-.14,1.07-.94,4.49-3.95,17.32-4.12,17.56-4.55,18.32-4.74,18.64-1.79,3.17-42.87,58.96-44.62,61.33l-1.03,1.4-17.3-23.29Z"/>
          <path class="cls-15" d="m1401.94,1258.35s-3.09-7.91-8.6-7.92c0,0,3.08-1.11,5.71.98,2.64,2.09,2.88,6.94,2.88,6.94Z"/>
        </g>
        <g>
          <path class="cls-4" d="m1321.87,1243.07l-4.9,31.02s18.69,15.01,29.58,11.84c9.14-2.66,2.87-14.61,2.87-14.61,0,0-4.87-16.56-3.38-25.24,1.49-8.68-24.17-3.01-24.17-3.01Z"/>
          <path class="cls-7" d="m1325.4,1252.44c4.68,2.21,13.94,5.23,21.15,5.96-.69-4.34-1.08-8.93-.5-12.32.69-4-4.41-4.95-10.09-4.81-7.44.64-14.08,1.8-14.08,1.8l-.94,5.96c1.42,1.49,2.9,2.68,4.46,3.42Z"/>
          <path class="cls-4" d="m1298.29,1207.29c-.77,0,7.39,34.65,20.01,40.61,12.63,5.96,31.46,2.85,34.99-6.48,3.91-10.32-10.35-45.67-28.11-50.16-17.76-4.49-26.9,16.03-26.9,16.03Z"/>
          <path class="cls-6" d="m1312.9,1175.45c-10.09,5.82-14.71,14.44-16.27,17.98-4.73,2.25-10.46,7.1-13.21,20.2-3.38,16.09,8.64,28.5,21.38,32.23,12.74,3.73,14.71,12.16,14.71,12.16l1.45-9.07s-2.83-7.9-7.1-11.85c-4.26-3.95,2.02-9.72,2.57-14.42.43-3.62-2.24-10.65-1.66-16.59,0,0,7.08-10.73,14.06-13.38,11.9-4.52-2.99-24.72-15.93-17.26Z"/>
          <path class="cls-4" d="m1318.27,1228.71c1.65,4,.98,7.98-1.51,8.88-2.48.9-5.83-1.62-7.48-5.62-1.65-4-.98-7.98,1.51-8.87,2.48-.9,5.83,1.62,7.48,5.62Z"/>
        </g>
        <path class="cls-16" d="m1365.3,1383.68l73.49-11.98s-8.36-21.05-11.35-21.05-55.57,22.95-55.57,22.95l-4.18,8.4-2.39,1.68Z"/>
        <path class="cls-20" d="m1327.65,1434.07s-7.33,35.44-4.34,62.32c2.99,26.87,3.22,122.34,3.22,122.34l-11.4,152.74,27.05.59s32.08-152.67,31.48-148.75c-.6,3.92,10.75-107.49,10.75-107.49l-38.24-85.1-18.52,3.36Z"/>
        <path class="cls-6" d="m1334.82,1432.39s-4.78,31.91,1.2,45.91c5.97,14,51.25,151.33,51.85,162.52.6,11.2,15.65,134.96,15.65,134.96l31.45-.88,6.8-137.6-14.25-172.94-13.83-43.72-78.87,11.76Z"/>
        <path class="cls-4" d="m1316.97,1274.08s7.76,5.09,14.99,4.5c7.23-.59,17.46-7.26,17.46-7.26l-1.42-4.82s-18.71-2.73-19.19-2.43c-.47.29-11.84,10.01-11.84,10.01Z"/>
        <path class="cls-16" d="m1399.64,1349.61s27.8,26.23,40.35,21.75c12.55-4.48,17.74-19.79-12.88-42.19-27.4-20.05-27.47,20.43-27.47,20.43Z"/>
        <path class="cls-11" d="m1418.47,1382c-4.13-22.47-34.06-92.38-36.45-105.25-1.16-6.26-17.31-6.4-32.68-5.58-16.24.86-32.38,2.92-32.38,2.92,0,0-14.38,2.36-20.7,8.29-6.33,5.93-8.01,22.32,1.09,53.44,7.18,24.56,16.08,38.05,20.48,55.95.89,6,1.66,11.92,2.67,18.84,1.62,26.75-.02,62.1-.02,62.1,0,0,78.27,16.24,107.55-8.4,0,0-5.33-59.28-9.56-82.3Z"/>
        <path class="cls-12" d="m1438.43,1333.7s-30.71,25.35-32.5,25.35c-1.15,0-43.83-31.39-53.68-57.18-5.45-14.26,5.98-30.21,19.02-30.16,9.04.04,13.06,2.37,30.99,17.48,17.92,15.12,36.17,44.5,36.17,44.5Z"/>
      </g>
      <path class="cls-6" d="m898.15,202.03c5.03-12.11,10.15-24.25,23.21-30.38,10.57-4.96,21.61-3.1,31,3.97,26.61,20.01,3.42,42.05,33.71,79.99,9.41,11.79,20.8,21.31,26.44,35.12,7.89,19.34-1.51,28.62-16.57,37.88-72.09,44.31-109.88-46.67-108.52-67.48,1.01-15.48,7.5-51.3,10.74-59.1Z"/>
      <path class="cls-4" d="m823.33,437.85c3.04-.48,10.42-5.77,13.03-6.25,2.02-.37,6.39-1.03,8.25-1.31,2.28-8.51,13.86-54.93,15.16-68.54,1.41-14.74,11.83-78.51,11.83-78.51l26.99,4.91s-11.21,49.06-14.31,72.84c-2.66,20.43-25.08,66.37-27.93,71.22,0,.12,0,.23-.01.35-.43,7.21-3.91,4.81-3.91,4.81l-5.64,1.44s-19.97,1.92-21.28,2.4c-1.3.48-5.21-2.88-2.17-3.36Z"/>
      <path class="cls-17" d="m895.12,245.97c-19.08,6.47-29.93,58.34-29.93,58.34,0,0,29.94,8.36,37.61,3.97,0,0,8.71-38.59,11.83-37.24l-19.5-25.08Z"/>
      <path class="cls-4" d="m747.53,527.47c-5.84,15.4-8.87,30.23-9.14,32.02-.13.86,1.09,5.05.97,5.94-11.72,15.99-28.56,19.48-43,20.5,7.36-7.18,18.16-13.99,18.68-16.26.83-3.62,5.27-19.75,7.46-42.09,8.98,4.15,15.07.86,25.03-.11Z"/>
      <path class="cls-14" d="m913.59,355.21l25.79,72.62s-41.44,7.8-56.93,10.64c-15.49,2.84-102.05,6.62-104.24,8.16-1.63,1.14-19.51,58.97-27.49,90.86-9.06,1.99-24.57-.4-32.82-3.24,4.46-45.62,20.56-117.91,25.72-125.78,8.4-12.82,169.98-53.26,169.98-53.26Z"/>
      <path class="cls-4" d="m812.85,559.31c-2.85,16.22-3.05,31.36-2.98,33.17.03.87,2.01,4.75,2.07,5.66-8.52,17.9-24.41,24.49-38.4,28.2,5.88-8.44,15.22-17.15,15.3-19.48.13-3.71,1.48-20.38-.56-42.75,9.6,2.4,14.97-1.98,24.56-4.8Z"/>
      <path class="cls-22" d="m943.69,358.98l10,17.08c15.23,26.01,3.55,59.47-24.54,70.37-.15.06-.3.12-.45.17-14.68,5.69-99,25.63-100.86,27.55-1.39,1.43-8.11,61.58-9.98,94.4-8.53,3.66-24.21,4.21-32.85,2.96-4.17-45.65-1.9-119.67,1.69-128.37,5.85-14.16,156.99-84.17,156.99-84.17Z"/>
      <path class="cls-6" d="m808.58,592.98c2.24-2.48,10.49,11.17,12.55,14.08,2.32,3.27,1.66,5.74,1.38,6.26-.73,1.35-44.19,26.92-54.79,28.74-1,.17-2.74-.46-3.17-.85-4.14-3.67,14.92-30.74,23.49-34.3,5.53-2.3,10.45-2.77,20.55-13.93Z"/>
      <path class="cls-6" d="m737,559.98c2.67-2.02,8.21,12.93,9.69,16.18,1.66,3.65.55,5.95.18,6.4-.97,1.19-48.45,18.16-59.2,17.96-1.02-.02-2.6-.97-2.96-1.43-3.38-4.38,20.42-27.4,29.5-29.29,5.87-1.22,10.79-.76,22.8-9.83Z"/>
      <path class="cls-1" d="m913.22,245.82h0c-.49,0-1.2-.17-1.92-.4-3.54-.63-11.29-1.56-17.32.98-7.33,3.09-18.69,32-18.02,61.66.27,4.54.55,8.6.78,11.43,1.85,22.41,8.28,64.46,8.63,64.68,8.75,5.63,61.52-16.2,65.14-20.99,3.63-4.79,5.77-63.04,7.53-65.95l3.47-50.66c-6.12-1.83-38.9-.83-48.28-.77Z"/>
      <path class="cls-4" d="m934.61,227.16s-3.4,17.57-2.72,24.51c.68,6.93-2.59,29.27-17.26,29.35-14.67.07-2.79-28.4-1.4-35.2,1.38-6.79,1.71-27.82,1.71-27.82l19.68,9.17Z"/>
      <path class="cls-15" d="m914.63,228.55c.23-5.75.3-10.55.3-10.55l19.68,9.17s-.69,3.59-1.39,8.17c-8.61,1.73-14.85-1.46-18.59-6.79Z"/>
      <path class="cls-4" d="m941.8,178.66s7.58,4.21,10.35,13.32c2.77,9.12-.38,32.64-19.97,38.32-19.59,5.68-28.07-12.95-24.04-27.52,4.03-14.56,12.81-33.01,33.65-24.13Z"/>
      <path class="cls-4" d="m905.7,197.14c.38,3.91,2.54,6.9,4.82,6.68,2.28-.22,3.81-3.58,3.43-7.49-.38-3.91-2.54-6.9-4.82-6.68-2.28.22-3.81,3.58-3.43,7.49Z"/>
      <path class="cls-6" d="m939.5,177.47s3.55,26.24,12.04,30.98c8.48,4.74,4.93,16.38,4.93,16.38,0,0,7.7-27.03.99-35.71-6.71-8.68-17.96-11.64-17.96-11.64Z"/>
      <path class="cls-4" d="m946.51,212.22c-2.3,3.42-2.29,7.45.02,9.01,2.31,1.56,6.05.04,8.35-3.38,2.3-3.42,2.29-7.45-.02-9.01-2.31-1.56-6.05-.04-8.35,3.38Z"/>
      <path class="cls-5" d="m917.97,213.68l13.8,3.47s-1.66,5.24-7.77,3.89c-7.46-1.65-6.03-7.37-6.03-7.37Z"/>
      <path class="cls-8" d="m986.51,435.66c.66-.03,59.51-2.99,59.51-2.99,0,0-24.42,17.55-24.92,17.55s-19.45-7.48-20.28-7.48-14.32-7.08-14.32-7.08Z"/>
      <path class="cls-4" d="m2177.96,1766.33s1.16,20.64,1.17,20.68c.43,2.62,2.11,9.1,2.11,11.48,0,8.95-39.71-7.6-30.81-11.56.81-.36,5.03-3.07,5.29-6.12.41-4.69,1.44-14.19,1.44-14.19l20.79-.29Z"/>
      <path class="cls-13" d="m2150.05,1787.02s9.32,2.74,14.1,3.42c4.78.68,11.07-5.08,14.45-3.52,3.72,1.71,3.57,17.14,3.57,17.14,0,0-49.99,4.39-64.05-.15-5.57-1.8,12.88-10.51,31.94-16.89Z"/>
      <path class="cls-4" d="m2244.08,1765.26s1.16,20.64,1.17,20.68c.43,2.62,2.12,9.1,2.12,11.48,0,8.95-39.71-7.6-30.81-11.56.8-.36,6.28-5.1,6.54-8.15.41-4.69.19-12.16.19-12.16l20.79-.29Z"/>
      <path class="cls-13" d="m2216.66,1785.77s9.32,2.74,14.1,3.42c4.77.68,11.07-5.08,14.45-3.52,3.72,1.71,3.87,17.14,3.87,17.14,0,0-49.64,2.04-64.35-.15-5.79-.86,12.88-10.51,31.94-16.88Z"/>
      <path class="cls-11" d="m2232.3,1437.4s6.73,34.82,3.99,61.22c-2.74,26.4-2.96,120.19-2.96,120.19l12.65,150.01-27.02.63s-29.44-149.99-28.9-146.14c.55,3.85-9.87-105.61-9.87-105.61l35.1-83.61,17,3.3Z"/>
      <path class="cls-12" d="m2222.89,1414.91s30.49,32.11,19.15,67.18c-4.55,14.09-47.04,148.68-47.59,159.68-.55,11-14.37,132.59-14.37,132.59l-28.87-.87-6.25-135.19,8.25-182.15,17.53-30.72,52.16-10.53Z"/>
      <path class="cls-15" d="m2037.8,1310.4c9.98-11.14,31.71-26.99,31.71-26.99,0,0,12.94-11.06,18.22-12.88,7.77-2.68,21.07-9.82,40.31,19.34,13.77,20.87,100.65,128.92,114.92,132.56l-93.14,44.56c-2.55-21.28-48.58-61.49-55.21-68.99-14.81-16.77-66.26-77.06-56.81-87.6Z"/>
      <path class="cls-4" d="m2042.14,1265.13l29.01,16.99s.82,24.77-8.67,31.2c-7.96,5.4-14.01-7.56-14.01-7.56,0,0-10.79-14.95-18.98-19.61-8.2-4.66,12.65-21.02,12.65-21.02Z"/>
      <path class="cls-15" d="m2047.01,1276.03c-1.09,5.17-3.62,12.64-7.53,18.79-3.2-3.46-6.79-6.85-9.99-8.67-3.78-2.15-1.38-6.79,2.31-11.17,5.21-5.42,10.34-9.85,10.34-9.85l5.58,3.26c.36,2.12-.34,5.92-.71,7.64Z"/>
      <path class="cls-4" d="m2027.03,1222.56c.49-.6,24.34,29.09,21.4,43.01-2.94,13.93-17.36,26.63-27.38,23.14-11.08-3.86-31.69-38.81-24.3-55.78,7.39-16.97,30.29-10.36,30.29-10.36Z"/>
      <path class="cls-6" d="m2000.92,1213.2c10.4-5.78,27.36-7.44,40.03-.81,15.58,8.16,19.13,28.68,14.25,41.2-4.88,12.52.71,19.6.71,19.6l-8.26-4.83s-4.83-7.54-5.46-13.54c-.63-6.01-9.39-4.94-13.67-7.67-3.29-2.1-7.5-8.91-12.82-12.45,0,0-13.42-1.65-20.01,2.06-11.25,6.31-9.65-15.28,5.24-23.56Z"/>
      <path class="cls-4" d="m2035.22,1252.16c-.08,4.45,2.03,8.1,4.7,8.14,2.67.04,4.9-3.53,4.98-7.98.08-4.45-2.03-8.1-4.7-8.14-2.67-.04-4.9,3.53-4.98,7.98Z"/>
      <path class="cls-5" d="m2010.79,1275.79l12.63-9.44s3.34,5.1-2.09,9.42c-6.62,5.26-10.53.02-10.53.02Z"/>
      <path class="cls-16" d="m1979.08,1463.61c3.16-4.62,4.54-11.29,8.92-16.38,1.47-1.71,3.81-3.63,6.47-5.55,21.04-12.31,75.84-44.04,77.97-46.5,2.53-2.92,39.93-65.06,39.93-65.06l-33.59-7.61-32.83,57.97c-2.74,2.18-54.85,40.69-54.85,40.69,0,0-10.36,8.1-16.03,11.89-2.86,1.67-5.64,2.75-8.07,3.6-3.06,1.06-8.88,3.97-10.06,5-1.37,1.2-4.11,3.78-5.74,5.35-1.63,1.57-3.6,3.35-4.37,4.28-.46.57-1.9,1.35-2.96,1.88-1.58.79-1.37,3.12.32,3.6,1.6.45,3.75-.55,5.09-1.18,3.77-1.77,8.38-6.56,8.62-5.97s-4.44,10.84-4.9,12.05c-.46,1.21-5.83,13.16-6.11,15.82-.28,2.66,1.33,3.28,2.52,2.3,1.03-.84,9.67-16.79,9.67-16.79,0,0,1.11-2.03,1.54-.87.43,1.16-7.39,15.67-8.15,18.05-.76,2.38-.16,4.33,2.05,3.5,2.68-1.01,10.07-17.01,10.07-17.01,0,0,.96-1.99,1.62-1.3.66.69-6.2,12.92-6.28,14.33-.08,1.41,1.2,2.8,3.05,1.62,2.18-1.39,8.66-15.72,8.66-15.72,0,0,.8-.95,1.05-.28.25.67-4.85,11.51-4.47,13.09.32,1.33,1.52,1.06,1.52,1.06,2.67,0,6.18-11.24,9.34-15.86Z"/>
      <path class="cls-11" d="m2103.16,1362.95s-10.94-3.48-17.96-6.69c-4.7-2.15-25.2-12.35-25.2-12.35,0,0,8.84-37.28,14.81-50.69,21.93-49.2,46.84-15.27,50.22-7.36,7.56,17.69-21.88,77.09-21.88,77.09Z"/>
      <path class="cls-5" d="m1339.04,1234.13l10.41-7.78s2.75,4.21-1.73,7.76c-5.46,4.34-8.68.02-8.68.02Z"/>
      <path class="cls-20" d="m2561.19,1802.95H142.5c-3.02,0-5.48,3.13-5.48,6.99h0c0,3.86,2.45,6.99,5.48,6.99h2418.69c3.02,0,5.47-3.13,5.47-6.99h0c0-3.86-2.45-6.99-5.47-6.99Z"/>
      <path class="cls-4" d="m1047.37,432.61c-.25-.63-.8-.64-1.36-.66-5.46-.17-10.92-.41-16.34-1.22-.9-.13-1.79-.34-2.62-.67-1.51-.6-2.99-.59-4.52-.17-.82.23-1.66.27-2.51.27-2.75-.01-10.58-2.68-14.61-3.38-.92-.16-1.65-.86-1.88-1.76-3.96-15.66-12.45-50.8-13.55-62.35-1.41-14.77-11.61-81.39-11.61-81.39l-27.3,7.61s11.24,49.17,14.34,73.01c2.4,18.41,20.8,57.48,26.57,68.71,2.82,8.36,9.14,8.59,10.61,8.77.84.1,1.61.52,2.16,1.16,1,1.16,2.14,2.17,3.44,3,.97.61,1.71,1.41,2.35,2.34,1.16,1.69,2.2,3.46,3.22,5.24.68,1.18,1.39,1.55,2.4,1.27,1.08-.3,1.6-1.1,1.58-2.42-.03-1.95-.65-3.71-1.63-5.38-.92-1.56-.85-2.46.22-3.9.61-.82,1.25-1.62,2.05-2.28.82-.67,1.68-1.17,2.79-1.02,1.96.49,3.94.89,5.95,1.11l1.65.34c.06,0,.9.19.9.19.14.04,3.04.35,4.04.36.8,0,2.09.05,3.19.11,1,.05,3.1-.47,3.17-.47.97-.02,1.83-.37,2.55-1.02.3-.27.58-.56.43-1.02-.14-.41-.46-.59-.89-.67-.66-.12-4.05-.53-4.01-.67,1.01,0,4.16-.07,5.17-.1,1.36-.04,2.53-.52,3.47-1.53.37-.4.8-.79.55-1.42Z"/>
      <path class="cls-1" d="m961.84,246.47c13.47-2.45,24.59,57.83,24.59,57.83,0,0-29.94,8.36-37.61,3.97,0,0-8.71-38.59-11.83-37.24l24.84-24.57Z"/>
      <path class="cls-4" d="m636.05,1330.03c.89-2.56-11.53-4.62-12.2-7.2-.66-2.58,15.69-2.79,16.27-5.06,1.08-4.18-17.92-.88-17.55-2.84.37-1.96,19.8-6.33,17.7-9.68s-19.67,6.63-20.2,4.36c-.53-2.28,17.17-7.82,16.86-12.81-.17-2.67-29.06,13.31-32.41,11.86-3.35-1.45,3.6-13.99.94-15.86-2.67-1.86-10.32,25.49-12.17,26.41-1.83.91-40.87,23.19-54.76,26.73-1.69-4.65-5.33-10.93-6.82-15.33-7.79,5.55-13.58,8.33-21.62,13.38,5.83,14.6,14.12,30.59,18.18,32.42,12.36,5.59,60.16-34.06,69.71-40.85,9.55-6.79,15.02-4.59,21.47-6.73,6.46-2.15,15.71,3.75,16.6,1.19Z"/>
      <path class="cls-13" d="m508.43,1351s-10.7-47.25-8.84-60.96c1.86-13.71,18.15-26.48,29.44-21.74,11.29,4.74,16.41,70.71,16.41,70.71l-37,12Z"/>
    </g>
  </g>
</svg>