<?xml version="1.0" encoding="UTF-8"?>
<svg id="Layer_2" data-name="Layer 2" xmlns="http://www.w3.org/2000/svg" viewBox="0 0 894.29 585.83">
  <defs>
    <style>
      .cls-1 {
        fill: #fff;
      }

      .cls-2 {
        fill: #d9a3a3;
      }

      .cls-3 {
        fill: #474ebb;
      }

      .cls-4 {
        fill: #d34e4e;
      }

      .cls-5 {
        fill: #ebb044;
      }

      .cls-6 {
        fill: #bbbbbc;
      }

      .cls-7 {
        fill: #272742;
      }

      .cls-8 {
        fill: #3b455a;
      }

      .cls-9 {
        fill: #eac1a4;
      }

      .cls-10 {
        fill: #ccd2d9;
      }

      .cls-11 {
        fill: #7fc5a3;
      }
    </style>
  </defs>
  <g id="Object">
    <g>
      <g>
        <path class="cls-9" d="m246.37,115.87l6.07-4.09,6.94,3.09,3.46,6.46-2.45,4.92-6.21,2.74,2.15.84-.6,1.76-9.63,3.17c-1.95-2.54-9.19-5.13-10.24-6.49l6.72-4.6,3.8-7.81Z"/>
        <g>
          <polygon class="cls-10" points="118.13 353.04 50.86 328.3 64.73 446.15 56.7 547.81 56.48 548.49 56.64 548.51 56.62 548.73 69.89 550 69.9 549.98 70.39 550.04 100.02 459.46 115.7 362.97 115.7 362.97 118.13 353.04"/>
          <polygon class="cls-7" points="69.2 554.63 55.44 554.28 51.93 565.89 52.27 566 52.18 566.01 74.94 579.49 85.76 580.69 87.13 568.33 84.21 566.19 69.2 554.63"/>
        </g>
        <g>
          <polygon class="cls-10" points="163.95 355.06 143.77 556.83 130.45 557.44 117.07 448.49 93.88 339.99 163.95 355.06"/>
          <polygon class="cls-7" points="143.73 561.52 161.37 571.52 159.72 579.84 128.2 575.09 130.06 563.1 143.73 561.52"/>
        </g>
        <path class="cls-5" d="m195.49,405.74c4.26-2.96,4.35-8.1,4.34-13.26-.01-9.68-1.75-19.57-3.97-28.98-4.22-17.64-9.01-38.9-11.12-61.76-5.44-59.09-24.1-98.74-24.1-98.74l-6.02-16.06c-1.2-2.09-2.44-4.15-3.73-6.19-7.52-11.8-20.58-31.86-34.54-35.14-.29-.07-.59-.14-.88-.2-14.68-3.22-33.5-1.73-46.77,5.41-2.52,1.35-4.76,3.16-6.98,4.95-6.49,5.23-11.78,8.07-14.58,16.04-2.43,6.92-2.99,14.48-4.33,21.66-2.72,14.58-4.34,29.33-6.52,44-4.07,27.5-7.53,55.09-11.89,82.55-2.24,14.13-4.5,28.29-5.56,42.57-.94,12.62-12.33,25.44-18.73,36.76-2.23,3.94,29.76,14.14,32.63,14.81,13.27,3.09,27.38,2.3,41.06,2.36,29.97.14,59.95-.79,89.86-2.77,9.94-.66,22.19-2.56,31.01-7.5.29-.16.57-.33.82-.51Z"/>
        <path class="cls-1" d="m99,143.81s-16.88-4.56-19.22,33.54c-2.33,38.1-6.22,134.51-11.66,160.94-5.44,26.44-13.61,78.29-13.61,78.29l51.7,1.8,59.09-4.67s-20.22-37.32-23.33-63.76c-3.11-26.44,2.33-125.96-10.89-163.28-13.22-37.32-15.99-42.2-32.1-42.87Z"/>
        <polygon class="cls-5" points="134.32 188.34 172 208.82 194.71 201.05 252.82 137.16 237.38 123.2 175.71 171.41 127.16 150.23 134.32 188.34"/>
        <g>
          <g>
            <path class="cls-8" d="m122.55,113.62c2.55,7.67-1.14,15.85-4.39,22.84-2.88,6.2-3.88,10.28,3.43,11.95,4.12.94,11.42,2.7,15.03-.45,2.73-2.39,1.2-9.76-.13-12.69-1.02-2.24-3.7-3.37-4.66-5.64-.39-.93-.45-1.97-.46-2.98-.06-4.14.52-8.28,1.69-12.25.8-2.69,1.88-5.34,2.12-8.14.35-4.06-2.52-8.79-4.03-12.51-2.81-6.94-12.57-16.24-20.74-10.8-1.86,1.24-2.95,3.34-3.85,5.38-.54,1.22-1.06,2.5-1.07,3.83-.06,5.33,4.8,6.22,8.16,8.76,4.14,3.13,7.28,7.79,8.91,12.69Z"/>
            <path class="cls-9" d="m107,143.55c7.09-1.67,12.64-7.62,15.3-14.41,2.66-6.78,2.8-14.3,2.07-21.55-2.45-24.12-32.45-22.57-42.61-4.08-8.85,16.11,4.63,44.89,25.25,40.04Z"/>
          </g>
          <path class="cls-9" d="m106.99,140.95c-.12,2.75-.24,5.49-.36,8.24-.02.4-.05.84-.33,1.13-.32.33-.84.33-1.3.32-2.24-.08-4.48-.15-6.72-.23-1.11-.04-2.26-.09-3.24-.61-2.14-1.15-2.58-4.05-2.24-6.46.34-2.41,1.2-4.83.69-7.21,4.62,2.28,9.01-2.87,13.64-.59l-.15,5.41Z"/>
        </g>
        <path class="cls-8" d="m97.31,65.79c-7.88,2.68-12.93,10.64-20.62,13.83-4.41,1.82-9.63,2.06-13.22,5.19-8.06,7.03-1.58,21.77-8.21,30.16-1.38,1.75-3.23,3.07-4.62,4.81-2.98,3.76-3.37,8.88-3.64,13.67-.06,1.08-.07,2.25.12,3.33,1.04,11.06,17.09,10.35,23.47,9.65,7-.78,4.66-4.67,4.66-4.67l-.25-.31c-.67-4.49,1.17-9.28,4.7-12.14,1.31-1.06,2.86-1.91,3.78-3.32,2.07-3.16.09-7.36.4-11.13,1.23-15.18,26.71-11.93,33.9-22.74,8.82-13.26-5.6-31.4-20.47-26.34Z"/>
      </g>
      <g>
        <g>
          <polygon class="cls-9" points="698.66 150.69 689.8 145.74 687.5 137.08 685.42 136.64 684.77 139.18 680.81 132.54 674.89 130.45 668.05 135.23 665.51 143.47 670.97 149.76 680.35 152.99 692.19 160.3 698.66 150.69"/>
          <polygon class="cls-6" points="699.5 145.06 686.22 160.79 735.41 208.52 748.67 212.8 805.16 167.75 790.05 136.9 747.92 172.71 699.5 145.06"/>
        </g>
        <g>
          <g>
            <polygon class="cls-8" points="892.32 563.62 894.29 572.67 878.66 585.56 867.89 578.43 874.72 567.46 890.35 554.58 892.32 563.62"/>
            <polygon class="cls-8" points="837.65 285.38 855.09 325.6 856.74 438.78 892.61 560.51 875.93 567.9 802.74 426.56 794.41 381.79 791.1 287.5 837.65 285.38"/>
          </g>
          <g>
            <polygon class="cls-8" points="753.2 294.4 751.82 413 774.17 565.92 791.36 565.92 802.21 424.82 825.73 283.72 753.2 294.4"/>
            <polygon class="cls-8" points="791.26 563.88 791.26 573.17 772.68 582.46 763.38 573.17 772.68 563.88 791.26 563.88"/>
          </g>
        </g>
        <path class="cls-6" d="m787.04,133.8l45.65-1.69s27.31,23.96,41.42,86.23c14.37,63.4-2.65,154.68-2.65,154.68,0,0-122.47-16.32-142.56-18.84l30.64-125.18,27.5-95.19Z"/>
        <g>
          <path class="cls-9" d="m803.4,138.46c5.33-.52,10.66-1.04,15.99-1.56.06-4.27-.23-8.55-.85-12.77,4.44-1.56,9.58-3.89,10.36-8.54.25-1.46,0-2.96-.26-4.42-1.04-6.04-2.07-12.09-3.11-18.13-.36-2.09-.74-4.24-1.87-6.03-1.99-3.14-5.86-4.52-9.52-5.17-9.35-1.64-19.55.38-26.82,6.49-1.93,1.63-3.68,3.59-4.54,5.97-1.32,3.67-.34,7.72.64,11.49.91,3.48,1.82,6.96,2.73,10.44,1.05,4,2.56,8.55,6.41,10.06,2.05.8,4.46.57,6.32,1.75,3.27,2.08,2.82,6.94,4.51,10.43Z"/>
          <path class="cls-8" d="m751.32,78.05c-.1-4.14.48-8.34,1.31-12.11,1.42-6.49,9.08-9.41,15.71-9.87,14.32-.99,28.14-7.49,42.12-2.47,7.99,2.86,18.73,3.55,25.96,7.59,3.02,1.69,5.43,4.32,7.31,7.23,6.5,10.07,6.52,23.94.04,34.03-1.45,2.26-3.19,4.33-5.02,6.3-3.78,4.09-8.3,9.13-13.49,10.64-.12-4.64,4.13-19.28.57-23.09-5.65-6.05-18.45-3.96-25.47-2.48-7.66,1.61-14.49,7.02-22.09,8.17-5.46.83-12.43-1.86-17.07-4.69-7.27-4.43-9.7-11.76-9.89-19.25Z"/>
        </g>
        <path class="cls-1" d="m799.63,139.44l-47.99,191.96-3.93,25.18,59.79,7.87s-2.36-91.92-1.57-104.18c.79-12.26,9.65-38.77,11.01-67.33.79-16.52,6.03-46.2,2.36-55.86l-19.67,2.36Z"/>
      </g>
      <path class="cls-2" d="m406.95,352.27v51.98c.24-1.04.39-2.13.39-3.27v-82.34h-.39v33.63Z"/>
      <path class="cls-2" d="m406.98,282.37v-50.92c-.25,1.06-.41,2.15-.41,3.31v81.5h.39v-33.89h.02Z"/>
      <path class="cls-2" d="m391.68,466.52c-1.88.2-3.78.78-5.59,1.81-5.57,3.18-11.11,6.19-16.75,8.12,5.56-1.85,11.06-4.83,16.83-7.97,1.85-1,3.7-1.64,5.51-1.96Z"/>
      <path class="cls-2" d="m444.58,230.54c-5.64-1.92-11.18-4.93-16.75-8.11-1.81-1.03-3.7-1.61-5.58-1.81,1.81.32,3.66.95,5.51,1.96,5.77,3.13,11.27,6.12,16.83,7.97Z"/>
      <path class="cls-2" d="m406.94,477.35v107.56c.13,0,.27,0,.41,0v-104.25c0-1.16-.16-2.26-.41-3.31Z"/>
      <path class="cls-2" d="m255.87,296.9c1.55,2.49,2.2,5.16,2.15,7.75.3-2.95-.32-6.06-2.1-8.91-5.74-9.2-9.4-19.42-9.36-29.06-.36,9.98,3.35,20.64,9.31,30.22Z"/>
      <path class="cls-2" d="m321.39,269.27c-.46,9.26-5.11,18.06-10.18,26.95-1.32,2.3-1.89,4.74-1.88,7.12.16-1.99.73-4.01,1.83-5.93,5.29-9.27,10.13-18.44,10.23-28.13Z"/>
      <path class="cls-2" d="m406.96,158.35v-51.98s0-58.69,0-58.69c-.13,0-.26,0-.39.01v107.39c0,1.14.16,2.23.4,3.27Z"/>
      <path class="cls-4" d="m391.68,466.52c-1.81.32-3.66.95-5.51,1.96-5.77,3.13-11.27,6.12-16.83,7.97-8.37,2.85-16.95,3.29-26.19-1.74-18.82-10.23-25.79-35.55-14.93-54,13.39-22.75,37.72-19.94,57.41-7.67,8.5,5.3,19.22.34,21.33-8.79v-51.98s0-33.63,0-33.63h0v-2.37h-.39v1.92h-86.78c-6.66-1.77-10.98-8.18-10.46-14.84-.02-2.37.56-4.81,1.88-7.12,5.07-8.89,9.72-17.69,10.18-26.95.05-4.78-1.05-9.7-3.83-14.81-10.22-18.82-35.54-25.81-53.99-14.96-11.69,6.87-16.63,16.64-17.01,27.19-.04,9.64,3.62,19.86,9.36,29.06,1.78,2.85,2.4,5.96,2.1,8.91-.13,6.21-4.39,11.96-10.73,13.53h-75.46c-.25.38-.51.75-.75,1.14-6.51,10.64-5.17,18.56,4.55,25.25,6.23,4.29,12.8,7.98,18.25,13.54,8.32,8.5,8.86,13.51,2.51,24.02-7.15,11.83-7.11,12.31,3.88,20.72,2.95,2.26,6.07,3.95,1.93,8.22-6.1,6.28-3.91,12.41,1.33,16.99,7.37,6.42,8.48,14.66,7.09,23.88-1.21,8.04-2.99,15.98-4.49,23.96-4.06,21.55,1.59,31.55,21.06,37.21,20.32,5.91,40.54.79,60.81-1.17,13.58-1.31,26.96-6.04,40.85-2.6,9.02,2.23,14,7.75,15.16,17.85,1.69,14.74,6.08,28.82,8.58,43.32,2.04,11.83,7.19,15.52,17.84,15.04,8.92-.4,21.69-.59,36.5-.65v-107.56c-1.64-6.99-8.34-11.55-15.26-10.83Z"/>
      <path class="cls-5" d="m480.42,115.51c4.18,8.39,15.76,10.72,22.79,3.59,16.29-16.51,39.32-24.89,57.62-5.87,14.84,15.42,13.94,41.67-1.99,55.99-7.82,7.03-16.28,8.6-25.08,7.77-5.83-.51-11.88-2.14-18.22-3.84-2.03-.55-3.98-.73-5.81-.62-6.9.9-12.36,6.9-12.34,14.08l11.83,49.53h-.02s7.87,32.97,7.87,32.97h0s.28,1.19.28,1.19l.27,1.12.38-.09,85.44-20.4c8.36.94,14.59,9.3,12.02,18.11-4.48,15.3-8.02,30.15,3.74,43.26,14.31,15.94,40.56,16.85,55.99,2.02,19.03-18.29,10.66-41.32-5.84-57.62-6.73-6.65-5.01-17.36,2.28-22.04l52.23-12.47c2.74-19.27,2.5-38.24-.57-55.98-9.03-45.72-26.77-81.08-54.81-106.76C610.99,6.76,544.64-7.65,474.18,3.55c-6.62,1.05-13.1,2.51-19.46,4.32l13.63,57.08,12.07,50.56Z"/>
      <polygon class="cls-4" points="406.96 316.26 406.95 316.26 406.95 318.64 406.96 318.64 406.96 317.49 406.96 316.26"/>
      <path class="cls-3" d="m567.96,585.6c12.72-.69,6.55-8.63.68-20.95-47.57-99.99,9.09-180.58,18.37-191.86,13.9-16.9,24.56-35.31,31.99-54.15h-53.7c-8.18,2.86-12.34,12.87-7.34,20.9,12.26,19.69,15.05,44.03-7.7,57.4-18.45,10.84-43.77,3.86-53.99-14.96-8.4-15.48-1.51-29.1,6.4-42.94,4.55-7.97.43-17.55-7.48-20.4h-87.84v82.34c0,1.14-.16,2.23-.4,3.27v.35c-2.22,9-12.85,13.84-21.28,8.58-19.69-12.26-44.03-15.06-57.4,7.7-10.85,18.45-2.82,43.34,16,53.56,9.1,4.94,17.14,4.63,25.07,2,5.64-1.92,11.18-4.93,16.75-8.12,1.81-1.03,3.71-1.61,5.59-1.81,7.23-1.28,13.64,2.73,15.27,10.59v.24c.25,1.06.41,2.16.41,3.31v104.25c57.32-.21,144.99,1.54,160.61.69Z"/>
      <path class="cls-3" d="m406.94,477.35v-.24c-1.62-7.86-8.03-11.86-15.27-10.59,6.92-.72,13.62,3.84,15.27,10.83Z"/>
      <path class="cls-3" d="m385.62,413.04c-19.68-12.27-44.02-15.08-57.41,7.67-10.86,18.45-3.89,43.77,14.93,54,9.24,5.02,17.83,4.59,26.19,1.74-7.93,2.64-15.97,2.94-25.07-2-18.82-10.22-26.85-35.11-16-53.56,13.38-22.75,37.71-19.96,57.4-7.7,8.43,5.25,19.06.41,21.28-8.58v-.35c-2.11,9.13-12.84,14.08-21.33,8.79Z"/>
      <path class="cls-11" d="m485.7,174.81c-13.39-22.75-37.72-19.94-57.41-7.67-8.5,5.3-19.22.34-21.33-8.79-.24-1.04-.4-2.13-.4-3.27V47.69c-29.33,1.32-57.86,10.16-85.24,23.58-7.36,3.61-14.6,7.55-21.78,11.62-50.34,28.51-78.35,72.28-75.98,136.42,1.33,35.99-14.69,62.19-38.37,84.21-4.28,3.98-8.53,7.94-12.04,12.72-.46.63-.91,1.28-1.34,1.94h75.46c6.35-1.57,10.6-7.32,10.73-13.53.05-2.59-.6-5.27-2.15-7.75-5.96-9.57-9.67-20.24-9.31-30.22.38-10.54,5.32-20.31,17.01-27.19,18.45-10.84,43.77-3.86,53.99,14.96,2.78,5.11,3.87,10.03,3.83,14.81-.1,9.69-4.93,18.87-10.23,28.13-1.1,1.92-1.67,3.94-1.83,5.93-.53,6.66,3.79,13.07,10.46,14.84h86.78v-83.41c0-1.16.16-2.26.41-3.31,1.65-6.99,8.35-11.56,15.27-10.83,1.88.2,3.77.78,5.58,1.81,5.57,3.18,11.11,6.19,16.75,8.11,8.37,2.85,16.95,3.29,26.19-1.74,18.82-10.23,25.79-35.55,14.93-54Z"/>
      <g>
        <polygon class="cls-6" points="839.89 168.65 781.48 223.8 694.83 197.97 688.63 217.46 783.86 261.03 808.92 261.03 861.88 215.98 839.89 168.65"/>
        <polygon class="cls-9" points="689.19 215.71 674.1 215.98 664.89 202.99 688.3 189.97 694.83 197.97 689.19 215.71"/>
      </g>
      <g>
        <polygon class="cls-9" points="204.46 248.7 204.18 257.49 219.7 263.14 228.64 256.36 228.64 246.13 220.01 245.65 219.74 243.4 216.91 241.58 204.46 248.7"/>
        <path class="cls-5" d="m74.97,182.94l63.98,54.48,67.96,1.32s-2.76,29.2-2.73,26.77c.03-2.43-75.26,7.28-75.26,7.28l-66.79-47.21,12.85-42.64Z"/>
      </g>
    </g>
  </g>
</svg>